<?xml version="1.0" encoding="UTF-8"?>
<svg xmlns="http://www.w3.org/2000/svg" xmlns:xlink="http://www.w3.org/1999/xlink" width="41px" height="41px" viewBox="0 0 41 41" version="1.1">
<g id="surface1">
<path style=" stroke:none;fill-rule:nonzero;fill:rgb(2.745098%,16.078432%,30.980393%);fill-opacity:1;" d="M 6.34375 15.371094 C 6.410156 15.371094 6.476562 15.371094 6.542969 15.367188 C 6.757812 15.367188 6.972656 15.367188 7.183594 15.367188 C 7.335938 15.367188 7.484375 15.367188 7.632812 15.363281 C 7.949219 15.363281 8.261719 15.363281 8.574219 15.363281 C 8.976562 15.363281 9.375 15.363281 9.773438 15.359375 C 10.085938 15.355469 10.394531 15.355469 10.703125 15.355469 C 10.851562 15.355469 11 15.355469 11.144531 15.355469 C 12.53125 15.339844 12.53125 15.339844 13.074219 15.777344 C 13.546875 16.261719 13.625 16.695312 13.625 17.355469 C 13.625 17.453125 13.625 17.453125 13.625 17.546875 C 13.628906 17.757812 13.628906 17.964844 13.628906 18.171875 C 13.628906 18.316406 13.628906 18.460938 13.628906 18.605469 C 13.632812 18.910156 13.632812 19.214844 13.632812 19.519531 C 13.632812 19.90625 13.632812 20.296875 13.636719 20.683594 C 13.636719 20.984375 13.636719 21.285156 13.636719 21.585938 C 13.640625 21.726562 13.640625 21.871094 13.640625 22.015625 C 13.640625 22.214844 13.640625 22.414062 13.640625 22.617188 C 13.640625 22.675781 13.644531 22.734375 13.644531 22.792969 C 13.640625 23.289062 13.535156 23.742188 13.214844 24.128906 C 13.160156 24.171875 13.105469 24.214844 13.046875 24.261719 C 12.996094 24.308594 12.941406 24.351562 12.886719 24.398438 C 12.488281 24.667969 12.128906 24.707031 11.660156 24.707031 C 11.597656 24.707031 11.535156 24.707031 11.472656 24.707031 C 11.261719 24.710938 11.054688 24.710938 10.847656 24.710938 C 10.703125 24.710938 10.558594 24.710938 10.414062 24.710938 C 10.109375 24.710938 9.804688 24.710938 9.503906 24.710938 C 9.113281 24.710938 8.726562 24.714844 8.339844 24.71875 C 8.039062 24.71875 7.738281 24.71875 7.441406 24.71875 C 7.296875 24.71875 7.15625 24.71875 7.011719 24.722656 C 6.8125 24.722656 6.609375 24.722656 6.410156 24.722656 C 6.351562 24.722656 6.292969 24.722656 6.234375 24.726562 C 5.671875 24.71875 5.265625 24.507812 4.847656 24.152344 C 4.507812 23.746094 4.484375 23.367188 4.484375 22.847656 C 4.484375 22.78125 4.484375 22.714844 4.484375 22.644531 C 4.484375 22.417969 4.484375 22.195312 4.484375 21.972656 C 4.480469 21.816406 4.480469 21.660156 4.480469 21.503906 C 4.480469 21.175781 4.480469 20.847656 4.480469 20.523438 C 4.480469 20.101562 4.476562 19.683594 4.472656 19.265625 C 4.472656 18.945312 4.472656 18.621094 4.472656 18.300781 C 4.472656 18.144531 4.472656 17.992188 4.46875 17.835938 C 4.46875 17.621094 4.46875 17.402344 4.46875 17.1875 C 4.46875 17.125 4.46875 17.0625 4.46875 16.996094 C 4.472656 16.546875 4.589844 16.285156 4.839844 15.90625 C 4.890625 15.90625 4.945312 15.90625 5.003906 15.90625 C 5.003906 15.855469 5.003906 15.800781 5.003906 15.742188 C 5.472656 15.476562 5.808594 15.367188 6.34375 15.371094 Z M 6.34375 15.371094 "/>
<path style=" stroke:none;fill-rule:nonzero;fill:rgb(97.647059%,50.196081%,9.803922%);fill-opacity:1;" d="M 9.367188 17.039062 C 9.472656 17.039062 9.472656 17.039062 9.578125 17.039062 C 9.800781 17.042969 10.023438 17.042969 10.246094 17.046875 C 10.394531 17.046875 10.546875 17.046875 10.699219 17.046875 C 11.070312 17.050781 11.4375 17.050781 11.808594 17.054688 C 11.808594 17.175781 11.8125 17.292969 11.8125 17.414062 C 11.8125 17.480469 11.816406 17.546875 11.816406 17.613281 C 11.804688 17.832031 11.757812 17.945312 11.617188 18.113281 C 11.582031 18.15625 11.546875 18.199219 11.511719 18.246094 C 11.472656 18.285156 11.4375 18.324219 11.398438 18.367188 C 11.335938 18.4375 11.335938 18.4375 11.269531 18.507812 C 11.152344 18.613281 11.152344 18.613281 10.988281 18.613281 C 10.988281 18.667969 10.988281 18.722656 10.988281 18.777344 C 10.933594 18.777344 10.878906 18.777344 10.824219 18.777344 C 10.824219 18.832031 10.824219 18.886719 10.824219 18.941406 C 10.675781 19 10.675781 19 10.496094 19.023438 C 10.410156 18.945312 10.332031 18.863281 10.25 18.777344 C 9.75 18.492188 9.261719 18.460938 8.691406 18.53125 C 8.414062 18.636719 8.414062 18.636719 8.28125 18.859375 C 8.304688 19.050781 8.328125 19.242188 8.363281 19.433594 C 8.453125 19.457031 8.546875 19.476562 8.640625 19.5 C 8.757812 19.527344 8.878906 19.558594 9 19.585938 C 9.089844 19.609375 9.089844 19.609375 9.179688 19.632812 C 9.472656 19.703125 9.742188 19.773438 10.003906 19.925781 C 9.871094 20.246094 9.652344 20.476562 9.417969 20.726562 C 9.363281 20.789062 9.363281 20.789062 9.304688 20.851562 C 9.210938 20.953125 9.113281 21.054688 9.019531 21.15625 C 8.945312 21.136719 8.871094 21.121094 8.796875 21.101562 C 8.699219 21.078125 8.601562 21.054688 8.503906 21.03125 C 8.40625 21.011719 8.308594 20.988281 8.210938 20.964844 C 7.957031 20.902344 7.957031 20.902344 7.707031 20.910156 C 7.679688 21.019531 7.652344 21.125 7.625 21.238281 C 7.679688 21.257812 7.734375 21.277344 7.789062 21.300781 C 8.042969 21.40625 8.277344 21.53125 8.515625 21.664062 C 8.757812 21.753906 8.925781 21.765625 9.183594 21.730469 C 9.378906 21.574219 9.378906 21.574219 9.542969 21.359375 C 9.832031 21.015625 10.128906 20.695312 10.453125 20.382812 C 10.585938 20.257812 10.585938 20.257812 10.660156 20.089844 C 10.714844 20.089844 10.769531 20.089844 10.824219 20.089844 C 10.859375 20.015625 10.859375 20.015625 10.894531 19.9375 C 10.988281 19.761719 10.988281 19.761719 11.152344 19.597656 C 11.402344 19.582031 11.402344 19.582031 11.644531 19.597656 C 11.824219 19.78125 11.75 20.21875 11.753906 20.46875 C 11.742188 21.074219 11.570312 21.519531 11.265625 22.039062 C 10.785156 22.492188 10.234375 22.808594 9.570312 22.804688 C 9.5 22.804688 9.429688 22.804688 9.359375 22.804688 C 9.25 22.804688 9.25 22.804688 9.136719 22.804688 C 9.0625 22.804688 8.984375 22.804688 8.90625 22.804688 C 8.664062 22.804688 8.421875 22.800781 8.179688 22.800781 C 8.015625 22.800781 7.851562 22.800781 7.6875 22.800781 C 7.285156 22.800781 6.878906 22.796875 6.476562 22.796875 C 6.46875 22.296875 6.464844 21.800781 6.460938 21.304688 C 6.457031 21.136719 6.457031 20.964844 6.453125 20.796875 C 6.417969 18.609375 6.417969 18.609375 7.292969 17.703125 C 7.894531 17.15625 8.578125 17.03125 9.367188 17.039062 Z M 9.367188 17.039062 "/>
<path style=" stroke:none;fill-rule:nonzero;fill:rgb(7.843138%,19.215687%,33.333334%);fill-opacity:1;" d="M 31.570312 17.382812 C 31.742188 17.375 31.914062 17.367188 32.085938 17.363281 C 32.226562 17.359375 32.226562 17.359375 32.375 17.351562 C 32.636719 17.382812 32.636719 17.382812 32.8125 17.535156 C 32.964844 17.75 33.085938 17.972656 33.210938 18.203125 C 33.308594 18.363281 33.410156 18.519531 33.507812 18.679688 C 33.910156 19.308594 34.296875 19.945312 34.6875 20.582031 C 34.714844 19.527344 34.738281 18.472656 34.769531 17.382812 C 35.121094 17.382812 35.472656 17.382812 35.835938 17.382812 C 35.835938 19.144531 35.835938 20.902344 35.835938 22.714844 C 35.480469 22.714844 35.128906 22.714844 34.769531 22.714844 C 34.519531 22.402344 34.371094 22.15625 34.195312 21.8125 C 34.035156 21.570312 33.859375 21.335938 33.6875 21.101562 C 33.457031 20.773438 33.457031 20.773438 33.457031 20.5 C 33.402344 20.5 33.347656 20.5 33.292969 20.5 C 33.125 20.261719 33.046875 20.140625 33.046875 19.84375 C 32.992188 19.84375 32.9375 19.84375 32.882812 19.84375 C 32.882812 19.761719 32.882812 19.679688 32.882812 19.597656 C 32.828125 19.597656 32.773438 19.597656 32.71875 19.597656 C 32.71875 20.625 32.71875 21.65625 32.71875 22.714844 C 32.367188 22.714844 32.015625 22.714844 31.652344 22.714844 C 31.570312 22.632812 31.570312 22.632812 31.558594 22.421875 C 31.558594 22.328125 31.558594 22.238281 31.5625 22.140625 C 31.5625 22.035156 31.5625 21.929688 31.5625 21.824219 C 31.5625 21.707031 31.5625 21.589844 31.5625 21.476562 C 31.5625 21.359375 31.5625 21.242188 31.5625 21.125 C 31.5625 20.8125 31.5625 20.503906 31.5625 20.195312 C 31.566406 19.878906 31.566406 19.5625 31.566406 19.246094 C 31.566406 18.625 31.566406 18.003906 31.570312 17.382812 Z M 31.570312 17.382812 "/>
<path style=" stroke:none;fill-rule:nonzero;fill:rgb(3.529412%,16.078432%,30.588236%);fill-opacity:1;" d="M 18.6875 17.617188 C 18.902344 17.734375 19.089844 17.871094 19.269531 18.039062 C 19.242188 18.148438 19.214844 18.257812 19.1875 18.367188 C 19.132812 18.367188 19.078125 18.367188 19.023438 18.367188 C 19.023438 18.421875 19.023438 18.476562 19.023438 18.53125 C 18.96875 18.53125 18.914062 18.53125 18.859375 18.53125 C 18.859375 18.585938 18.859375 18.640625 18.859375 18.695312 C 18.804688 18.695312 18.75 18.695312 18.695312 18.695312 C 18.695312 18.75 18.695312 18.804688 18.695312 18.859375 C 18.492188 18.777344 18.492188 18.777344 18.285156 18.695312 C 18.285156 18.640625 18.285156 18.585938 18.285156 18.53125 C 17.953125 18.453125 17.644531 18.429688 17.300781 18.449219 C 17.03125 18.589844 17.03125 18.589844 17 18.871094 C 16.992188 18.949219 16.984375 19.027344 16.972656 19.105469 C 17.027344 19.105469 17.082031 19.105469 17.136719 19.105469 C 17.136719 19.160156 17.136719 19.214844 17.136719 19.269531 C 17.195312 19.28125 17.253906 19.289062 17.3125 19.300781 C 18.039062 19.460938 18.691406 19.777344 19.1875 20.335938 C 19.40625 20.683594 19.40625 21.085938 19.351562 21.484375 C 19.199219 21.96875 18.945312 22.269531 18.53125 22.550781 C 17.917969 22.796875 17.195312 22.839844 16.5625 22.632812 C 16.359375 22.535156 16.175781 22.429688 15.988281 22.304688 C 15.90625 22.25 15.820312 22.191406 15.734375 22.136719 C 15.578125 21.976562 15.578125 21.976562 15.578125 21.648438 C 15.632812 21.648438 15.6875 21.648438 15.742188 21.648438 C 15.742188 21.59375 15.742188 21.539062 15.742188 21.484375 C 15.796875 21.484375 15.851562 21.484375 15.90625 21.484375 C 15.960938 21.375 16.015625 21.265625 16.070312 21.15625 C 16.460938 21.15625 16.578125 21.265625 16.890625 21.484375 C 17.121094 21.558594 17.269531 21.578125 17.507812 21.582031 C 17.601562 21.582031 17.601562 21.582031 17.699219 21.585938 C 17.898438 21.578125 17.898438 21.578125 18.121094 21.402344 C 18.140625 21.109375 18.140625 21.109375 18.121094 20.828125 C 17.890625 20.734375 17.65625 20.644531 17.421875 20.554688 C 17.3125 20.515625 17.207031 20.472656 17.101562 20.433594 C 17.023438 20.40625 17.023438 20.40625 16.941406 20.375 C 16.457031 20.1875 16.101562 19.953125 15.832031 19.496094 C 15.695312 19.019531 15.757812 18.652344 15.914062 18.1875 C 16.5625 17.246094 17.695312 17.164062 18.6875 17.617188 Z M 18.6875 17.617188 "/>
<path style=" stroke:none;fill-rule:nonzero;fill:rgb(9.411765%,20.392157%,33.333334%);fill-opacity:1;" d="M 22.964844 18.988281 C 23.015625 19.027344 23.070312 19.066406 23.125 19.105469 C 23.125 19.160156 23.125 19.214844 23.125 19.269531 C 23.179688 19.269531 23.230469 19.269531 23.289062 19.269531 C 23.355469 19.382812 23.421875 19.5 23.488281 19.613281 C 23.523438 19.675781 23.5625 19.742188 23.601562 19.804688 C 23.847656 20.3125 23.839844 20.847656 23.667969 21.375 C 23.582031 21.613281 23.484375 21.835938 23.371094 22.058594 C 23.316406 22.058594 23.261719 22.058594 23.207031 22.058594 C 23.207031 22.113281 23.207031 22.167969 23.207031 22.222656 C 23.152344 22.222656 23.097656 22.222656 23.042969 22.222656 C 23.042969 22.277344 23.042969 22.332031 23.042969 22.386719 C 22.960938 22.386719 22.878906 22.386719 22.796875 22.386719 C 22.796875 22.441406 22.796875 22.496094 22.796875 22.550781 C 22.164062 22.792969 21.339844 22.871094 20.703125 22.589844 C 20.234375 22.300781 19.839844 21.851562 19.679688 21.320312 C 19.664062 21.097656 19.652344 20.890625 19.65625 20.667969 C 19.652344 20.613281 19.652344 20.554688 19.648438 20.496094 C 19.648438 20.027344 19.765625 19.707031 20.066406 19.347656 C 20.113281 19.300781 20.164062 19.257812 20.214844 19.207031 C 20.261719 19.160156 20.308594 19.113281 20.359375 19.066406 C 21.132812 18.386719 22.121094 18.558594 22.964844 18.988281 Z M 21.074219 19.84375 C 21.046875 19.925781 21.019531 20.007812 20.992188 20.089844 C 20.9375 20.089844 20.882812 20.089844 20.828125 20.089844 C 20.738281 20.628906 20.695312 21.011719 20.992188 21.484375 C 21.265625 21.6875 21.480469 21.75 21.816406 21.730469 C 22.160156 21.671875 22.328125 21.507812 22.550781 21.238281 C 22.578125 21.210938 22.605469 21.183594 22.632812 21.15625 C 22.640625 20.996094 22.644531 20.835938 22.648438 20.675781 C 22.648438 20.585938 22.648438 20.5 22.652344 20.410156 C 22.648438 20.15625 22.648438 20.15625 22.46875 19.925781 C 22.414062 19.925781 22.359375 19.925781 22.304688 19.925781 C 22.304688 19.871094 22.304688 19.816406 22.304688 19.761719 C 21.820312 19.546875 21.53125 19.570312 21.074219 19.84375 Z M 21.074219 19.84375 "/>
<path style=" stroke:none;fill-rule:nonzero;fill:rgb(8.627451%,20.784314%,34.901962%);fill-opacity:1;" d="M 26.867188 18.953125 C 27.222656 19.238281 27.410156 19.472656 27.46875 19.925781 C 27.476562 20.136719 27.480469 20.347656 27.476562 20.558594 C 27.476562 20.617188 27.476562 20.675781 27.476562 20.738281 C 27.476562 20.925781 27.476562 21.117188 27.476562 21.304688 C 27.476562 21.433594 27.472656 21.5625 27.472656 21.691406 C 27.472656 22.003906 27.472656 22.316406 27.46875 22.632812 C 27.117188 22.632812 26.765625 22.632812 26.402344 22.632812 C 26.375 22.550781 26.351562 22.46875 26.320312 22.386719 C 26.261719 22.441406 26.203125 22.496094 26.144531 22.550781 C 25.742188 22.820312 25.226562 22.765625 24.765625 22.714844 C 24.566406 22.628906 24.566406 22.628906 24.4375 22.550781 C 24.4375 22.496094 24.4375 22.441406 24.4375 22.386719 C 24.382812 22.386719 24.328125 22.386719 24.273438 22.386719 C 23.980469 22.058594 23.984375 21.710938 23.996094 21.292969 C 24.039062 20.980469 24.136719 20.808594 24.355469 20.582031 C 24.789062 20.300781 25.15625 20.304688 25.65625 20.320312 C 25.726562 20.320312 25.800781 20.324219 25.875 20.324219 C 26.050781 20.328125 26.226562 20.332031 26.402344 20.335938 C 26.3125 19.890625 26.3125 19.890625 25.992188 19.597656 C 25.832031 19.59375 25.832031 19.59375 25.664062 19.625 C 25.609375 19.632812 25.554688 19.640625 25.496094 19.648438 C 25.320312 19.679688 25.320312 19.679688 25.09375 19.761719 C 25.066406 19.84375 25.039062 19.925781 25.011719 20.007812 C 24.640625 19.964844 24.40625 19.8125 24.109375 19.597656 C 24.8125 18.738281 25.808594 18.21875 26.867188 18.953125 Z M 25.09375 21.15625 C 25.078125 21.394531 25.078125 21.394531 25.09375 21.648438 C 25.238281 21.828125 25.238281 21.828125 25.433594 21.828125 C 25.5 21.824219 25.566406 21.824219 25.636719 21.820312 C 25.703125 21.820312 25.769531 21.820312 25.839844 21.816406 C 25.890625 21.816406 25.941406 21.8125 25.992188 21.8125 C 25.992188 21.757812 25.992188 21.703125 25.992188 21.648438 C 26.074219 21.621094 26.15625 21.59375 26.238281 21.566406 C 26.375 21.351562 26.402344 21.25 26.402344 20.992188 C 26.246094 20.988281 26.089844 20.984375 25.933594 20.980469 C 25.84375 20.980469 25.757812 20.976562 25.667969 20.976562 C 25.425781 20.992188 25.296875 21.03125 25.09375 21.15625 Z M 25.09375 21.15625 "/>
<path style=" stroke:none;fill-rule:nonzero;fill:rgb(5.882353%,18.039216%,31.764707%);fill-opacity:1;" d="M 31.570312 17.382812 C 31.921875 17.382812 32.273438 17.382812 32.636719 17.382812 C 32.890625 17.675781 33.039062 17.875 33.210938 18.203125 C 33.292969 18.324219 33.292969 18.324219 33.375 18.449219 C 33.375 18.558594 33.375 18.667969 33.375 18.777344 C 33.265625 18.75 33.15625 18.722656 33.046875 18.695312 C 33.074219 18.886719 33.101562 19.074219 33.128906 19.269531 C 32.96875 19.316406 32.96875 19.316406 32.800781 19.351562 C 32.773438 19.324219 32.746094 19.296875 32.71875 19.269531 C 32.691406 20.378906 32.664062 21.488281 32.636719 22.632812 C 32.285156 22.632812 31.933594 22.632812 31.570312 22.632812 C 31.570312 20.898438 31.570312 19.167969 31.570312 17.382812 Z M 31.570312 17.382812 "/>
<path style=" stroke:none;fill-rule:nonzero;fill:rgb(2.352941%,15.294118%,30.588236%);fill-opacity:1;" d="M 28.042969 17.382812 C 28.421875 17.382812 28.800781 17.382812 29.191406 17.382812 C 29.191406 19.144531 29.191406 20.902344 29.191406 22.714844 C 28.839844 22.714844 28.488281 22.714844 28.125 22.714844 C 28.035156 20.9375 28.035156 19.164062 28.042969 17.382812 Z M 28.042969 17.382812 "/>
<path style=" stroke:none;fill-rule:nonzero;fill:rgb(7.843138%,20.392157%,34.509805%);fill-opacity:1;" d="M 29.847656 17.382812 C 30.199219 17.382812 30.550781 17.382812 30.914062 17.382812 C 30.914062 19.144531 30.914062 20.902344 30.914062 22.714844 C 30.589844 22.714844 30.265625 22.714844 29.929688 22.714844 C 29.847656 22.632812 29.847656 22.632812 29.839844 22.421875 C 29.839844 22.328125 29.839844 22.238281 29.839844 22.140625 C 29.839844 22.035156 29.839844 21.929688 29.839844 21.824219 C 29.839844 21.707031 29.839844 21.589844 29.839844 21.476562 C 29.839844 21.359375 29.839844 21.242188 29.839844 21.125 C 29.839844 20.8125 29.839844 20.503906 29.84375 20.195312 C 29.84375 19.878906 29.84375 19.5625 29.84375 19.246094 C 29.84375 18.625 29.847656 18.003906 29.847656 17.382812 Z M 29.847656 17.382812 "/>
<path style=" stroke:none;fill-rule:nonzero;fill:rgb(5.490196%,14.509805%,26.274511%);fill-opacity:1;" d="M 11.234375 18.367188 C 11.273438 18.488281 11.273438 18.488281 11.316406 18.613281 C 11.234375 18.640625 11.152344 18.667969 11.070312 18.695312 C 11.042969 18.746094 11.019531 18.796875 10.992188 18.851562 C 10.890625 19.058594 10.769531 19.144531 10.578125 19.269531 C 10.660156 19.242188 10.742188 19.214844 10.824219 19.1875 C 10.90625 19.433594 10.90625 19.433594 10.824219 19.679688 C 10.878906 19.679688 10.933594 19.679688 10.988281 19.679688 C 11.015625 19.570312 11.042969 19.464844 11.070312 19.351562 C 11.191406 19.359375 11.3125 19.371094 11.433594 19.382812 C 11.5 19.386719 11.570312 19.394531 11.636719 19.398438 C 11.722656 19.417969 11.722656 19.417969 11.808594 19.433594 C 11.945312 19.707031 11.898438 20.007812 11.894531 20.304688 C 11.894531 20.371094 11.894531 20.4375 11.894531 20.503906 C 11.894531 20.667969 11.890625 20.828125 11.890625 20.992188 C 11.835938 20.992188 11.78125 20.992188 11.726562 20.992188 C 11.699219 20.558594 11.671875 20.125 11.644531 19.679688 C 11.480469 19.679688 11.320312 19.679688 11.152344 19.679688 C 10.964844 19.878906 10.964844 19.878906 10.824219 20.089844 C 10.769531 20.089844 10.714844 20.089844 10.660156 20.089844 C 10.640625 20.136719 10.621094 20.183594 10.601562 20.230469 C 10.472656 20.457031 10.320312 20.609375 10.132812 20.785156 C 9.945312 20.964844 9.773438 21.132812 9.621094 21.34375 C 9.585938 21.390625 9.550781 21.4375 9.511719 21.484375 C 9.457031 21.484375 9.402344 21.484375 9.347656 21.484375 C 9.292969 21.59375 9.238281 21.699219 9.183594 21.8125 C 8.75 21.847656 8.503906 21.738281 8.128906 21.523438 C 8.078125 21.496094 8.03125 21.46875 7.980469 21.441406 C 7.863281 21.375 7.742188 21.304688 7.625 21.238281 C 7.652344 21.101562 7.679688 20.96875 7.707031 20.828125 C 7.761719 20.839844 7.816406 20.851562 7.871094 20.859375 C 7.941406 20.875 8.011719 20.890625 8.085938 20.90625 C 8.191406 20.925781 8.191406 20.925781 8.300781 20.949219 C 8.414062 20.96875 8.414062 20.96875 8.527344 20.992188 C 8.609375 21.015625 8.6875 21.042969 8.773438 21.066406 C 9.039062 21.101562 9.039062 21.101562 9.261719 20.871094 C 9.34375 20.78125 9.421875 20.691406 9.496094 20.597656 C 9.535156 20.550781 9.578125 20.503906 9.617188 20.457031 C 9.765625 20.289062 9.902344 20.128906 10.003906 19.925781 C 9.515625 19.769531 9.039062 19.644531 8.53125 19.566406 C 8.363281 19.515625 8.363281 19.515625 8.199219 19.269531 C 8.160156 19.074219 8.160156 19.074219 8.199219 18.859375 C 8.425781 18.578125 8.5625 18.472656 8.921875 18.414062 C 9.476562 18.394531 9.863281 18.484375 10.332031 18.777344 C 10.566406 18.910156 10.566406 18.910156 10.824219 18.941406 C 10.824219 18.886719 10.824219 18.832031 10.824219 18.777344 C 10.878906 18.777344 10.933594 18.777344 10.988281 18.777344 C 10.988281 18.722656 10.988281 18.667969 10.988281 18.613281 C 11.042969 18.613281 11.097656 18.613281 11.152344 18.613281 C 11.179688 18.53125 11.207031 18.453125 11.234375 18.367188 Z M 11.234375 18.367188 "/>
<path style=" stroke:none;fill-rule:nonzero;fill:rgb(98.823529%,50.196081%,8.235294%);fill-opacity:1;" d="M 7.214844 20.335938 C 7.242188 20.417969 7.269531 20.5 7.296875 20.582031 C 7.21875 20.609375 7.136719 20.636719 7.050781 20.664062 C 7.023438 20.800781 6.996094 20.933594 6.96875 21.074219 C 7.230469 20.921875 7.230469 20.921875 7.378906 20.664062 C 7.40625 20.851562 7.433594 21.042969 7.460938 21.238281 C 7.515625 21.238281 7.570312 21.238281 7.625 21.238281 C 7.652344 21.320312 7.679688 21.398438 7.707031 21.484375 C 7.769531 21.496094 7.828125 21.503906 7.890625 21.515625 C 8.101562 21.5625 8.257812 21.625 8.445312 21.730469 C 8.445312 21.785156 8.445312 21.839844 8.445312 21.894531 C 8.527344 21.894531 8.609375 21.894531 8.691406 21.894531 C 8.691406 21.949219 8.691406 22.003906 8.691406 22.058594 C 8.78125 22.015625 8.867188 21.976562 8.957031 21.933594 C 9.203125 21.820312 9.304688 21.8125 9.59375 21.8125 C 9.621094 21.757812 9.648438 21.703125 9.675781 21.648438 C 9.785156 21.703125 9.890625 21.757812 10.003906 21.8125 C 10.003906 21.757812 10.003906 21.703125 10.003906 21.648438 C 10.058594 21.648438 10.113281 21.648438 10.167969 21.648438 C 10.195312 21.566406 10.222656 21.484375 10.25 21.402344 C 10.25 21.457031 10.25 21.511719 10.25 21.566406 C 10.304688 21.566406 10.359375 21.566406 10.414062 21.566406 C 10.441406 21.511719 10.46875 21.457031 10.496094 21.402344 C 10.535156 21.441406 10.535156 21.441406 10.578125 21.484375 C 10.605469 21.375 10.632812 21.265625 10.660156 21.15625 C 10.714844 21.15625 10.769531 21.15625 10.824219 21.15625 C 10.824219 21.320312 10.824219 21.480469 10.824219 21.648438 C 10.933594 21.621094 11.039062 21.59375 11.152344 21.566406 C 11.113281 21.769531 11.113281 21.769531 11.070312 21.976562 C 10.90625 21.949219 10.746094 21.921875 10.578125 21.894531 C 10.40625 22.175781 10.40625 22.175781 10.25 22.46875 C 9.882812 22.761719 9.550781 22.746094 9.101562 22.738281 C 9.03125 22.738281 8.960938 22.738281 8.886719 22.738281 C 8.664062 22.734375 8.4375 22.734375 8.214844 22.730469 C 8.0625 22.726562 7.910156 22.726562 7.757812 22.726562 C 7.386719 22.722656 7.015625 22.71875 6.640625 22.714844 C 6.640625 21.984375 6.640625 21.253906 6.640625 20.5 C 6.832031 20.445312 7.019531 20.390625 7.214844 20.335938 Z M 7.214844 20.335938 "/>
<path style=" stroke:none;fill-rule:nonzero;fill:rgb(2.745098%,14.901961%,29.411766%);fill-opacity:1;" d="M 22.714844 18.859375 C 22.777344 19.03125 22.777344 19.03125 22.796875 19.1875 C 22.878906 19.1875 22.957031 19.1875 23.042969 19.1875 C 23.09375 19.382812 23.09375 19.382812 23.125 19.597656 C 23.070312 19.652344 23.015625 19.707031 22.960938 19.761719 C 22.960938 19.84375 22.960938 19.925781 22.960938 20.007812 C 22.851562 20.007812 22.742188 20.007812 22.632812 20.007812 C 22.632812 19.953125 22.632812 19.898438 22.632812 19.84375 C 22.46875 19.816406 22.304688 19.789062 22.140625 19.761719 C 22.046875 19.742188 21.949219 19.722656 21.851562 19.699219 C 21.515625 19.675781 21.355469 19.742188 21.074219 19.925781 C 21.046875 19.980469 21.019531 20.035156 20.992188 20.089844 C 20.9375 20.089844 20.882812 20.089844 20.828125 20.089844 C 20.8125 20.347656 20.800781 20.601562 20.785156 20.859375 C 20.78125 20.933594 20.777344 21.003906 20.773438 21.078125 C 20.769531 21.148438 20.769531 21.21875 20.765625 21.292969 C 20.761719 21.355469 20.757812 21.421875 20.753906 21.488281 C 20.75 21.59375 20.746094 21.703125 20.746094 21.8125 C 20.515625 21.863281 20.515625 21.863281 20.253906 21.894531 C 20.171875 21.839844 20.089844 21.785156 20.007812 21.730469 C 20.035156 21.675781 20.058594 21.617188 20.085938 21.5625 C 20.183594 21.289062 20.21875 21.03125 20.253906 20.746094 C 20.082031 20.65625 20.082031 20.65625 19.84375 20.582031 C 19.859375 20.632812 19.878906 20.683594 19.894531 20.734375 C 19.90625 20.792969 19.914062 20.851562 19.925781 20.910156 C 19.871094 20.964844 19.816406 21.019531 19.761719 21.074219 C 19.753906 20.878906 19.75 20.679688 19.746094 20.484375 C 19.742188 20.402344 19.742188 20.402344 19.742188 20.316406 C 19.734375 19.839844 19.855469 19.601562 20.171875 19.257812 C 20.882812 18.605469 21.816406 18.34375 22.714844 18.859375 Z M 22.714844 18.859375 "/>
<path style=" stroke:none;fill-rule:nonzero;fill:rgb(91.764706%,50.588238%,14.509805%);fill-opacity:1;" d="M 6.476562 19.1875 C 6.503906 19.1875 6.53125 19.1875 6.558594 19.1875 C 6.558594 20.351562 6.558594 21.515625 6.558594 22.714844 C 7.097656 22.703125 7.636719 22.695312 8.191406 22.683594 C 8.445312 22.679688 8.445312 22.679688 8.703125 22.675781 C 8.839844 22.671875 8.972656 22.667969 9.105469 22.664062 C 9.210938 22.664062 9.210938 22.664062 9.320312 22.664062 C 9.699219 22.671875 9.699219 22.671875 10.003906 22.46875 C 10.085938 22.46875 10.167969 22.46875 10.25 22.46875 C 10.269531 22.390625 10.289062 22.3125 10.3125 22.230469 C 10.414062 21.976562 10.414062 21.976562 10.566406 21.851562 C 10.742188 21.8125 10.742188 21.8125 10.925781 21.882812 C 10.972656 21.914062 11.019531 21.945312 11.070312 21.976562 C 11.03125 21.8125 11.03125 21.8125 10.988281 21.648438 C 10.933594 21.648438 10.878906 21.648438 10.824219 21.648438 C 10.824219 21.484375 10.824219 21.324219 10.824219 21.15625 C 10.769531 21.15625 10.714844 21.15625 10.660156 21.15625 C 10.621094 21.359375 10.621094 21.359375 10.578125 21.566406 C 10.386719 21.59375 10.199219 21.621094 10.003906 21.648438 C 10.003906 21.703125 10.003906 21.757812 10.003906 21.8125 C 9.957031 21.796875 9.910156 21.777344 9.859375 21.761719 C 9.628906 21.722656 9.546875 21.773438 9.347656 21.890625 C 9.085938 22.039062 9.015625 22.058594 8.691406 22.058594 C 8.691406 22.003906 8.691406 21.949219 8.691406 21.894531 C 8.609375 21.894531 8.53125 21.894531 8.445312 21.894531 C 8.445312 21.839844 8.445312 21.785156 8.445312 21.730469 C 8.148438 21.648438 7.847656 21.605469 7.542969 21.566406 C 7.570312 21.457031 7.597656 21.347656 7.625 21.238281 C 7.9375 21.355469 8.222656 21.5 8.515625 21.664062 C 8.757812 21.753906 8.925781 21.765625 9.183594 21.730469 C 9.378906 21.574219 9.378906 21.574219 9.542969 21.359375 C 9.832031 21.015625 10.128906 20.695312 10.453125 20.382812 C 10.585938 20.257812 10.585938 20.257812 10.660156 20.089844 C 10.714844 20.089844 10.769531 20.089844 10.824219 20.089844 C 10.859375 20.015625 10.859375 20.015625 10.894531 19.9375 C 10.988281 19.761719 10.988281 19.761719 11.152344 19.597656 C 11.402344 19.582031 11.402344 19.582031 11.644531 19.597656 C 11.824219 19.78125 11.75 20.21875 11.753906 20.46875 C 11.742188 21.074219 11.570312 21.519531 11.265625 22.039062 C 10.785156 22.492188 10.234375 22.808594 9.570312 22.804688 C 9.5 22.804688 9.429688 22.804688 9.355469 22.804688 C 9.285156 22.804688 9.210938 22.804688 9.136719 22.804688 C 9.070312 22.804688 9 22.804688 8.933594 22.804688 C 8.679688 22.804688 8.429688 22.800781 8.179688 22.800781 C 7.335938 22.796875 7.335938 22.796875 6.476562 22.796875 C 6.476562 21.605469 6.476562 20.414062 6.476562 19.1875 Z M 6.476562 19.1875 "/>
<path style=" stroke:none;fill-rule:nonzero;fill:rgb(7.450981%,18.82353%,33.333334%);fill-opacity:1;" d="M 16.152344 17.875 C 16.25 18.167969 16.257812 18.390625 16.234375 18.695312 C 16.15625 18.75 16.074219 18.804688 15.988281 18.859375 C 15.96875 19.070312 15.96875 19.070312 15.988281 19.269531 C 16.167969 19.203125 16.167969 19.203125 16.234375 19.023438 C 16.289062 19.023438 16.34375 19.023438 16.398438 19.023438 C 16.398438 18.941406 16.398438 18.863281 16.398438 18.777344 C 16.507812 18.75 16.617188 18.722656 16.726562 18.695312 C 16.753906 18.777344 16.78125 18.859375 16.808594 18.941406 C 16.835938 18.753906 16.863281 18.5625 16.890625 18.367188 C 16.972656 18.394531 17.054688 18.421875 17.136719 18.449219 C 17.082031 18.667969 17.03125 18.882812 16.972656 19.105469 C 17.027344 19.105469 17.082031 19.105469 17.136719 19.105469 C 17.136719 19.160156 17.136719 19.214844 17.136719 19.269531 C 17.222656 19.285156 17.222656 19.285156 17.3125 19.296875 C 17.574219 19.359375 17.808594 19.449219 18.054688 19.550781 C 18.140625 19.585938 18.226562 19.621094 18.316406 19.660156 C 18.53125 19.761719 18.53125 19.761719 18.695312 19.925781 C 18.613281 19.953125 18.535156 19.980469 18.449219 20.007812 C 18.410156 19.886719 18.410156 19.886719 18.367188 19.761719 C 18.058594 19.863281 17.96875 19.980469 17.792969 20.253906 C 17.820312 20.46875 17.820312 20.46875 17.875 20.664062 C 16.300781 20.25 16.300781 20.25 15.90625 19.597656 C 15.6875 19.21875 15.734375 18.863281 15.824219 18.449219 C 16.011719 18.019531 16.011719 18.019531 16.152344 17.875 Z M 16.152344 17.875 "/>
<path style=" stroke:none;fill-rule:nonzero;fill:rgb(12.54902%,22.745098%,35.294119%);fill-opacity:1;" d="M 26.871094 18.960938 C 26.992188 19.0625 27.109375 19.164062 27.222656 19.269531 C 27.195312 19.324219 27.167969 19.378906 27.140625 19.433594 C 27.003906 19.433594 26.867188 19.433594 26.730469 19.433594 C 26.652344 19.488281 26.570312 19.542969 26.484375 19.597656 C 26.433594 19.597656 26.378906 19.597656 26.320312 19.597656 C 26.296875 19.652344 26.269531 19.707031 26.238281 19.761719 C 26.160156 19.707031 26.078125 19.652344 25.992188 19.597656 C 25.832031 19.59375 25.832031 19.59375 25.664062 19.625 C 25.609375 19.632812 25.554688 19.640625 25.496094 19.648438 C 25.320312 19.679688 25.320312 19.679688 25.09375 19.761719 C 25.066406 19.84375 25.039062 19.925781 25.011719 20.007812 C 24.640625 19.964844 24.40625 19.8125 24.109375 19.597656 C 24.808594 18.746094 25.828125 18.199219 26.871094 18.960938 Z M 26.871094 18.960938 "/>
<path style=" stroke:none;fill-rule:nonzero;fill:rgb(8.235294%,20%,33.333334%);fill-opacity:1;" d="M 19.679688 20.007812 C 19.707031 20.007812 19.734375 20.007812 19.761719 20.007812 C 19.789062 20.199219 19.816406 20.386719 19.84375 20.582031 C 19.925781 20.554688 20.007812 20.527344 20.089844 20.5 C 20.292969 20.800781 20.300781 21.050781 20.253906 21.402344 C 20.132812 21.605469 20.132812 21.605469 20.007812 21.730469 C 20.210938 21.8125 20.210938 21.8125 20.417969 21.894531 C 20.445312 21.839844 20.472656 21.785156 20.5 21.730469 C 20.582031 21.757812 20.664062 21.785156 20.746094 21.8125 C 20.730469 21.722656 20.714844 21.636719 20.699219 21.546875 C 20.667969 21.285156 20.660156 21.148438 20.746094 20.910156 C 20.84375 21.101562 20.921875 21.277344 20.992188 21.484375 C 21.429688 21.707031 21.835938 21.632812 22.304688 21.566406 C 22.265625 21.601562 22.226562 21.636719 22.183594 21.671875 C 22.007812 21.867188 22.003906 22.046875 21.976562 22.304688 C 21.839844 22.332031 21.707031 22.359375 21.566406 22.386719 C 21.59375 22.441406 21.621094 22.496094 21.648438 22.550781 C 21.804688 22.589844 21.804688 22.589844 21.980469 22.601562 C 22.085938 22.613281 22.195312 22.621094 22.304688 22.632812 C 22.304688 22.660156 22.304688 22.6875 22.304688 22.714844 C 20.898438 22.78125 20.898438 22.78125 20.417969 22.386719 C 19.980469 21.96875 19.695312 21.613281 19.664062 20.992188 C 19.664062 20.875 19.667969 20.757812 19.667969 20.636719 C 19.671875 20.578125 19.671875 20.515625 19.671875 20.453125 C 19.675781 20.304688 19.675781 20.15625 19.679688 20.007812 Z M 19.679688 20.007812 "/>
<path style=" stroke:none;fill-rule:nonzero;fill:rgb(10.588235%,21.960784%,35.686275%);fill-opacity:1;" d="M 16.152344 21.074219 C 16.316406 21.152344 16.472656 21.230469 16.625 21.324219 C 17.09375 21.597656 17.507812 21.601562 18.039062 21.566406 C 18.011719 21.621094 17.984375 21.675781 17.957031 21.730469 C 17.875 21.757812 17.796875 21.785156 17.710938 21.8125 C 17.644531 22.082031 17.621094 22.199219 17.710938 22.46875 C 17.304688 22.507812 17.304688 22.507812 16.890625 22.550781 C 17.460938 22.589844 17.460938 22.589844 18.039062 22.632812 C 18.039062 22.660156 18.039062 22.6875 18.039062 22.714844 C 17.257812 22.761719 16.660156 22.753906 15.988281 22.304688 C 15.90625 22.25 15.820312 22.191406 15.734375 22.136719 C 15.578125 21.976562 15.578125 21.976562 15.578125 21.648438 C 15.632812 21.648438 15.6875 21.648438 15.742188 21.648438 C 15.742188 21.59375 15.742188 21.539062 15.742188 21.484375 C 15.796875 21.484375 15.851562 21.484375 15.90625 21.484375 C 15.933594 21.429688 15.957031 21.378906 15.984375 21.324219 C 16.070312 21.15625 16.070312 21.15625 16.152344 21.074219 Z M 16.152344 21.074219 "/>
<path style=" stroke:none;fill-rule:nonzero;fill:rgb(2.745098%,15.294118%,29.803923%);fill-opacity:1;" d="M 20.417969 19.269531 C 20.472656 19.296875 20.527344 19.324219 20.582031 19.351562 C 20.582031 19.40625 20.582031 19.460938 20.582031 19.515625 C 20.636719 19.542969 20.691406 19.570312 20.746094 19.597656 C 20.691406 19.652344 20.636719 19.707031 20.582031 19.761719 C 20.625 19.800781 20.664062 19.835938 20.707031 19.875 C 20.894531 20.207031 20.832031 20.511719 20.800781 20.878906 C 20.796875 20.949219 20.792969 21.023438 20.789062 21.097656 C 20.777344 21.226562 20.769531 21.359375 20.757812 21.492188 C 20.742188 21.648438 20.742188 21.648438 20.746094 21.8125 C 20.515625 21.863281 20.515625 21.863281 20.253906 21.894531 C 20.171875 21.839844 20.089844 21.785156 20.007812 21.730469 C 20.035156 21.675781 20.058594 21.617188 20.085938 21.5625 C 20.183594 21.289062 20.21875 21.03125 20.253906 20.746094 C 20.082031 20.65625 20.082031 20.65625 19.84375 20.582031 C 19.859375 20.632812 19.878906 20.683594 19.894531 20.734375 C 19.90625 20.792969 19.914062 20.851562 19.925781 20.910156 C 19.871094 20.964844 19.816406 21.019531 19.761719 21.074219 C 19.753906 20.902344 19.75 20.730469 19.746094 20.5625 C 19.742188 20.464844 19.742188 20.371094 19.738281 20.273438 C 19.765625 19.988281 19.808594 19.882812 20.007812 19.679688 C 20.117188 19.625 20.226562 19.570312 20.335938 19.515625 C 20.363281 19.433594 20.390625 19.355469 20.417969 19.269531 Z M 20.417969 19.269531 "/>
<path style=" stroke:none;fill-rule:nonzero;fill:rgb(24.705882%,31.37255%,38.431373%);fill-opacity:1;" d="M 28.042969 17.382812 C 28.421875 17.382812 28.800781 17.382812 29.191406 17.382812 C 29.191406 19.144531 29.191406 20.902344 29.191406 22.714844 C 28.839844 22.714844 28.488281 22.714844 28.125 22.714844 C 28.125 22.171875 28.125 21.632812 28.125 21.074219 C 28.152344 21.074219 28.179688 21.074219 28.207031 21.074219 C 28.207031 21.535156 28.207031 21.992188 28.207031 22.46875 C 28.574219 22.425781 28.574219 22.425781 28.945312 22.386719 C 28.945312 20.84375 28.945312 19.300781 28.945312 17.710938 C 28.757812 17.683594 28.566406 17.65625 28.371094 17.628906 C 28.34375 17.875 28.316406 18.117188 28.289062 18.367188 C 28.234375 18.367188 28.183594 18.367188 28.125 18.367188 C 28.097656 18.042969 28.070312 17.71875 28.042969 17.382812 Z M 28.042969 17.382812 "/>
<path style=" stroke:none;fill-rule:nonzero;fill:rgb(3.529412%,10.980392%,20%);fill-opacity:1;" d="M 29.929688 17.464844 C 30.253906 17.464844 30.578125 17.464844 30.914062 17.464844 C 30.914062 19.199219 30.914062 20.929688 30.914062 22.714844 C 30.617188 22.6875 30.320312 22.660156 30.011719 22.632812 C 30.011719 22.578125 30.011719 22.523438 30.011719 22.46875 C 30.226562 22.441406 30.445312 22.414062 30.667969 22.386719 C 30.695312 20.816406 30.722656 19.246094 30.75 17.628906 C 30.535156 17.628906 30.316406 17.628906 30.09375 17.628906 C 30.066406 18.984375 30.039062 20.335938 30.011719 21.730469 C 29.984375 21.730469 29.957031 21.730469 29.929688 21.730469 C 29.929688 20.324219 29.929688 18.914062 29.929688 17.464844 Z M 29.929688 17.464844 "/>
<path style=" stroke:none;fill-rule:nonzero;fill:rgb(2.745098%,14.901961%,29.803923%);fill-opacity:1;" d="M 22.878906 20.992188 C 23.042969 21.15625 23.042969 21.15625 23.042969 21.402344 C 23.097656 21.402344 23.148438 21.402344 23.207031 21.402344 C 23.234375 21.320312 23.261719 21.238281 23.289062 21.15625 C 23.371094 21.183594 23.449219 21.210938 23.535156 21.238281 C 23.507812 21.292969 23.480469 21.347656 23.453125 21.402344 C 23.429688 21.5 23.40625 21.59375 23.378906 21.695312 C 23.351562 21.789062 23.320312 21.878906 23.289062 21.976562 C 23.207031 22.003906 23.125 22.03125 23.042969 22.058594 C 23.003906 22.140625 22.964844 22.21875 22.925781 22.304688 C 22.796875 22.550781 22.796875 22.550781 22.652344 22.605469 C 22.445312 22.636719 22.246094 22.640625 22.039062 22.636719 C 21.964844 22.636719 21.890625 22.636719 21.816406 22.636719 C 21.761719 22.632812 21.703125 22.632812 21.648438 22.632812 C 21.621094 22.550781 21.59375 22.46875 21.566406 22.386719 C 21.703125 22.359375 21.835938 22.332031 21.976562 22.304688 C 21.976562 22.113281 21.976562 21.925781 21.976562 21.730469 C 22.191406 21.609375 22.296875 21.566406 22.550781 21.566406 C 22.550781 21.511719 22.550781 21.457031 22.550781 21.402344 C 22.628906 21.316406 22.710938 21.234375 22.796875 21.15625 C 22.824219 21.101562 22.851562 21.046875 22.878906 20.992188 Z M 22.878906 20.992188 "/>
<path style=" stroke:none;fill-rule:nonzero;fill:rgb(27.450982%,36.078432%,47.058824%);fill-opacity:1;" d="M 33.375 18.613281 C 33.683594 18.890625 33.933594 19.222656 34.113281 19.597656 C 34.085938 19.652344 34.058594 19.707031 34.03125 19.761719 C 33.949219 19.761719 33.867188 19.761719 33.785156 19.761719 C 33.785156 19.84375 33.785156 19.925781 33.785156 20.007812 C 33.730469 20.007812 33.675781 20.007812 33.621094 20.007812 C 33.59375 19.898438 33.566406 19.792969 33.539062 19.679688 C 33.484375 19.679688 33.429688 19.679688 33.375 19.679688 C 33.375 19.761719 33.375 19.84375 33.375 19.925781 C 33.320312 19.953125 33.265625 19.980469 33.210938 20.007812 C 33.183594 20.0625 33.15625 20.117188 33.128906 20.171875 C 33.101562 20.0625 33.074219 19.957031 33.046875 19.84375 C 32.992188 19.84375 32.9375 19.84375 32.882812 19.84375 C 32.882812 19.761719 32.882812 19.679688 32.882812 19.597656 C 32.828125 19.597656 32.773438 19.597656 32.71875 19.597656 C 32.71875 20.625 32.71875 21.65625 32.71875 22.714844 C 32.367188 22.714844 32.015625 22.714844 31.652344 22.714844 C 31.652344 22.6875 31.652344 22.660156 31.652344 22.632812 C 31.976562 22.632812 32.300781 22.632812 32.636719 22.632812 C 32.636719 21.523438 32.636719 20.414062 32.636719 19.269531 C 32.769531 19.242188 32.90625 19.214844 33.046875 19.1875 C 33.03125 19.136719 33.015625 19.085938 33 19.035156 C 32.964844 18.859375 32.964844 18.859375 33.046875 18.695312 C 33.152344 18.722656 33.261719 18.75 33.375 18.777344 C 33.375 18.722656 33.375 18.667969 33.375 18.613281 Z M 33.375 18.613281 "/>
<path style=" stroke:none;fill-rule:nonzero;fill:rgb(18.431373%,25.882354%,35.294119%);fill-opacity:1;" d="M 4.675781 16.398438 C 4.804688 16.660156 4.765625 16.9375 4.765625 17.222656 C 4.765625 17.289062 4.765625 17.359375 4.765625 17.429688 C 4.765625 17.652344 4.765625 17.878906 4.765625 18.105469 C 4.765625 18.261719 4.765625 18.417969 4.761719 18.574219 C 4.761719 18.984375 4.761719 19.394531 4.761719 19.804688 C 4.761719 20.226562 4.761719 20.644531 4.761719 21.0625 C 4.757812 21.886719 4.757812 22.710938 4.757812 23.535156 C 4.675781 23.535156 4.59375 23.535156 4.511719 23.535156 C 4.511719 21.207031 4.511719 18.878906 4.511719 16.480469 C 4.5625 16.453125 4.617188 16.429688 4.675781 16.398438 Z M 4.675781 16.398438 "/>
<path style=" stroke:none;fill-rule:nonzero;fill:rgb(4.313726%,16.470589%,30.19608%);fill-opacity:1;" d="M 24.738281 20.53125 C 24.800781 20.546875 24.863281 20.566406 24.929688 20.582031 C 24.941406 20.660156 24.953125 20.738281 24.964844 20.816406 C 24.996094 21.066406 24.996094 21.066406 25.09375 21.238281 C 25.035156 21.675781 25.035156 21.675781 24.929688 21.894531 C 24.738281 22.027344 24.578125 22.074219 24.355469 22.140625 C 24.195312 22.007812 24.113281 21.933594 24.078125 21.726562 C 24.085938 21.34375 24.109375 21.015625 24.273438 20.664062 C 24.519531 20.5 24.519531 20.5 24.738281 20.53125 Z M 24.738281 20.53125 "/>
<path style=" stroke:none;fill-rule:nonzero;fill:rgb(5.882353%,17.647059%,32.156864%);fill-opacity:1;" d="M 17.628906 19.433594 C 17.761719 19.46875 17.894531 19.503906 18.023438 19.542969 C 18.097656 19.5625 18.171875 19.582031 18.246094 19.601562 C 18.453125 19.683594 18.554688 19.757812 18.695312 19.925781 C 18.613281 19.953125 18.535156 19.980469 18.449219 20.007812 C 18.421875 19.925781 18.394531 19.84375 18.367188 19.761719 C 18.058594 19.863281 17.96875 19.980469 17.792969 20.253906 C 17.820312 20.46875 17.820312 20.46875 17.875 20.664062 C 17.253906 20.5 16.539062 20.3125 16.070312 19.84375 C 16.070312 19.761719 16.070312 19.679688 16.070312 19.597656 C 16.125 19.597656 16.179688 19.597656 16.234375 19.597656 C 16.308594 19.675781 16.308594 19.675781 16.382812 19.757812 C 16.585938 19.945312 16.703125 19.976562 16.972656 20.007812 C 17.007812 19.953125 17.039062 19.898438 17.070312 19.84375 C 17.21875 19.679688 17.21875 19.679688 17.441406 19.660156 C 17.503906 19.667969 17.566406 19.671875 17.628906 19.679688 C 17.628906 19.597656 17.628906 19.519531 17.628906 19.433594 Z M 17.628906 19.433594 "/>
<path style=" stroke:none;fill-rule:nonzero;fill:rgb(18.039216%,27.843139%,38.431373%);fill-opacity:1;" d="M 24.109375 20.910156 C 24.164062 20.992188 24.214844 21.074219 24.273438 21.15625 C 24.21875 21.15625 24.164062 21.15625 24.109375 21.15625 C 24.109375 21.398438 24.109375 21.644531 24.109375 21.894531 C 24.523438 21.972656 24.523438 21.972656 24.929688 21.894531 C 24.953125 21.675781 24.980469 21.460938 25.011719 21.238281 C 25.035156 21.238281 25.0625 21.238281 25.09375 21.238281 C 25.144531 21.398438 25.199219 21.5625 25.257812 21.730469 C 25.5 21.757812 25.742188 21.785156 25.992188 21.8125 C 25.992188 21.757812 25.992188 21.703125 25.992188 21.648438 C 26.074219 21.621094 26.15625 21.59375 26.238281 21.566406 C 26.238281 21.621094 26.238281 21.675781 26.238281 21.730469 C 26.1875 21.730469 26.132812 21.730469 26.074219 21.730469 C 26.074219 21.785156 26.074219 21.839844 26.074219 21.894531 C 25.777344 21.894531 25.480469 21.894531 25.175781 21.894531 C 25.175781 21.949219 25.175781 22.003906 25.175781 22.058594 C 25.121094 22.058594 25.066406 22.058594 25.011719 22.058594 C 25.035156 22.21875 25.0625 22.382812 25.09375 22.550781 C 25.335938 22.578125 25.578125 22.605469 25.828125 22.632812 C 25.828125 22.660156 25.828125 22.6875 25.828125 22.714844 C 25.660156 22.71875 25.488281 22.722656 25.316406 22.722656 C 25.222656 22.726562 25.128906 22.726562 25.027344 22.730469 C 24.777344 22.714844 24.644531 22.683594 24.4375 22.550781 C 24.4375 22.496094 24.4375 22.441406 24.4375 22.386719 C 24.382812 22.386719 24.328125 22.386719 24.273438 22.386719 C 23.96875 22.050781 24.003906 21.699219 24.007812 21.273438 C 24.027344 21.074219 24.027344 21.074219 24.109375 20.910156 Z M 24.109375 20.910156 "/>
<path style=" stroke:none;fill-rule:nonzero;fill:rgb(2.352941%,13.725491%,27.843139%);fill-opacity:1;" d="M 18.039062 21.566406 C 18.09375 21.566406 18.148438 21.566406 18.203125 21.566406 C 18.203125 21.675781 18.203125 21.78125 18.203125 21.894531 C 18.253906 21.902344 18.304688 21.90625 18.359375 21.914062 C 18.53125 21.976562 18.53125 21.976562 18.632812 22.144531 C 18.65625 22.199219 18.675781 22.25 18.695312 22.304688 C 18.277344 22.582031 18.039062 22.65625 17.542969 22.652344 C 17.484375 22.652344 17.421875 22.652344 17.359375 22.65625 C 16.914062 22.652344 16.914062 22.652344 16.726562 22.46875 C 16.972656 22.472656 16.972656 22.472656 17.214844 22.476562 C 17.402344 22.476562 17.402344 22.476562 17.628906 22.386719 C 17.601562 22.304688 17.574219 22.222656 17.546875 22.140625 C 17.546875 22.058594 17.546875 21.976562 17.546875 21.894531 C 17.492188 21.839844 17.441406 21.785156 17.382812 21.730469 C 17.523438 21.710938 17.523438 21.710938 17.664062 21.695312 C 17.941406 21.679688 17.941406 21.679688 18.039062 21.566406 Z M 18.039062 21.566406 "/>
<path style=" stroke:none;fill-rule:nonzero;fill:rgb(1.568628%,12.156863%,24.705882%);fill-opacity:1;" d="M 26.238281 21.566406 C 26.265625 21.648438 26.292969 21.726562 26.320312 21.8125 C 26.269531 21.8125 26.214844 21.8125 26.15625 21.8125 C 26.183594 21.972656 26.210938 22.136719 26.238281 22.304688 C 26.105469 22.332031 25.96875 22.359375 25.828125 22.386719 C 25.828125 22.46875 25.828125 22.546875 25.828125 22.632812 C 25.503906 22.632812 25.179688 22.632812 24.847656 22.632812 C 24.898438 22.578125 24.953125 22.523438 25.011719 22.46875 C 24.984375 22.414062 24.957031 22.359375 24.929688 22.304688 C 24.953125 22.222656 24.980469 22.140625 25.011719 22.058594 C 25.0625 22.058594 25.117188 22.058594 25.175781 22.058594 C 25.175781 22.003906 25.175781 21.949219 25.175781 21.894531 C 25.472656 21.894531 25.769531 21.894531 26.074219 21.894531 C 26.074219 21.839844 26.074219 21.785156 26.074219 21.730469 C 26.128906 21.730469 26.183594 21.730469 26.238281 21.730469 C 26.238281 21.675781 26.238281 21.621094 26.238281 21.566406 Z M 26.238281 21.566406 "/>
<path style=" stroke:none;fill-rule:nonzero;fill:rgb(23.921569%,30.588236%,40.784314%);fill-opacity:1;" d="M 25.585938 18.777344 C 25.585938 18.832031 25.585938 18.886719 25.585938 18.941406 C 25.476562 18.941406 25.367188 18.941406 25.257812 18.941406 C 25.257812 18.996094 25.257812 19.050781 25.257812 19.105469 C 25.121094 19.105469 24.984375 19.105469 24.847656 19.105469 C 24.746094 19.296875 24.667969 19.476562 24.601562 19.679688 C 24.679688 19.652344 24.761719 19.625 24.847656 19.597656 C 24.972656 19.582031 25.101562 19.566406 25.230469 19.550781 C 25.328125 19.542969 25.328125 19.542969 25.429688 19.53125 C 25.480469 19.527344 25.53125 19.519531 25.585938 19.515625 C 25.277344 19.761719 25.277344 19.761719 25.09375 19.761719 C 25.066406 19.84375 25.039062 19.925781 25.011719 20.007812 C 24.640625 19.964844 24.40625 19.8125 24.109375 19.597656 C 24.949219 18.574219 24.949219 18.574219 25.585938 18.777344 Z M 25.585938 18.777344 "/>
<path style=" stroke:none;fill-rule:nonzero;fill:rgb(27.450982%,33.725491%,42.745098%);fill-opacity:1;" d="M 22.714844 18.859375 C 22.660156 18.914062 22.605469 18.96875 22.550781 19.023438 C 22.550781 18.96875 22.550781 18.914062 22.550781 18.859375 C 22.449219 18.863281 22.347656 18.863281 22.242188 18.863281 C 22.003906 18.867188 21.792969 18.855469 21.566406 18.777344 C 21.566406 18.832031 21.566406 18.886719 21.566406 18.941406 C 21.375 18.941406 21.1875 18.941406 20.992188 18.941406 C 20.964844 19.023438 20.9375 19.105469 20.910156 19.1875 C 20.746094 19.214844 20.585938 19.242188 20.417969 19.269531 C 20.410156 19.320312 20.40625 19.371094 20.398438 19.421875 C 20.335938 19.597656 20.335938 19.597656 20.183594 19.683594 C 20.125 19.710938 20.066406 19.734375 20.007812 19.761719 C 19.867188 19.886719 19.867188 19.886719 19.761719 20.007812 C 19.886719 19.433594 20.273438 19.09375 20.746094 18.777344 C 21.472656 18.558594 22.007812 18.589844 22.714844 18.859375 Z M 22.714844 18.859375 "/>
<path style=" stroke:none;fill-rule:nonzero;fill:rgb(1.176471%,13.725491%,28.627452%);fill-opacity:1;" d="M 25.910156 18.695312 C 25.964844 18.890625 25.964844 18.890625 25.992188 19.105469 C 25.941406 19.160156 25.886719 19.214844 25.828125 19.269531 C 25.828125 19.324219 25.828125 19.378906 25.828125 19.433594 C 25.765625 19.449219 25.703125 19.46875 25.636719 19.484375 C 25.554688 19.507812 25.472656 19.527344 25.390625 19.550781 C 25.308594 19.574219 25.226562 19.59375 25.140625 19.617188 C 24.933594 19.671875 24.933594 19.671875 24.765625 19.761719 C 24.710938 19.734375 24.65625 19.707031 24.601562 19.679688 C 24.648438 19.4375 24.703125 19.320312 24.847656 19.105469 C 25.0625 19.089844 25.0625 19.089844 25.257812 19.105469 C 25.265625 19.054688 25.273438 19 25.28125 18.945312 C 25.300781 18.890625 25.320312 18.835938 25.339844 18.777344 C 25.585938 18.695312 25.585938 18.695312 25.910156 18.695312 Z M 25.910156 18.695312 "/>
<path style=" stroke:none;fill-rule:nonzero;fill:rgb(0.784314%,13.333334%,27.450982%);fill-opacity:1;" d="M 24.929688 20.417969 C 25.183594 20.40625 25.4375 20.398438 25.691406 20.390625 C 25.765625 20.390625 25.835938 20.386719 25.910156 20.382812 C 26.109375 20.378906 26.289062 20.378906 26.484375 20.417969 C 26.726562 20.679688 26.730469 20.796875 26.730469 21.15625 C 26.652344 21.183594 26.570312 21.210938 26.484375 21.238281 C 26.484375 21.128906 26.484375 21.023438 26.484375 20.910156 C 26.054688 20.882812 25.621094 20.855469 25.175781 20.828125 C 25.148438 20.746094 25.121094 20.664062 25.09375 20.582031 C 25.039062 20.527344 24.984375 20.472656 24.929688 20.417969 Z M 24.929688 20.417969 "/>
<path style=" stroke:none;fill-rule:nonzero;fill:rgb(14.901961%,24.313726%,36.078432%);fill-opacity:1;" d="M 26.320312 19.761719 C 26.402344 19.761719 26.484375 19.761719 26.566406 19.761719 C 26.59375 19.84375 26.621094 19.925781 26.648438 20.007812 C 26.597656 20.007812 26.542969 20.007812 26.484375 20.007812 C 26.484375 20.144531 26.484375 20.277344 26.484375 20.417969 C 25.835938 20.457031 25.835938 20.457031 25.175781 20.5 C 25.175781 20.582031 25.175781 20.664062 25.175781 20.746094 C 25.25 20.75 25.320312 20.757812 25.398438 20.761719 C 25.496094 20.769531 25.59375 20.773438 25.691406 20.78125 C 25.789062 20.789062 25.882812 20.796875 25.984375 20.800781 C 26.238281 20.828125 26.238281 20.828125 26.484375 20.910156 C 26.484375 21.019531 26.484375 21.125 26.484375 21.238281 C 26.539062 21.265625 26.59375 21.292969 26.648438 21.320312 C 26.542969 21.347656 26.433594 21.375 26.320312 21.402344 C 26.347656 21.265625 26.375 21.132812 26.402344 20.992188 C 26.25 21.003906 26.09375 21.015625 25.9375 21.027344 C 25.851562 21.035156 25.765625 21.042969 25.675781 21.046875 C 25.449219 21.070312 25.230469 21.105469 25.011719 21.15625 C 25 21.105469 24.988281 21.050781 24.980469 20.996094 C 24.960938 20.941406 24.945312 20.886719 24.929688 20.828125 C 24.875 20.800781 24.820312 20.773438 24.765625 20.746094 C 24.816406 20.746094 24.871094 20.746094 24.929688 20.746094 C 24.847656 20.636719 24.765625 20.53125 24.683594 20.417969 C 24.875 20.320312 24.988281 20.328125 25.203125 20.328125 C 25.308594 20.328125 25.308594 20.328125 25.414062 20.328125 C 25.488281 20.328125 25.558594 20.332031 25.636719 20.332031 C 25.707031 20.332031 25.78125 20.332031 25.859375 20.332031 C 26.039062 20.332031 26.222656 20.335938 26.402344 20.335938 C 26.375 20.148438 26.351562 19.957031 26.320312 19.761719 Z M 26.320312 19.761719 "/>
<path style=" stroke:none;fill-rule:nonzero;fill:rgb(19.607843%,29.411766%,41.176471%);fill-opacity:1;" d="M 19.679688 20.007812 C 19.707031 20.007812 19.734375 20.007812 19.761719 20.007812 C 19.789062 20.199219 19.816406 20.386719 19.84375 20.582031 C 19.925781 20.554688 20.007812 20.527344 20.089844 20.5 C 20.292969 20.800781 20.300781 21.050781 20.253906 21.402344 C 20.132812 21.605469 20.132812 21.605469 20.007812 21.730469 C 20.105469 21.753906 20.105469 21.753906 20.203125 21.78125 C 20.417969 21.894531 20.417969 21.894531 20.527344 22.148438 C 20.554688 22.265625 20.554688 22.265625 20.582031 22.386719 C 20.183594 22.238281 19.941406 21.917969 19.75 21.550781 C 19.65625 21.246094 19.664062 20.953125 19.667969 20.636719 C 19.671875 20.578125 19.671875 20.515625 19.671875 20.453125 C 19.675781 20.304688 19.675781 20.15625 19.679688 20.007812 Z M 19.679688 20.007812 "/>
<path style=" stroke:none;fill-rule:nonzero;fill:rgb(10.588235%,13.725491%,21.568628%);fill-opacity:1;" d="M 7.707031 20.828125 C 7.761719 20.839844 7.816406 20.851562 7.871094 20.859375 C 8.019531 20.890625 8.164062 20.921875 8.3125 20.949219 C 8.480469 20.980469 8.644531 21.015625 8.808594 21.054688 C 9.039062 21.097656 9.039062 21.097656 9.265625 20.910156 C 9.265625 21.019531 9.265625 21.125 9.265625 21.238281 C 8.996094 21.265625 8.726562 21.292969 8.445312 21.320312 C 8.445312 21.402344 8.445312 21.480469 8.445312 21.566406 C 8.8125 21.648438 8.8125 21.648438 9.183594 21.730469 C 9.183594 21.757812 9.183594 21.785156 9.183594 21.8125 C 8.75 21.847656 8.503906 21.738281 8.128906 21.523438 C 8.078125 21.496094 8.03125 21.46875 7.980469 21.441406 C 7.863281 21.375 7.742188 21.304688 7.625 21.238281 C 7.652344 21.101562 7.679688 20.96875 7.707031 20.828125 Z M 7.707031 20.828125 "/>
<path style=" stroke:none;fill-rule:nonzero;fill:rgb(74.117649%,48.627451%,21.960784%);fill-opacity:1;" d="M 10.265625 17.035156 C 10.414062 17.039062 10.566406 17.039062 10.714844 17.039062 C 11.078125 17.042969 11.445312 17.050781 11.808594 17.054688 C 11.816406 17.171875 11.820312 17.292969 11.824219 17.410156 C 11.828125 17.507812 11.828125 17.507812 11.832031 17.609375 C 11.804688 17.832031 11.734375 17.898438 11.5625 18.039062 C 11.5625 17.878906 11.5625 17.714844 11.5625 17.546875 C 11.589844 17.546875 11.617188 17.546875 11.644531 17.546875 C 11.671875 17.414062 11.699219 17.277344 11.726562 17.136719 C 10.804688 17.136719 9.886719 17.136719 8.9375 17.136719 C 8.9375 17.191406 8.9375 17.246094 8.9375 17.300781 C 8.722656 17.300781 8.503906 17.300781 8.28125 17.300781 C 8.28125 17.355469 8.28125 17.410156 8.28125 17.464844 C 8.121094 17.464844 7.957031 17.464844 7.789062 17.464844 C 7.789062 17.519531 7.789062 17.574219 7.789062 17.628906 C 7.628906 17.683594 7.464844 17.738281 7.296875 17.792969 C 8.03125 16.882812 9.210938 17.015625 10.265625 17.035156 Z M 10.265625 17.035156 "/>
<path style=" stroke:none;fill-rule:nonzero;fill:rgb(9.411765%,13.725491%,22.745098%);fill-opacity:1;" d="M 9.839844 19.84375 C 9.949219 19.871094 10.054688 19.898438 10.167969 19.925781 C 10.195312 20.0625 10.222656 20.195312 10.25 20.335938 C 10.304688 20.335938 10.359375 20.335938 10.414062 20.335938 C 10.414062 20.253906 10.414062 20.171875 10.414062 20.089844 C 10.496094 20.089844 10.578125 20.089844 10.660156 20.089844 C 10.539062 20.375 10.378906 20.554688 10.15625 20.765625 C 10.097656 20.824219 10.039062 20.882812 9.976562 20.941406 C 9.933594 20.984375 9.886719 21.027344 9.839844 21.074219 C 9.746094 20.765625 9.746094 20.765625 9.839844 20.582031 C 9.730469 20.691406 9.625 20.796875 9.511719 20.910156 C 9.429688 20.882812 9.351562 20.855469 9.265625 20.828125 C 9.507812 20.53125 9.753906 20.234375 10.003906 19.925781 C 9.949219 19.898438 9.894531 19.871094 9.839844 19.84375 Z M 9.839844 19.84375 "/>
<path style=" stroke:none;fill-rule:nonzero;fill:rgb(0.784314%,14.117648%,30.588236%);fill-opacity:1;" d="M 22.386719 19.105469 C 22.601562 19.132812 22.820312 19.160156 23.042969 19.1875 C 23.09375 19.382812 23.09375 19.382812 23.125 19.597656 C 23.070312 19.652344 23.015625 19.707031 22.960938 19.761719 C 22.960938 19.84375 22.960938 19.925781 22.960938 20.007812 C 22.851562 20.007812 22.742188 20.007812 22.632812 20.007812 C 22.632812 19.953125 22.632812 19.898438 22.632812 19.84375 C 22.550781 19.84375 22.46875 19.84375 22.386719 19.84375 C 22.386719 19.761719 22.386719 19.679688 22.386719 19.597656 C 22.332031 19.570312 22.277344 19.542969 22.222656 19.515625 C 22.222656 19.433594 22.222656 19.355469 22.222656 19.269531 C 22.277344 19.269531 22.332031 19.269531 22.386719 19.269531 C 22.386719 19.214844 22.386719 19.160156 22.386719 19.105469 Z M 22.386719 19.105469 "/>
<path style=" stroke:none;fill-rule:nonzero;fill:rgb(88.627452%,54.901963%,21.568628%);fill-opacity:1;" d="M 6.886719 18.203125 C 6.914062 18.257812 6.941406 18.3125 6.96875 18.367188 C 6.894531 18.535156 6.8125 18.699219 6.722656 18.859375 C 6.777344 18.886719 6.832031 18.914062 6.886719 18.941406 C 6.816406 19.566406 6.816406 19.566406 6.722656 19.84375 C 6.710938 20.0625 6.703125 20.277344 6.699219 20.496094 C 6.695312 20.558594 6.695312 20.621094 6.691406 20.6875 C 6.6875 20.890625 6.683594 21.09375 6.679688 21.292969 C 6.675781 21.429688 6.671875 21.570312 6.667969 21.707031 C 6.660156 22.042969 6.648438 22.378906 6.640625 22.714844 C 6.613281 22.714844 6.585938 22.714844 6.558594 22.714844 C 6.554688 22.1875 6.550781 21.664062 6.546875 21.136719 C 6.546875 20.960938 6.542969 20.78125 6.542969 20.601562 C 6.539062 20.347656 6.535156 20.089844 6.535156 19.832031 C 6.535156 19.753906 6.535156 19.671875 6.53125 19.589844 C 6.53125 19.097656 6.601562 18.734375 6.804688 18.285156 C 6.832031 18.257812 6.859375 18.230469 6.886719 18.203125 Z M 6.886719 18.203125 "/>
<path style=" stroke:none;fill-rule:nonzero;fill:rgb(7.843138%,12.156863%,12.156863%);fill-opacity:1;" d="M 6.804688 17.875 C 6.914062 17.902344 7.023438 17.929688 7.132812 17.957031 C 7.105469 18 7.078125 18.039062 7.050781 18.082031 C 6.996094 18.164062 6.996094 18.164062 6.9375 18.25 C 6.902344 18.304688 6.867188 18.359375 6.828125 18.414062 C 6.554688 18.933594 6.535156 19.4375 6.527344 20.015625 C 6.523438 20.09375 6.523438 20.171875 6.519531 20.25 C 6.515625 20.496094 6.511719 20.742188 6.507812 20.988281 C 6.503906 21.152344 6.503906 21.320312 6.5 21.488281 C 6.492188 21.898438 6.484375 22.304688 6.476562 22.714844 C 6.449219 22.714844 6.425781 22.714844 6.394531 22.714844 C 6.390625 22.214844 6.386719 21.714844 6.382812 21.21875 C 6.382812 21.046875 6.378906 20.878906 6.378906 20.710938 C 6.375 20.464844 6.375 20.21875 6.371094 19.976562 C 6.371094 19.902344 6.371094 19.824219 6.367188 19.75 C 6.367188 19.078125 6.539062 18.488281 6.804688 17.875 Z M 6.804688 17.875 "/>
<path style=" stroke:none;fill-rule:nonzero;fill:rgb(2.352941%,11.764706%,24.705882%);fill-opacity:1;" d="M 27.304688 19.84375 C 27.332031 19.84375 27.359375 19.84375 27.386719 19.84375 C 27.386719 20.738281 27.386719 21.628906 27.386719 22.550781 C 27.089844 22.550781 26.792969 22.550781 26.484375 22.550781 C 26.484375 22.414062 26.484375 22.28125 26.484375 22.140625 C 26.59375 22.113281 26.703125 22.085938 26.8125 22.058594 C 26.839844 22.140625 26.867188 22.21875 26.894531 22.304688 C 27.03125 22.304688 27.167969 22.304688 27.304688 22.304688 C 27.304688 21.492188 27.304688 20.679688 27.304688 19.84375 Z M 27.304688 19.84375 "/>
<path style=" stroke:none;fill-rule:nonzero;fill:rgb(81.176472%,50.980395%,22.745098%);fill-opacity:1;" d="M 8.199219 18.695312 C 8.253906 18.722656 8.308594 18.75 8.363281 18.777344 C 8.335938 18.804688 8.308594 18.832031 8.28125 18.859375 C 8.304688 19.050781 8.332031 19.242188 8.363281 19.433594 C 8.453125 19.457031 8.546875 19.476562 8.640625 19.5 C 8.757812 19.527344 8.878906 19.558594 9 19.585938 C 9.058594 19.601562 9.121094 19.617188 9.179688 19.632812 C 9.472656 19.703125 9.742188 19.773438 10.003906 19.925781 C 9.890625 20.203125 9.757812 20.335938 9.511719 20.5 C 9.539062 20.3125 9.566406 20.121094 9.59375 19.925781 C 9.519531 19.910156 9.449219 19.890625 9.371094 19.875 C 9.277344 19.851562 9.179688 19.832031 9.082031 19.808594 C 8.9375 19.773438 8.9375 19.773438 8.792969 19.742188 C 8.707031 19.722656 8.617188 19.699219 8.527344 19.679688 C 8.464844 19.667969 8.398438 19.65625 8.335938 19.640625 C 8.289062 19.628906 8.246094 19.613281 8.199219 19.597656 C 8.066406 19.332031 8.109375 19.074219 8.117188 18.777344 C 8.144531 18.75 8.171875 18.722656 8.199219 18.695312 Z M 8.199219 18.695312 "/>
<path style=" stroke:none;fill-rule:nonzero;fill:rgb(1.176471%,13.333334%,27.058825%);fill-opacity:1;" d="M 26.648438 19.269531 C 26.839844 19.324219 27.027344 19.378906 27.222656 19.433594 C 27.25 19.542969 27.277344 19.652344 27.304688 19.761719 C 27.171875 19.761719 27.035156 19.761719 26.894531 19.761719 C 26.863281 19.902344 26.863281 19.902344 26.828125 20.042969 C 26.796875 20.140625 26.765625 20.238281 26.730469 20.335938 C 26.652344 20.363281 26.570312 20.390625 26.484375 20.417969 C 26.480469 20.167969 26.488281 20.003906 26.566406 19.761719 C 26.488281 19.761719 26.40625 19.761719 26.320312 19.761719 C 26.320312 19.707031 26.320312 19.652344 26.320312 19.597656 C 26.375 19.597656 26.429688 19.597656 26.484375 19.597656 C 26.511719 19.542969 26.539062 19.488281 26.566406 19.433594 C 26.59375 19.378906 26.621094 19.324219 26.648438 19.269531 Z M 26.648438 19.269531 "/>
<path style=" stroke:none;fill-rule:nonzero;fill:rgb(9.411765%,12.941177%,17.647059%);fill-opacity:1;" d="M 10.988281 19.351562 C 11.121094 19.359375 11.257812 19.371094 11.394531 19.382812 C 11.46875 19.386719 11.542969 19.394531 11.621094 19.398438 C 11.714844 19.417969 11.714844 19.417969 11.808594 19.433594 C 11.945312 19.707031 11.898438 20.007812 11.894531 20.304688 C 11.894531 20.371094 11.894531 20.4375 11.894531 20.503906 C 11.894531 20.667969 11.890625 20.828125 11.890625 20.992188 C 11.835938 20.992188 11.78125 20.992188 11.726562 20.992188 C 11.699219 20.558594 11.671875 20.125 11.644531 19.679688 C 11.195312 19.644531 11.195312 19.644531 10.988281 19.761719 C 10.988281 19.625 10.988281 19.492188 10.988281 19.351562 Z M 10.988281 19.351562 "/>
<path style=" stroke:none;fill-rule:nonzero;fill:rgb(12.941177%,13.333334%,15.686275%);fill-opacity:1;" d="M 9.09375 16.957031 C 9.171875 16.957031 9.25 16.957031 9.328125 16.957031 C 9.574219 16.960938 9.824219 16.960938 10.070312 16.964844 C 10.238281 16.964844 10.40625 16.964844 10.574219 16.964844 C 10.984375 16.96875 11.398438 16.96875 11.808594 16.972656 C 11.808594 17 11.808594 17.027344 11.808594 17.054688 C 11.714844 17.058594 11.621094 17.058594 11.527344 17.0625 C 11.179688 17.066406 10.832031 17.074219 10.480469 17.082031 C 10.332031 17.085938 10.183594 17.089844 10.03125 17.089844 C 9.816406 17.09375 9.597656 17.097656 9.382812 17.105469 C 9.316406 17.105469 9.25 17.105469 9.179688 17.105469 C 8.726562 17.117188 8.308594 17.1875 7.871094 17.300781 C 7.871094 17.246094 7.871094 17.195312 7.871094 17.136719 C 8.269531 16.929688 8.65625 16.953125 9.09375 16.957031 Z M 9.09375 16.957031 "/>
<path style=" stroke:none;fill-rule:nonzero;fill:rgb(1.176471%,13.725491%,28.235295%);fill-opacity:1;" d="M 18.039062 19.761719 C 18.148438 19.761719 18.257812 19.761719 18.367188 19.761719 C 18.417969 19.910156 18.417969 19.910156 18.449219 20.089844 C 18.367188 20.210938 18.367188 20.210938 18.285156 20.335938 C 18.230469 20.445312 18.175781 20.554688 18.121094 20.664062 C 18.09375 20.636719 18.066406 20.609375 18.039062 20.582031 C 17.957031 20.582031 17.878906 20.582031 17.792969 20.582031 C 17.742188 20.433594 17.742188 20.433594 17.710938 20.253906 C 17.765625 20.171875 17.820312 20.089844 17.875 20.007812 C 17.929688 20.007812 17.984375 20.007812 18.039062 20.007812 C 18.039062 19.925781 18.039062 19.84375 18.039062 19.761719 Z M 18.039062 19.761719 "/>
<path style=" stroke:none;fill-rule:nonzero;fill:rgb(28.627452%,34.509805%,42.352942%);fill-opacity:1;" d="M 18.941406 17.792969 C 19.050781 17.875 19.160156 17.957031 19.269531 18.039062 C 19.242188 18.148438 19.214844 18.257812 19.1875 18.367188 C 19.132812 18.367188 19.078125 18.367188 19.023438 18.367188 C 19.023438 18.421875 19.023438 18.476562 19.023438 18.53125 C 18.96875 18.53125 18.914062 18.53125 18.859375 18.53125 C 18.859375 18.585938 18.859375 18.640625 18.859375 18.695312 C 18.804688 18.695312 18.75 18.695312 18.695312 18.695312 C 18.695312 18.75 18.695312 18.804688 18.695312 18.859375 C 18.492188 18.777344 18.492188 18.777344 18.285156 18.695312 C 18.285156 18.640625 18.285156 18.585938 18.285156 18.53125 C 18.152344 18.503906 18.015625 18.476562 17.875 18.449219 C 18.03125 18.363281 18.03125 18.363281 18.203125 18.285156 C 18.257812 18.3125 18.3125 18.339844 18.367188 18.367188 C 18.367188 18.421875 18.367188 18.476562 18.367188 18.53125 C 18.652344 18.492188 18.652344 18.492188 18.941406 18.449219 C 18.941406 18.234375 18.941406 18.015625 18.941406 17.792969 Z M 18.941406 17.792969 "/>
<path style=" stroke:none;fill-rule:nonzero;fill:rgb(83.92157%,50.980395%,21.176471%);fill-opacity:1;" d="M 7.625 21.238281 C 7.882812 21.335938 8.117188 21.445312 8.359375 21.578125 C 8.648438 21.722656 8.855469 21.789062 9.183594 21.730469 C 9.378906 21.578125 9.378906 21.578125 9.511719 21.402344 C 9.539062 21.457031 9.566406 21.511719 9.59375 21.566406 C 9.539062 21.566406 9.484375 21.566406 9.429688 21.566406 C 9.40625 21.617188 9.386719 21.667969 9.363281 21.71875 C 9.265625 21.894531 9.265625 21.894531 9.019531 22.058594 C 8.910156 22.058594 8.804688 22.058594 8.691406 22.058594 C 8.691406 22.003906 8.691406 21.949219 8.691406 21.894531 C 8.609375 21.894531 8.53125 21.894531 8.445312 21.894531 C 8.445312 21.839844 8.445312 21.785156 8.445312 21.730469 C 8.148438 21.648438 7.847656 21.605469 7.542969 21.566406 C 7.570312 21.457031 7.597656 21.347656 7.625 21.238281 Z M 7.625 21.238281 "/>
<path style=" stroke:none;fill-rule:nonzero;fill:rgb(81.960785%,50.980395%,23.529412%);fill-opacity:1;" d="M 7.460938 20.664062 C 7.636719 20.683594 7.8125 20.703125 7.988281 20.722656 C 8.125 20.738281 8.265625 20.753906 8.402344 20.765625 C 8.464844 20.773438 8.527344 20.78125 8.59375 20.785156 C 8.652344 20.792969 8.710938 20.800781 8.769531 20.804688 C 8.941406 20.828125 9.101562 20.867188 9.265625 20.910156 C 9.175781 21.039062 9.175781 21.039062 9.019531 21.15625 C 8.769531 21.125 8.769531 21.125 8.488281 21.046875 C 8.101562 20.941406 8.101562 20.941406 7.707031 20.910156 C 7.679688 21.019531 7.652344 21.125 7.625 21.238281 C 7.570312 21.238281 7.519531 21.238281 7.460938 21.238281 C 7.460938 21.046875 7.460938 20.859375 7.460938 20.664062 Z M 7.460938 20.664062 "/>
<path style=" stroke:none;fill-rule:nonzero;fill:rgb(24.705882%,31.764707%,41.176471%);fill-opacity:1;" d="M 16.152344 17.875 C 16.25 18.167969 16.257812 18.390625 16.234375 18.695312 C 16.15625 18.75 16.074219 18.804688 15.988281 18.859375 C 15.960938 19.039062 15.960938 19.039062 15.976562 19.238281 C 15.976562 19.304688 15.980469 19.375 15.980469 19.441406 C 15.984375 19.492188 15.988281 19.546875 15.988281 19.597656 C 15.710938 19.179688 15.730469 18.9375 15.824219 18.449219 C 16.011719 18.019531 16.011719 18.019531 16.152344 17.875 Z M 16.152344 17.875 "/>
<path style=" stroke:none;fill-rule:nonzero;fill:rgb(9.019608%,16.862746%,25.098041%);fill-opacity:1;" d="M 28.042969 17.382812 C 28.394531 17.382812 28.746094 17.382812 29.109375 17.382812 C 29.109375 17.492188 29.109375 17.601562 29.109375 17.710938 C 28.867188 17.683594 28.621094 17.65625 28.371094 17.628906 C 28.34375 17.875 28.316406 18.117188 28.289062 18.367188 C 28.234375 18.367188 28.183594 18.367188 28.125 18.367188 C 28.097656 18.042969 28.070312 17.71875 28.042969 17.382812 Z M 28.042969 17.382812 "/>
<path style=" stroke:none;fill-rule:nonzero;fill:rgb(26.274511%,32.156864%,40.392157%);fill-opacity:1;" d="M 16.152344 21.074219 C 16.4375 21.199219 16.65625 21.367188 16.890625 21.566406 C 16.8125 21.59375 16.730469 21.621094 16.644531 21.648438 C 16.644531 21.59375 16.644531 21.539062 16.644531 21.484375 C 16.566406 21.484375 16.484375 21.484375 16.398438 21.484375 C 16.398438 21.429688 16.398438 21.375 16.398438 21.320312 C 16.144531 21.449219 16.144531 21.449219 15.90625 21.648438 C 15.867188 21.90625 15.867188 21.90625 15.90625 22.140625 C 15.800781 22.085938 15.691406 22.03125 15.578125 21.976562 C 15.578125 21.867188 15.578125 21.757812 15.578125 21.648438 C 15.632812 21.648438 15.6875 21.648438 15.742188 21.648438 C 15.742188 21.59375 15.742188 21.539062 15.742188 21.484375 C 15.796875 21.484375 15.851562 21.484375 15.90625 21.484375 C 15.933594 21.429688 15.957031 21.378906 15.984375 21.324219 C 16.070312 21.15625 16.070312 21.15625 16.152344 21.074219 Z M 16.152344 21.074219 "/>
<path style=" stroke:none;fill-rule:nonzero;fill:rgb(78.431374%,49.411765%,23.921569%);fill-opacity:1;" d="M 11.402344 19.582031 C 11.644531 19.597656 11.644531 19.597656 11.726562 19.679688 C 11.730469 19.902344 11.734375 20.121094 11.730469 20.339844 C 11.730469 20.402344 11.730469 20.464844 11.730469 20.53125 C 11.730469 20.683594 11.726562 20.835938 11.726562 20.992188 C 11.699219 20.992188 11.671875 20.992188 11.644531 20.992188 C 11.644531 20.585938 11.644531 20.179688 11.644531 19.761719 C 11.246094 19.890625 11.246094 19.890625 11.058594 20.101562 C 11.007812 20.152344 10.957031 20.203125 10.90625 20.253906 C 10.824219 20.253906 10.742188 20.253906 10.660156 20.253906 C 10.660156 20.199219 10.660156 20.144531 10.660156 20.089844 C 10.714844 20.089844 10.769531 20.089844 10.824219 20.089844 C 10.847656 20.039062 10.871094 19.988281 10.894531 19.9375 C 11.039062 19.667969 11.09375 19.601562 11.402344 19.582031 Z M 11.402344 19.582031 "/>
<path style=" stroke:none;fill-rule:nonzero;fill:rgb(25.098041%,34.117648%,44.313726%);fill-opacity:1;" d="M 25.011719 21.238281 C 25.035156 21.238281 25.0625 21.238281 25.09375 21.238281 C 25.144531 21.398438 25.199219 21.5625 25.257812 21.730469 C 25.5 21.757812 25.742188 21.785156 25.992188 21.8125 C 25.992188 21.757812 25.992188 21.703125 25.992188 21.648438 C 26.074219 21.621094 26.15625 21.59375 26.238281 21.566406 C 26.238281 21.621094 26.238281 21.675781 26.238281 21.730469 C 26.1875 21.730469 26.132812 21.730469 26.074219 21.730469 C 26.074219 21.785156 26.074219 21.839844 26.074219 21.894531 C 25.777344 21.894531 25.480469 21.894531 25.175781 21.894531 C 25.175781 21.949219 25.175781 22.003906 25.175781 22.058594 C 25.121094 22.058594 25.066406 22.058594 25.011719 22.058594 C 25.011719 22.113281 25.011719 22.167969 25.011719 22.222656 C 24.902344 22.167969 24.792969 22.113281 24.683594 22.058594 C 24.710938 22.003906 24.734375 21.949219 24.765625 21.894531 C 24.816406 21.894531 24.871094 21.894531 24.929688 21.894531 C 24.953125 21.675781 24.980469 21.460938 25.011719 21.238281 Z M 25.011719 21.238281 "/>
<path style=" stroke:none;fill-rule:nonzero;fill:rgb(14.509805%,22.745098%,32.549021%);fill-opacity:1;" d="M 20.828125 18.941406 C 20.800781 19.023438 20.773438 19.105469 20.746094 19.1875 C 20.578125 19.246094 20.578125 19.246094 20.417969 19.269531 C 20.410156 19.320312 20.40625 19.371094 20.398438 19.421875 C 20.335938 19.597656 20.335938 19.597656 20.183594 19.683594 C 20.125 19.710938 20.066406 19.734375 20.007812 19.761719 C 19.867188 19.886719 19.867188 19.886719 19.761719 20.007812 C 19.882812 19.449219 20.234375 18.941406 20.828125 18.941406 Z M 20.828125 18.941406 "/>
<path style=" stroke:none;fill-rule:nonzero;fill:rgb(23.137255%,27.843139%,34.901962%);fill-opacity:1;" d="M 17.523438 17.378906 C 17.667969 17.378906 17.667969 17.378906 17.816406 17.382812 C 17.890625 17.382812 17.964844 17.382812 18.039062 17.382812 C 18.039062 17.4375 18.039062 17.492188 18.039062 17.546875 C 17.660156 17.546875 17.28125 17.546875 16.890625 17.546875 C 16.890625 17.601562 16.890625 17.65625 16.890625 17.710938 C 16.785156 17.710938 16.675781 17.710938 16.5625 17.710938 C 16.535156 17.792969 16.511719 17.875 16.480469 17.957031 C 16.402344 17.902344 16.320312 17.851562 16.234375 17.792969 C 16.695312 17.476562 16.964844 17.375 17.523438 17.378906 Z M 17.523438 17.378906 "/>
<path style=" stroke:none;fill-rule:nonzero;fill:rgb(0.392157%,14.117648%,31.37255%);fill-opacity:1;" d="M 25.011719 22.058594 C 25.253906 22.085938 25.496094 22.113281 25.746094 22.140625 C 25.722656 22.25 25.695312 22.355469 25.664062 22.46875 C 25.476562 22.496094 25.289062 22.523438 25.09375 22.550781 C 25.039062 22.46875 24.984375 22.386719 24.929688 22.304688 C 24.953125 22.222656 24.980469 22.140625 25.011719 22.058594 Z M 25.011719 22.058594 "/>
<path style=" stroke:none;fill-rule:nonzero;fill:rgb(32.941177%,38.431373%,44.705883%);fill-opacity:1;" d="M 18.941406 20.171875 C 19.226562 20.363281 19.261719 20.421875 19.351562 20.746094 C 19.363281 20.992188 19.363281 21.238281 19.351562 21.484375 C 19.269531 21.511719 19.191406 21.539062 19.105469 21.566406 C 19.101562 21.484375 19.097656 21.40625 19.089844 21.324219 C 19.085938 21.21875 19.078125 21.113281 19.070312 21.007812 C 19.0625 20.902344 19.058594 20.800781 19.050781 20.691406 C 19.035156 20.417969 19.035156 20.417969 18.941406 20.171875 Z M 18.941406 20.171875 "/>
<path style=" stroke:none;fill-rule:nonzero;fill:rgb(90.196079%,50.980395%,16.470589%);fill-opacity:1;" d="M 11.5625 19.761719 C 11.589844 19.761719 11.617188 19.761719 11.644531 19.761719 C 11.648438 19.996094 11.652344 20.234375 11.652344 20.46875 C 11.65625 20.535156 11.65625 20.601562 11.660156 20.671875 C 11.660156 21.058594 11.628906 21.367188 11.480469 21.730469 C 11.300781 21.460938 11.300781 21.382812 11.316406 21.074219 C 11.316406 20.992188 11.316406 20.910156 11.316406 20.828125 C 11.398438 20.828125 11.476562 20.828125 11.5625 20.828125 C 11.5625 20.476562 11.5625 20.125 11.5625 19.761719 Z M 11.5625 19.761719 "/>
<path style=" stroke:none;fill-rule:nonzero;fill:rgb(16.862746%,26.666668%,36.470589%);fill-opacity:1;" d="M 26.484375 18.777344 C 26.808594 18.886719 26.996094 19.015625 27.222656 19.269531 C 27.195312 19.324219 27.167969 19.378906 27.140625 19.433594 C 27.003906 19.433594 26.867188 19.433594 26.730469 19.433594 C 26.652344 19.472656 26.652344 19.472656 26.566406 19.515625 C 26.539062 19.273438 26.515625 19.027344 26.484375 18.777344 Z M 26.484375 18.777344 "/>
<path style=" stroke:none;fill-rule:nonzero;fill:rgb(12.941177%,14.509805%,19.607843%);fill-opacity:1;" d="M 11.398438 21.730469 C 11.484375 21.957031 11.484375 22.046875 11.402344 22.285156 C 11.375 22.34375 11.34375 22.40625 11.316406 22.46875 C 11.289062 22.414062 11.261719 22.359375 11.234375 22.304688 C 11.179688 22.304688 11.125 22.304688 11.070312 22.304688 C 11.070312 22.359375 11.070312 22.414062 11.070312 22.46875 C 10.621094 22.722656 10.621094 22.722656 10.398438 22.679688 C 10.347656 22.664062 10.300781 22.648438 10.25 22.632812 C 10.304688 22.601562 10.359375 22.570312 10.417969 22.539062 C 10.980469 22.21875 10.980469 22.21875 11.398438 21.730469 Z M 11.398438 21.730469 "/>
<path style=" stroke:none;fill-rule:nonzero;fill:rgb(21.960784%,28.627452%,39.215687%);fill-opacity:1;" d="M 23.535156 21.074219 C 23.589844 21.074219 23.640625 21.074219 23.699219 21.074219 C 23.652344 21.449219 23.550781 21.726562 23.371094 22.058594 C 23.316406 22.058594 23.261719 22.058594 23.207031 22.058594 C 23.207031 22.113281 23.207031 22.167969 23.207031 22.222656 C 23.152344 22.222656 23.097656 22.222656 23.042969 22.222656 C 23.042969 22.277344 23.042969 22.332031 23.042969 22.386719 C 22.988281 22.359375 22.933594 22.332031 22.878906 22.304688 C 22.933594 22.167969 22.984375 22.035156 23.042969 21.894531 C 23.125 21.921875 23.203125 21.949219 23.289062 21.976562 C 23.28125 21.902344 23.277344 21.832031 23.273438 21.753906 C 23.289062 21.453125 23.351562 21.3125 23.535156 21.074219 Z M 23.535156 21.074219 "/>
<path style=" stroke:none;fill-rule:nonzero;fill:rgb(1.568628%,14.117648%,30.588236%);fill-opacity:1;" d="M 8.65625 21.234375 C 8.753906 21.234375 8.753906 21.234375 8.855469 21.238281 C 8.882812 21.292969 8.910156 21.347656 8.9375 21.402344 C 9.019531 21.429688 9.101562 21.457031 9.183594 21.484375 C 9.183594 21.566406 9.183594 21.644531 9.183594 21.730469 C 8.929688 21.691406 8.691406 21.648438 8.445312 21.566406 C 8.417969 21.484375 8.390625 21.402344 8.363281 21.320312 C 8.445312 21.238281 8.445312 21.238281 8.65625 21.234375 Z M 8.65625 21.234375 "/>
<path style=" stroke:none;fill-rule:nonzero;fill:rgb(84.313726%,52.549022%,21.960784%);fill-opacity:1;" d="M 8.9375 17.136719 C 8.9375 17.191406 8.9375 17.246094 8.9375 17.300781 C 8.722656 17.300781 8.503906 17.300781 8.28125 17.300781 C 8.28125 17.355469 8.28125 17.410156 8.28125 17.464844 C 8.121094 17.464844 7.957031 17.464844 7.789062 17.464844 C 7.789062 17.519531 7.789062 17.574219 7.789062 17.628906 C 7.628906 17.683594 7.464844 17.738281 7.296875 17.792969 C 7.753906 17.265625 8.246094 17.09375 8.9375 17.136719 Z M 8.9375 17.136719 "/>
<path style=" stroke:none;fill-rule:nonzero;fill:rgb(28.627452%,34.901962%,42.745098%);fill-opacity:1;" d="M 25.585938 19.515625 C 25.277344 19.761719 25.277344 19.761719 25.09375 19.761719 C 25.066406 19.84375 25.039062 19.925781 25.011719 20.007812 C 24.621094 19.945312 24.621094 19.945312 24.4375 19.761719 C 24.5 19.75 24.5625 19.742188 24.625 19.730469 C 25.554688 19.515625 25.554688 19.515625 25.585938 19.515625 Z M 25.585938 19.515625 "/>
<path style=" stroke:none;fill-rule:nonzero;fill:rgb(45.09804%,50.196081%,56.862748%);fill-opacity:1;" d="M 24.109375 20.910156 C 24.164062 20.992188 24.214844 21.074219 24.273438 21.15625 C 24.21875 21.15625 24.164062 21.15625 24.109375 21.15625 C 24.109375 21.398438 24.109375 21.644531 24.109375 21.894531 C 24.1875 21.921875 24.269531 21.949219 24.355469 21.976562 C 24.382812 22.058594 24.40625 22.136719 24.4375 22.222656 C 24.488281 22.277344 24.542969 22.332031 24.601562 22.386719 C 24.601562 22.441406 24.601562 22.496094 24.601562 22.550781 C 24.546875 22.550781 24.492188 22.550781 24.4375 22.550781 C 24.4375 22.496094 24.4375 22.441406 24.4375 22.386719 C 24.382812 22.386719 24.328125 22.386719 24.273438 22.386719 C 23.96875 22.050781 24.003906 21.699219 24.007812 21.273438 C 24.027344 21.074219 24.027344 21.074219 24.109375 20.910156 Z M 24.109375 20.910156 "/>
<path style=" stroke:none;fill-rule:nonzero;fill:rgb(16.078432%,25.098041%,36.078432%);fill-opacity:1;" d="M 26.238281 21.402344 C 26.320312 21.429688 26.402344 21.457031 26.484375 21.484375 C 26.433594 22.304688 26.433594 22.304688 26.15625 22.550781 C 25.980469 22.613281 25.980469 22.613281 25.828125 22.632812 C 25.828125 22.550781 25.828125 22.46875 25.828125 22.386719 C 25.964844 22.359375 26.101562 22.332031 26.238281 22.304688 C 26.214844 22.140625 26.1875 21.980469 26.15625 21.8125 C 26.210938 21.8125 26.265625 21.8125 26.320312 21.8125 C 26.296875 21.675781 26.269531 21.542969 26.238281 21.402344 Z M 26.238281 21.402344 "/>
<path style=" stroke:none;fill-rule:nonzero;fill:rgb(28.235295%,33.725491%,43.921569%);fill-opacity:1;" d="M 26.320312 19.761719 C 26.402344 19.761719 26.484375 19.761719 26.566406 19.761719 C 26.59375 19.84375 26.621094 19.925781 26.648438 20.007812 C 26.597656 20.007812 26.542969 20.007812 26.484375 20.007812 C 26.484375 20.144531 26.484375 20.277344 26.484375 20.417969 C 25.367188 20.527344 25.367188 20.527344 24.847656 20.417969 C 24.847656 20.390625 24.847656 20.363281 24.847656 20.335938 C 25.359375 20.335938 25.875 20.335938 26.402344 20.335938 C 26.375 20.148438 26.351562 19.957031 26.320312 19.761719 Z M 26.320312 19.761719 "/>
<path style=" stroke:none;fill-rule:nonzero;fill:rgb(31.764707%,37.64706%,46.27451%);fill-opacity:1;" d="M 5.164062 15.660156 C 5.21875 15.6875 5.273438 15.714844 5.328125 15.742188 C 5.269531 15.945312 5.269531 15.945312 5.164062 16.152344 C 4.992188 16.21875 4.992188 16.21875 4.839844 16.234375 C 4.839844 16.289062 4.839844 16.34375 4.839844 16.398438 C 4.757812 16.425781 4.675781 16.453125 4.59375 16.480469 C 4.746094 16.09375 4.746094 16.09375 4.839844 15.90625 C 4.890625 15.90625 4.945312 15.90625 5.003906 15.90625 C 5.003906 15.855469 5.003906 15.800781 5.003906 15.742188 C 5.054688 15.71875 5.109375 15.691406 5.164062 15.660156 Z M 5.164062 15.660156 "/>
<path style=" stroke:none;fill-rule:nonzero;fill:rgb(33.725491%,41.176471%,49.411765%);fill-opacity:1;" d="M 17.628906 19.433594 C 17.761719 19.46875 17.894531 19.503906 18.023438 19.542969 C 18.132812 19.570312 18.132812 19.570312 18.246094 19.601562 C 18.453125 19.683594 18.554688 19.757812 18.695312 19.925781 C 18.613281 19.953125 18.535156 19.980469 18.449219 20.007812 C 18.421875 19.925781 18.394531 19.84375 18.367188 19.761719 C 18.234375 19.816406 18.097656 19.871094 17.957031 19.925781 C 17.773438 19.757812 17.710938 19.679688 17.628906 19.433594 Z M 17.628906 19.433594 "/>
<path style=" stroke:none;fill-rule:nonzero;fill:rgb(9.411765%,20.392157%,33.333334%);fill-opacity:1;" d="M 18.53125 17.628906 C 18.730469 17.691406 18.730469 17.691406 18.941406 17.792969 C 19.054688 18.03125 19.019531 18.203125 18.941406 18.449219 C 18.832031 18.449219 18.726562 18.449219 18.613281 18.449219 C 18.632812 18.359375 18.648438 18.269531 18.664062 18.179688 C 18.730469 17.867188 18.730469 17.867188 18.53125 17.628906 Z M 18.53125 17.628906 "/>
<path style=" stroke:none;fill-rule:nonzero;fill:rgb(90.980393%,51.372552%,14.901961%);fill-opacity:1;" d="M 6.886719 18.203125 C 6.914062 18.257812 6.941406 18.3125 6.96875 18.367188 C 6.894531 18.535156 6.8125 18.699219 6.722656 18.859375 C 6.777344 18.886719 6.832031 18.914062 6.886719 18.941406 C 6.816406 19.566406 6.816406 19.566406 6.722656 19.84375 C 6.695312 19.84375 6.667969 19.84375 6.640625 19.84375 C 6.636719 19.648438 6.628906 19.453125 6.625 19.253906 C 6.625 19.171875 6.625 19.171875 6.621094 19.085938 C 6.613281 18.71875 6.667969 18.5 6.886719 18.203125 Z M 6.886719 18.203125 "/>
<path style=" stroke:none;fill-rule:nonzero;fill:rgb(29.411766%,36.078432%,43.921569%);fill-opacity:1;" d="M 20.746094 20.910156 C 20.84375 21.101562 20.921875 21.277344 20.992188 21.484375 C 21.238281 21.585938 21.238281 21.585938 21.484375 21.648438 C 21.484375 21.675781 21.484375 21.703125 21.484375 21.730469 C 21.292969 21.730469 21.105469 21.730469 20.910156 21.730469 C 20.65625 21.285156 20.65625 21.285156 20.691406 21.042969 C 20.707031 21 20.726562 20.957031 20.746094 20.910156 Z M 20.746094 20.910156 "/>
<path style=" stroke:none;fill-rule:nonzero;fill:rgb(17.254902%,27.058825%,37.64706%);fill-opacity:1;" d="M 33.703125 19.269531 C 33.78125 19.296875 33.863281 19.324219 33.949219 19.351562 C 34.046875 19.5625 34.046875 19.5625 34.113281 19.761719 C 34.003906 19.761719 33.894531 19.761719 33.785156 19.761719 C 33.785156 19.84375 33.785156 19.925781 33.785156 20.007812 C 33.730469 20.007812 33.675781 20.007812 33.621094 20.007812 C 33.554688 19.769531 33.519531 19.640625 33.613281 19.410156 C 33.644531 19.363281 33.671875 19.316406 33.703125 19.269531 Z M 33.703125 19.269531 "/>
<path style=" stroke:none;fill-rule:nonzero;fill:rgb(17.254902%,25.098041%,36.078432%);fill-opacity:1;" d="M 32.71875 19.1875 C 32.917969 19.265625 32.917969 19.265625 33.128906 19.433594 C 33.191406 19.679688 33.203125 19.917969 33.210938 20.171875 C 33.15625 20.144531 33.101562 20.117188 33.046875 20.089844 C 33.046875 20.007812 33.046875 19.925781 33.046875 19.84375 C 32.992188 19.84375 32.9375 19.84375 32.882812 19.84375 C 32.800781 19.65625 32.71875 19.464844 32.636719 19.269531 C 32.664062 19.242188 32.691406 19.214844 32.71875 19.1875 Z M 32.71875 19.1875 "/>
<path style=" stroke:none;fill-rule:nonzero;fill:rgb(3.529412%,13.725491%,26.274511%);fill-opacity:1;" d="M 34.933594 17.546875 C 35.203125 17.546875 35.472656 17.546875 35.753906 17.546875 C 35.753906 17.871094 35.753906 18.199219 35.753906 18.53125 C 35.726562 18.53125 35.699219 18.53125 35.671875 18.53125 C 35.671875 18.261719 35.671875 17.992188 35.671875 17.710938 C 35.289062 17.75 35.289062 17.75 34.933594 17.875 C 34.933594 17.769531 34.933594 17.660156 34.933594 17.546875 Z M 34.933594 17.546875 "/>
<path style=" stroke:none;fill-rule:nonzero;fill:rgb(25.882354%,34.901962%,44.705883%);fill-opacity:1;" d="M 21.074219 19.1875 C 21.15625 19.242188 21.238281 19.296875 21.320312 19.351562 C 21.292969 19.433594 21.265625 19.515625 21.238281 19.597656 C 21.347656 19.625 21.453125 19.652344 21.566406 19.679688 C 21.488281 19.71875 21.410156 19.753906 21.332031 19.792969 C 21.074219 19.910156 21.074219 19.910156 20.910156 20.089844 C 20.910156 19.953125 20.910156 19.820312 20.910156 19.679688 C 20.992188 19.679688 21.074219 19.679688 21.15625 19.679688 C 21.15625 19.625 21.15625 19.570312 21.15625 19.515625 C 21.101562 19.515625 21.046875 19.515625 20.992188 19.515625 C 21.019531 19.40625 21.046875 19.300781 21.074219 19.1875 Z M 21.074219 19.1875 "/>
<path style=" stroke:none;fill-rule:nonzero;fill:rgb(16.862746%,13.725491%,15.294118%);fill-opacity:1;" d="M 6.804688 17.875 C 6.914062 17.902344 7.023438 17.929688 7.132812 17.957031 C 7.105469 18 7.078125 18.042969 7.050781 18.085938 C 6.835938 18.417969 6.667969 18.71875 6.558594 19.105469 C 6.464844 18.828125 6.492188 18.671875 6.589844 18.398438 C 6.613281 18.335938 6.636719 18.269531 6.660156 18.207031 C 6.722656 18.039062 6.722656 18.039062 6.804688 17.875 Z M 6.804688 17.875 "/>
<path style=" stroke:none;fill-rule:nonzero;fill:rgb(32.549021%,38.82353%,46.27451%);fill-opacity:1;" d="M 19.105469 21.976562 C 18.886719 22.28125 18.730469 22.4375 18.367188 22.550781 C 18.367188 22.46875 18.367188 22.386719 18.367188 22.304688 C 18.449219 22.277344 18.53125 22.25 18.613281 22.222656 C 18.585938 22.167969 18.558594 22.113281 18.53125 22.058594 C 18.828125 21.882812 18.828125 21.882812 19.105469 21.976562 Z M 19.105469 21.976562 "/>
<path style=" stroke:none;fill-rule:nonzero;fill:rgb(28.627452%,35.686275%,44.705883%);fill-opacity:1;" d="M 22.304688 19.84375 C 22.414062 19.84375 22.519531 19.84375 22.632812 19.84375 C 22.632812 19.898438 22.632812 19.953125 22.632812 20.007812 C 22.6875 20.007812 22.742188 20.007812 22.796875 20.007812 C 22.925781 20.335938 22.820312 20.585938 22.714844 20.910156 C 22.6875 20.910156 22.660156 20.910156 22.632812 20.910156 C 22.628906 20.859375 22.621094 20.808594 22.617188 20.757812 C 22.609375 20.691406 22.601562 20.625 22.597656 20.554688 C 22.589844 20.492188 22.582031 20.425781 22.574219 20.359375 C 22.554688 20.160156 22.554688 20.160156 22.46875 19.925781 C 22.414062 19.898438 22.359375 19.871094 22.304688 19.84375 Z M 22.304688 19.84375 "/>
<path style=" stroke:none;fill-rule:nonzero;fill:rgb(33.333334%,39.215687%,47.843137%);fill-opacity:1;" d="M 16.070312 19.597656 C 16.234375 19.597656 16.234375 19.597656 16.394531 19.75 C 16.449219 19.808594 16.507812 19.867188 16.5625 19.925781 C 16.644531 19.980469 16.726562 20.035156 16.808594 20.089844 C 16.808594 20.144531 16.808594 20.199219 16.808594 20.253906 C 16.25 20.09375 16.25 20.09375 16.070312 19.84375 C 16.070312 19.761719 16.070312 19.679688 16.070312 19.597656 Z M 16.070312 19.597656 "/>
<path style=" stroke:none;fill-rule:nonzero;fill:rgb(15.294118%,23.921569%,35.294119%);fill-opacity:1;" d="M 25.585938 18.777344 C 25.585938 18.832031 25.585938 18.886719 25.585938 18.941406 C 25.476562 18.941406 25.367188 18.941406 25.257812 18.941406 C 25.257812 18.996094 25.257812 19.050781 25.257812 19.105469 C 25.121094 19.105469 24.984375 19.105469 24.847656 19.105469 C 24.875 18.996094 24.898438 18.890625 24.929688 18.777344 C 25.179688 18.699219 25.332031 18.699219 25.585938 18.777344 Z M 25.585938 18.777344 "/>
<path style=" stroke:none;fill-rule:nonzero;fill:rgb(28.235295%,37.254903%,47.450981%);fill-opacity:1;" d="M 22.304688 21.648438 C 22.222656 21.703125 22.140625 21.757812 22.058594 21.8125 C 22.058594 21.894531 22.058594 21.972656 22.058594 22.058594 C 21.949219 22.085938 21.839844 22.113281 21.730469 22.140625 C 21.703125 22.058594 21.675781 21.976562 21.648438 21.894531 C 21.59375 21.839844 21.539062 21.785156 21.484375 21.730469 C 21.589844 21.699219 21.695312 21.671875 21.800781 21.644531 C 21.859375 21.625 21.917969 21.609375 21.980469 21.59375 C 22.140625 21.566406 22.140625 21.566406 22.304688 21.648438 Z M 22.304688 21.648438 "/>
<path style=" stroke:none;fill-rule:nonzero;fill:rgb(87.058824%,51.372552%,17.647059%);fill-opacity:1;" d="M 7.460938 20.664062 C 7.707031 20.691406 7.949219 20.71875 8.199219 20.746094 C 8.199219 20.773438 8.199219 20.800781 8.199219 20.828125 C 8.039062 20.855469 7.875 20.882812 7.707031 20.910156 C 7.679688 21.019531 7.652344 21.125 7.625 21.238281 C 7.570312 21.238281 7.519531 21.238281 7.460938 21.238281 C 7.460938 21.046875 7.460938 20.859375 7.460938 20.664062 Z M 7.460938 20.664062 "/>
<path style=" stroke:none;fill-rule:nonzero;fill:rgb(38.039216%,44.313726%,50.588238%);fill-opacity:1;" d="M 12.546875 15.578125 C 12.90625 15.621094 13.105469 15.839844 13.367188 16.070312 C 13.339844 16.125 13.3125 16.179688 13.285156 16.234375 C 13.230469 16.234375 13.175781 16.234375 13.121094 16.234375 C 13.121094 16.15625 13.121094 16.074219 13.121094 15.988281 C 13.066406 15.980469 13.015625 15.972656 12.960938 15.964844 C 12.90625 15.945312 12.847656 15.925781 12.792969 15.90625 C 12.765625 15.828125 12.738281 15.746094 12.710938 15.660156 C 12.65625 15.636719 12.601562 15.609375 12.546875 15.578125 Z M 12.546875 15.578125 "/>
<path style=" stroke:none;fill-rule:nonzero;fill:rgb(34.117648%,40.000001%,47.058824%);fill-opacity:1;" d="M 34.113281 19.761719 C 34.308594 19.941406 34.421875 20.109375 34.539062 20.351562 C 34.566406 20.410156 34.59375 20.46875 34.621094 20.527344 C 34.644531 20.574219 34.664062 20.617188 34.6875 20.664062 C 34.605469 20.703125 34.605469 20.703125 34.523438 20.746094 C 34.496094 20.664062 34.46875 20.582031 34.441406 20.5 C 34.386719 20.472656 34.332031 20.445312 34.277344 20.417969 C 34.121094 20.167969 34.113281 20.070312 34.113281 19.761719 Z M 34.113281 19.761719 "/>
<path style=" stroke:none;fill-rule:nonzero;fill:rgb(15.294118%,16.078432%,17.647059%);fill-opacity:1;" d="M 10.414062 20.089844 C 10.496094 20.089844 10.578125 20.089844 10.660156 20.089844 C 10.53125 20.441406 10.289062 20.605469 10.003906 20.828125 C 10.003906 20.71875 10.003906 20.613281 10.003906 20.5 C 10.085938 20.5 10.167969 20.5 10.25 20.5 C 10.25 20.445312 10.25 20.390625 10.25 20.335938 C 10.304688 20.335938 10.359375 20.335938 10.414062 20.335938 C 10.414062 20.253906 10.414062 20.171875 10.414062 20.089844 Z M 10.414062 20.089844 "/>
<path style=" stroke:none;fill-rule:nonzero;fill:rgb(9.411765%,14.901961%,24.313726%);fill-opacity:1;" d="M 7.734375 17.292969 C 7.800781 17.335938 7.800781 17.335938 7.871094 17.382812 C 7.683594 17.492188 7.492188 17.601562 7.296875 17.710938 C 7.242188 17.605469 7.191406 17.496094 7.132812 17.382812 C 7.496094 17.203125 7.496094 17.203125 7.734375 17.292969 Z M 7.734375 17.292969 "/>
<path style=" stroke:none;fill-rule:nonzero;fill:rgb(1.568628%,12.941177%,25.882354%);fill-opacity:1;" d="M 12.464844 15.578125 C 12.710938 15.660156 12.710938 15.660156 12.875 15.90625 C 12.957031 15.960938 13.035156 16.015625 13.121094 16.070312 C 12.957031 16.097656 12.796875 16.125 12.628906 16.152344 C 12.601562 16.074219 12.574219 15.992188 12.546875 15.90625 C 12.492188 15.882812 12.4375 15.855469 12.382812 15.824219 C 12.410156 15.746094 12.4375 15.664062 12.464844 15.578125 Z M 12.464844 15.578125 "/>
<path style=" stroke:none;fill-rule:nonzero;fill:rgb(1.960784%,8.627451%,18.039216%);fill-opacity:1;" d="M 30.832031 22.386719 C 30.832031 22.46875 30.832031 22.546875 30.832031 22.632812 C 30.5625 22.632812 30.289062 22.632812 30.011719 22.632812 C 30.011719 22.578125 30.011719 22.523438 30.011719 22.46875 C 30.648438 22.386719 30.648438 22.386719 30.832031 22.386719 Z M 30.832031 22.386719 "/>
<path style=" stroke:none;fill-rule:nonzero;fill:rgb(1.960784%,12.941177%,26.274511%);fill-opacity:1;" d="M 16.234375 21.320312 C 16.289062 21.347656 16.34375 21.375 16.398438 21.402344 C 16.347656 21.449219 16.296875 21.5 16.246094 21.550781 C 16.0625 21.730469 16.0625 21.730469 15.90625 21.976562 C 15.960938 22.003906 16.015625 22.03125 16.070312 22.058594 C 15.992188 22.058594 15.910156 22.058594 15.824219 22.058594 C 15.800781 21.875 15.800781 21.875 15.824219 21.648438 C 16.03125 21.457031 16.03125 21.457031 16.234375 21.320312 Z M 16.234375 21.320312 "/>
<path style=" stroke:none;fill-rule:nonzero;fill:rgb(23.137255%,32.549021%,43.529412%);fill-opacity:1;" d="M 26.484375 18.777344 C 26.886719 18.921875 26.886719 18.921875 26.976562 19.105469 C 26.898438 19.132812 26.816406 19.160156 26.730469 19.1875 C 26.730469 19.296875 26.730469 19.40625 26.730469 19.515625 C 26.679688 19.515625 26.625 19.515625 26.566406 19.515625 C 26.539062 19.273438 26.515625 19.027344 26.484375 18.777344 Z M 26.484375 18.777344 "/>
<path style=" stroke:none;fill-rule:nonzero;fill:rgb(29.803923%,33.725491%,42.745098%);fill-opacity:1;" d="M 15.742188 21.484375 C 15.796875 21.484375 15.851562 21.484375 15.90625 21.484375 C 15.90625 21.699219 15.90625 21.917969 15.90625 22.140625 C 15.800781 22.085938 15.691406 22.03125 15.578125 21.976562 C 15.578125 21.867188 15.578125 21.757812 15.578125 21.648438 C 15.632812 21.648438 15.6875 21.648438 15.742188 21.648438 C 15.742188 21.59375 15.742188 21.539062 15.742188 21.484375 Z M 15.742188 21.484375 "/>
<path style=" stroke:none;fill-rule:nonzero;fill:rgb(14.117648%,11.764706%,13.333334%);fill-opacity:1;" d="M 7.707031 20.828125 C 7.789062 20.855469 7.871094 20.882812 7.953125 20.910156 C 7.898438 20.910156 7.847656 20.910156 7.789062 20.910156 C 7.789062 20.992188 7.789062 21.074219 7.789062 21.15625 C 7.898438 21.183594 8.007812 21.210938 8.117188 21.238281 C 8.089844 21.292969 8.0625 21.347656 8.035156 21.402344 C 7.832031 21.320312 7.832031 21.320312 7.625 21.238281 C 7.652344 21.101562 7.679688 20.96875 7.707031 20.828125 Z M 7.707031 20.828125 "/>
<path style=" stroke:none;fill-rule:nonzero;fill:rgb(45.490196%,49.019608%,54.901963%);fill-opacity:1;" d="M 18.941406 17.792969 C 19.050781 17.875 19.160156 17.957031 19.269531 18.039062 C 19.242188 18.148438 19.214844 18.257812 19.1875 18.367188 C 19.132812 18.367188 19.078125 18.367188 19.023438 18.367188 C 18.996094 18.421875 18.96875 18.476562 18.941406 18.53125 C 18.941406 18.289062 18.941406 18.042969 18.941406 17.792969 Z M 18.941406 17.792969 "/>
<path style=" stroke:none;fill-rule:nonzero;fill:rgb(29.411766%,36.078432%,44.313726%);fill-opacity:1;" d="M 16.726562 17.464844 C 16.808594 17.492188 16.890625 17.519531 16.972656 17.546875 C 16.945312 17.601562 16.917969 17.65625 16.890625 17.710938 C 16.785156 17.710938 16.675781 17.710938 16.5625 17.710938 C 16.535156 17.792969 16.511719 17.875 16.480469 17.957031 C 16.402344 17.902344 16.320312 17.851562 16.234375 17.792969 C 16.464844 17.625 16.464844 17.625 16.726562 17.464844 Z M 16.726562 17.464844 "/>
<path style=" stroke:none;fill-rule:nonzero;fill:rgb(30.980393%,36.470589%,45.882353%);fill-opacity:1;" d="M 23.289062 21.730469 C 23.34375 21.730469 23.394531 21.730469 23.453125 21.730469 C 23.425781 21.839844 23.398438 21.945312 23.371094 22.058594 C 23.316406 22.058594 23.261719 22.058594 23.207031 22.058594 C 23.207031 22.113281 23.207031 22.167969 23.207031 22.222656 C 23.152344 22.222656 23.097656 22.222656 23.042969 22.222656 C 23.042969 22.277344 23.042969 22.332031 23.042969 22.386719 C 22.988281 22.359375 22.933594 22.332031 22.878906 22.304688 C 22.933594 22.167969 22.984375 22.035156 23.042969 21.894531 C 23.125 21.921875 23.203125 21.949219 23.289062 21.976562 C 23.289062 21.894531 23.289062 21.8125 23.289062 21.730469 Z M 23.289062 21.730469 "/>
<path style=" stroke:none;fill-rule:nonzero;fill:rgb(0.784314%,12.54902%,27.843139%);fill-opacity:1;" d="M 26.402344 21.320312 C 26.484375 21.320312 26.566406 21.320312 26.648438 21.320312 C 26.648438 21.429688 26.648438 21.535156 26.648438 21.648438 C 26.597656 21.648438 26.542969 21.648438 26.484375 21.648438 C 26.484375 21.59375 26.484375 21.539062 26.484375 21.484375 C 26.433594 21.457031 26.378906 21.429688 26.320312 21.402344 C 26.347656 21.375 26.375 21.347656 26.402344 21.320312 Z M 26.402344 21.648438 C 26.566406 21.730469 26.566406 21.730469 26.730469 21.8125 C 26.730469 21.867188 26.730469 21.921875 26.730469 21.976562 C 26.679688 21.976562 26.625 21.976562 26.566406 21.976562 C 26.566406 21.921875 26.566406 21.867188 26.566406 21.8125 C 26.515625 21.8125 26.460938 21.8125 26.402344 21.8125 C 26.402344 21.757812 26.402344 21.703125 26.402344 21.648438 Z M 26.402344 21.648438 "/>
<path style=" stroke:none;fill-rule:nonzero;fill:rgb(87.450981%,51.372552%,18.431373%);fill-opacity:1;" d="M 11.152344 21.484375 C 11.25 21.621094 11.25 21.621094 11.316406 21.8125 C 11.214844 22.039062 11.214844 22.039062 11.070312 22.222656 C 11.015625 22.222656 10.960938 22.222656 10.90625 22.222656 C 10.90625 22.140625 10.90625 22.058594 10.90625 21.976562 C 10.960938 21.976562 11.015625 21.976562 11.070312 21.976562 C 11.097656 21.8125 11.125 21.652344 11.152344 21.484375 Z M 11.152344 21.484375 "/>
<path style=" stroke:none;fill-rule:nonzero;fill:rgb(24.705882%,31.764707%,40.000001%);fill-opacity:1;" d="M 17.300781 20.335938 C 17.464844 20.335938 17.625 20.335938 17.792969 20.335938 C 17.820312 20.445312 17.847656 20.550781 17.875 20.664062 C 17.6875 20.609375 17.496094 20.554688 17.300781 20.5 C 17.300781 20.445312 17.300781 20.390625 17.300781 20.335938 Z M 17.300781 20.335938 "/>
<path style=" stroke:none;fill-rule:nonzero;fill:rgb(6.27451%,12.941177%,25.098041%);fill-opacity:1;" d="M 11.808594 17.054688 C 11.890625 17.054688 11.96875 17.054688 12.054688 17.054688 C 12.082031 17.21875 12.109375 17.378906 12.136719 17.546875 C 12.054688 17.601562 11.972656 17.65625 11.890625 17.710938 C 11.863281 17.496094 11.835938 17.277344 11.808594 17.054688 Z M 11.808594 17.054688 "/>
<path style=" stroke:none;fill-rule:nonzero;fill:rgb(38.039216%,43.529412%,53.333336%);fill-opacity:1;" d="M 20.007812 19.433594 C 20.117188 19.488281 20.222656 19.542969 20.335938 19.597656 C 20.285156 19.621094 20.238281 19.640625 20.1875 19.664062 C 20.011719 19.761719 19.898438 19.859375 19.761719 20.007812 C 19.914062 19.527344 19.914062 19.527344 20.007812 19.433594 Z M 20.007812 19.433594 "/>
</g>
</svg>
