<?xml version="1.0" encoding="UTF-8"?>
<svg version="1.1" xmlns="http://www.w3.org/2000/svg" width="500" height="500">
<path d="M0 0 C0.79625793 -0.01022186 1.59251587 -0.02044373 2.41290283 -0.03097534 C5.02110629 -0.0585679 7.62824105 -0.05686997 10.23657227 -0.05224609 C12.06446213 -0.06003051 13.89234842 -0.068702 15.7202301 -0.07821655 C19.54228469 -0.09309755 23.36396963 -0.09259012 27.18603516 -0.08203125 C32.06635465 -0.07044097 36.94515623 -0.10432253 41.82522488 -0.1507206 C45.59756708 -0.18028706 49.36954738 -0.18192661 53.14198494 -0.17570114 C54.94041006 -0.1767228 56.73885672 -0.18710847 58.5371685 -0.20732498 C75.45467019 -0.37420457 75.45467019 -0.37420457 82.06190491 4.95718384 C87.83676778 10.87537607 88.76408444 16.1393575 88.77661133 24.22021484 C88.78405869 25.37224396 88.78405869 25.37224396 88.79165649 26.54754639 C88.80624274 29.08460391 88.81307479 31.62159887 88.81860352 34.15869141 C88.8243586 35.92742921 88.83011629 37.696167 88.83587646 39.46490479 C88.84637689 43.173709 88.85222559 46.88249161 88.85571289 50.59130859 C88.8611906 55.33013185 88.88520715 60.06866676 88.91368484 64.80739975 C88.93236434 68.46210549 88.93751968 72.11674257 88.93904877 75.771492 C88.94206467 77.5176984 88.95005711 79.26390389 88.96323395 81.01006317 C88.98040333 83.46054117 88.9783878 85.91032512 88.97192383 88.36083984 C88.98113861 89.07385254 88.99035339 89.78686523 88.99984741 90.52148438 C88.95030369 96.55614271 87.6757168 102.07530641 83.74829102 106.79150391 C83.08571289 107.33033203 82.42313477 107.86916016 81.74047852 108.42431641 C81.08305664 108.97861328 80.42563477 109.53291016 79.74829102 110.10400391 C74.92802031 113.37048772 70.54204984 113.84705794 64.83105469 113.83984375 C64.06288925 113.84656097 63.29472382 113.8532782 62.50328064 113.86019897 C59.97160313 113.87914818 57.44019122 113.88310174 54.90844727 113.88525391 C53.14113762 113.89168449 51.37382904 113.89841305 49.60652161 113.90542603 C45.9036716 113.91739146 42.20091484 113.92110766 38.49804688 113.91992188 C33.76697751 113.91971885 29.03650991 113.94700744 24.305583 113.98146629 C20.6551492 114.00377024 17.00485935 114.00775833 13.3543644 114.00670242 C11.61094402 114.00905364 9.86751939 114.01785004 8.12416649 114.03336716 C5.67838534 114.0530965 3.23389047 114.04716258 0.78808594 114.03515625 C0.07664429 114.04639526 -0.63479736 114.05763428 -1.36779785 114.06921387 C-8.20736984 113.98444996 -13.14722928 111.4461511 -18.25952148 107.11181641 C-22.39619419 102.1234758 -22.68241843 97.50122128 -22.67504883 91.19824219 C-22.68176605 90.36994904 -22.68848328 89.54165588 -22.69540405 88.68826294 C-22.71436245 85.95699015 -22.7183071 83.22596336 -22.72045898 80.49462891 C-22.72688823 78.59040222 -22.73361668 76.68617652 -22.7406311 74.7819519 C-22.75259833 70.79243683 -22.75631248 66.80300832 -22.75512695 62.81347656 C-22.75492375 57.71015415 -22.78222934 52.60738856 -22.81667137 47.50419807 C-22.83894643 43.57157865 -22.84296431 39.63909313 -22.8419075 35.70641708 C-22.84426241 33.82540848 -22.85307972 31.94439613 -22.86857224 30.06344986 C-22.88824534 27.42830024 -22.88238941 24.79435006 -22.87036133 22.15917969 C-22.88160034 21.38803833 -22.89283936 20.61689697 -22.90441895 19.8223877 C-22.84087967 14.32345585 -21.43009854 11.12917233 -18.38452148 6.54931641 C-17.72452148 6.54931641 -17.06452148 6.54931641 -16.38452148 6.54931641 C-16.38452148 5.88931641 -16.38452148 5.22931641 -16.38452148 4.54931641 C-10.64712757 1.30480668 -6.5500844 -0.04426371 0 0 Z " fill="#07294F" transform="translate(77.384521484375,187.45068359375)"/>
<path d="M0 0 C1.28361168 0.00424484 1.28361168 0.00424484 2.59315491 0.00857544 C5.30313616 0.01969315 8.01277634 0.04478168 10.72265625 0.0703125 C12.56965666 0.08035319 14.41666229 0.08947713 16.26367188 0.09765625 C20.77096302 0.11960487 25.27800198 0.15407596 29.78515625 0.1953125 C29.81187872 1.64719825 29.83102618 3.09922491 29.84692383 4.55126953 C29.85838943 5.35984406 29.86985504 6.16841858 29.88166809 7.00149536 C29.76491827 9.65534342 29.1819055 11.04341516 27.47265625 13.0703125 C27.04339844 13.60398438 26.61414063 14.13765625 26.171875 14.6875 C25.71425781 15.18507812 25.25664062 15.68265625 24.78515625 16.1953125 C24.02138672 17.03449219 24.02138672 17.03449219 23.2421875 17.890625 C21.78515625 19.1953125 21.78515625 19.1953125 19.78515625 19.1953125 C19.78515625 19.8553125 19.78515625 20.5153125 19.78515625 21.1953125 C19.12515625 21.1953125 18.46515625 21.1953125 17.78515625 21.1953125 C17.78515625 21.8553125 17.78515625 22.5153125 17.78515625 23.1953125 C15.97265625 23.8828125 15.97265625 23.8828125 13.78515625 24.1953125 C12.76107057 23.2199928 11.76681219 22.21332607 10.78515625 21.1953125 C4.6915337 17.69472082 -1.27534181 17.33155554 -8.21484375 18.1953125 C-11.62677144 19.46672456 -11.62677144 19.46672456 -13.21484375 22.1953125 C-12.96170748 24.53870269 -12.63433712 26.87592015 -12.21484375 29.1953125 C-11.10625 29.46085937 -9.99765625 29.72640625 -8.85546875 30 C-7.39186564 30.35651871 -5.92832734 30.71330353 -4.46484375 31.0703125 C-3.37042969 31.33134766 -3.37042969 31.33134766 -2.25390625 31.59765625 C1.31800653 32.47439848 4.57889466 33.32218073 7.78515625 35.1953125 C6.16978181 39.09449218 3.50590752 41.90825022 0.66015625 44.9453125 C-0.04173828 45.70521484 -0.04173828 45.70521484 -0.7578125 46.48046875 C-1.90610916 47.72250391 -3.05993047 48.95942744 -4.21484375 50.1953125 C-5.11847656 49.97875 -6.02210937 49.7621875 -6.953125 49.5390625 C-8.13261719 49.260625 -9.31210938 48.9821875 -10.52734375 48.6953125 C-11.69910156 48.416875 -12.87085938 48.1384375 -14.078125 47.8515625 C-17.17014219 47.09292166 -17.17014219 47.09292166 -20.21484375 47.1953125 C-20.54484375 48.5153125 -20.87484375 49.8353125 -21.21484375 51.1953125 C-20.55484375 51.4428125 -19.89484375 51.6903125 -19.21484375 51.9453125 C-16.13238416 53.22967066 -13.28243421 54.75482013 -10.375 56.390625 C-7.42215349 57.49060037 -5.34338138 57.60813377 -2.21484375 57.1953125 C0.17364263 55.31577727 0.17364263 55.31577727 2.16015625 52.6953125 C5.68078043 48.49443212 9.31768424 44.60032509 13.25390625 40.7890625 C14.87862239 39.25604244 14.87862239 39.25604244 15.78515625 37.1953125 C16.44515625 37.1953125 17.10515625 37.1953125 17.78515625 37.1953125 C18.21828125 36.2671875 18.21828125 36.2671875 18.66015625 35.3203125 C19.78515625 33.1953125 19.78515625 33.1953125 21.78515625 31.1953125 C24.84765625 31.0078125 24.84765625 31.0078125 27.78515625 31.1953125 C29.99967252 33.40982877 29.09416753 38.76092443 29.10644531 41.8293457 C28.98473124 49.220186 26.89522206 54.62443191 23.16015625 60.9453125 C17.32834535 66.47018598 10.59085166 70.33328146 2.47558594 70.30883789 C1.63501648 70.30876236 0.79444702 70.30868683 -0.07159424 70.30860901 C-1.41867462 70.30086708 -1.41867462 70.30086708 -2.79296875 70.29296875 C-3.71954285 70.2915538 -4.64611694 70.29013885 -5.60076904 70.28868103 C-8.55549367 70.28309074 -11.51014208 70.27054 -14.46484375 70.2578125 C-16.47005099 70.25279625 -18.47525942 70.24823356 -20.48046875 70.24414062 C-25.39195638 70.23312449 -30.30338715 70.2158665 -35.21484375 70.1953125 C-35.31446162 64.13050001 -35.38666381 58.06617424 -35.43457031 52.00073242 C-35.45456221 49.94172864 -35.48176503 47.88278073 -35.51660156 45.82397461 C-35.95666483 19.12896029 -35.95666483 19.12896029 -25.29296875 8.0703125 C-17.9384339 1.43464196 -9.61691544 -0.12151476 0 0 Z " fill="#F98019" transform="translate(114.21484375,207.8046875)"/>
<path d="M0 0 C2.08870284 -0.108221 4.17901564 -0.18568969 6.26953125 -0.25 C8.01520386 -0.31960937 8.01520386 -0.31960937 9.79614258 -0.390625 C13 0 13 0 15.16577148 1.84301758 C17.01150025 4.45925593 18.48805502 7.17702165 20 10 C21.19472517 11.94479309 22.42164639 13.86709172 23.6496582 15.79101562 C28.53592236 23.46082932 33.23494484 31.25678537 38 39 C38.33 26.13 38.66 13.26 39 0 C43.29 0 47.58 0 52 0 C52 21.45 52 42.9 52 65 C47.71 65 43.42 65 39 65 C35.97269761 61.21587201 34.1696924 58.21468984 32 54 C30.04208806 51.0429006 27.93367655 48.19324682 25.84277344 45.3293457 C23 41.32108473 23 41.32108473 23 38 C22.34 38 21.68 38 21 38 C18.95830515 35.09451118 18 33.59857954 18 30 C17.34 30 16.68 30 16 30 C16 29.01 16 28.02 16 27 C15.34 27 14.68 27 14 27 C14 39.54 14 52.08 14 65 C9.71 65 5.42 65 1 65 C0 64 0 64 -0.12025452 61.45005798 C-0.11803391 60.31532547 -0.11581329 59.18059296 -0.11352539 58.01147461 C-0.11344986 56.73022202 -0.11337433 55.44896942 -0.11329651 54.12889099 C-0.10818909 52.72004152 -0.10297309 51.31119244 -0.09765625 49.90234375 C-0.09579202 48.46887766 -0.09436814 47.03541093 -0.09336853 45.60194397 C-0.08954372 41.82240043 -0.07971377 38.0428951 -0.06866455 34.2633667 C-0.05844963 30.40930702 -0.05387074 26.55524118 -0.04882812 22.70117188 C-0.03809146 15.13409713 -0.02101549 7.56705391 0 0 Z " fill="#143155" transform="translate(385,212)"/>
<path d="M0 0 C2.63310838 1.44869903 4.90522973 3.10633942 7.1015625 5.15625 C6.7715625 6.47625 6.4415625 7.79625 6.1015625 9.15625 C5.4415625 9.15625 4.7815625 9.15625 4.1015625 9.15625 C4.1015625 9.81625 4.1015625 10.47625 4.1015625 11.15625 C3.4415625 11.15625 2.7815625 11.15625 2.1015625 11.15625 C2.1015625 11.81625 2.1015625 12.47625 2.1015625 13.15625 C1.4415625 13.15625 0.7815625 13.15625 0.1015625 13.15625 C0.1015625 13.81625 0.1015625 14.47625 0.1015625 15.15625 C-2.3734375 14.16625 -2.3734375 14.16625 -4.8984375 13.15625 C-4.8984375 12.49625 -4.8984375 11.83625 -4.8984375 11.15625 C-8.95823522 10.17205661 -12.72543142 9.92441633 -16.8984375 10.15625 C-20.21304455 11.86517499 -20.21304455 11.86517499 -20.5859375 15.28125 C-20.6890625 16.23 -20.7921875 17.17875 -20.8984375 18.15625 C-20.2384375 18.15625 -19.5784375 18.15625 -18.8984375 18.15625 C-18.8984375 18.81625 -18.8984375 19.47625 -18.8984375 20.15625 C-18.19332031 20.27742188 -17.48820312 20.39859375 -16.76171875 20.5234375 C-7.91279033 22.47913519 0.04425002 26.33780926 6.1015625 33.15625 C8.76765963 37.37757046 8.7504422 42.29776326 8.1015625 47.15625 C6.24376713 53.05686144 3.16500734 56.71310751 -1.8984375 60.15625 C-9.38153867 63.17294178 -18.20975099 63.67674136 -25.921875 61.17578125 C-28.38104357 59.97573653 -30.62792243 58.68011492 -32.8984375 57.15625 C-33.9296875 56.475625 -34.9609375 55.795 -36.0234375 55.09375 C-37.8984375 53.15625 -37.8984375 53.15625 -37.8984375 49.15625 C-37.2384375 49.15625 -36.5784375 49.15625 -35.8984375 49.15625 C-35.8984375 48.49625 -35.8984375 47.83625 -35.8984375 47.15625 C-35.2384375 47.15625 -34.5784375 47.15625 -33.8984375 47.15625 C-33.2384375 45.83625 -32.5784375 44.51625 -31.8984375 43.15625 C-27.13228799 43.15625 -25.71243466 44.4783371 -21.8984375 47.15625 C-19.11242527 48.08492074 -17.28777661 48.31967217 -14.3984375 48.34375 C-13.23828125 48.36501953 -13.23828125 48.36501953 -12.0546875 48.38671875 C-9.60163694 48.29286528 -9.60163694 48.29286528 -6.8984375 46.15625 C-6.64827877 42.57267759 -6.64827877 42.57267759 -6.8984375 39.15625 C-9.73832984 38.00612085 -12.58724702 36.89841899 -15.45703125 35.82421875 C-16.7500803 35.33093961 -18.04304747 34.83744579 -19.3359375 34.34375 C-20.29983398 33.99086914 -20.29983398 33.99086914 -21.28320312 33.63085938 C-27.18712558 31.34721018 -31.51818647 28.47150979 -34.8359375 22.90625 C-36.47431712 17.1237337 -35.71475387 12.60519911 -33.8359375 6.96875 C-25.90506085 -4.54381288 -12.08983014 -5.51327759 0 0 Z " fill="#09294E" transform="translate(227.8984375,214.84375)"/>
<path d="M0 0 C0.639375 0.474375 1.27875 0.94875 1.9375 1.4375 C1.9375 2.0975 1.9375 2.7575 1.9375 3.4375 C2.5975 3.4375 3.2575 3.4375 3.9375 3.4375 C4.75863177 4.82827301 5.56902495 6.22538893 6.375 7.625 C6.82746094 8.40230469 7.27992188 9.17960938 7.74609375 9.98046875 C10.74619641 16.1675657 10.66252701 22.665826 8.5625 29.125 C7.54598805 32.01538498 6.34919882 34.71844532 4.9375 37.4375 C4.2775 37.4375 3.6175 37.4375 2.9375 37.4375 C2.9375 38.0975 2.9375 38.7575 2.9375 39.4375 C2.2775 39.4375 1.6175 39.4375 0.9375 39.4375 C0.9375 40.0975 0.9375 40.7575 0.9375 41.4375 C-0.0525 41.4375 -1.0425 41.4375 -2.0625 41.4375 C-2.0625 42.0975 -2.0625 42.7575 -2.0625 43.4375 C-9.76232445 46.39897094 -19.82847091 47.36473642 -27.5625 43.9375 C-33.3122223 40.40983195 -38.1148347 34.91741016 -40.0625 28.4375 C-40.27697731 25.74399927 -40.38748534 23.18934159 -40.375 20.5 C-40.39111328 19.80970703 -40.40722656 19.11941406 -40.42382812 18.40820312 C-40.42928607 12.65007119 -39.03107675 8.78189594 -35.34375 4.390625 C-34.7559375 3.82859375 -34.168125 3.2665625 -33.5625 2.6875 C-32.9746875 2.11515625 -32.386875 1.5428125 -31.78125 0.953125 C-22.36274866 -7.35228072 -10.30879103 -5.25958726 0 0 Z M-23.0625 10.4375 C-23.3925 11.4275 -23.7225 12.4175 -24.0625 13.4375 C-24.7225 13.4375 -25.3825 13.4375 -26.0625 13.4375 C-27.15665509 19.98924795 -27.69820181 24.69074553 -24.0625 30.4375 C-20.70939195 32.93283622 -18.0999827 33.68504613 -14 33.4375 C-9.80396387 32.73012226 -7.76289208 30.71070252 -5.0625 27.4375 C-4.7325 27.1075 -4.4025 26.7775 -4.0625 26.4375 C-3.93701011 24.48219236 -3.88674637 22.52179521 -3.875 20.5625 C-3.86082031 19.49257812 -3.84664063 18.42265625 -3.83203125 17.3203125 C-3.8430222 14.23953566 -3.8430222 14.23953566 -6.0625 11.4375 C-6.7225 11.4375 -7.3825 11.4375 -8.0625 11.4375 C-8.0625 10.7775 -8.0625 10.1175 -8.0625 9.4375 C-13.96813727 6.81277232 -17.49688433 7.0981306 -23.0625 10.4375 Z " fill="#183455" transform="translate(280.0625,231.5625)"/>
<path d="M0 0 C4.34516701 3.49502563 6.61403557 6.34129291 7.3671875 11.86328125 C7.44858604 14.44230205 7.48395936 16.99246538 7.46484375 19.5703125 C7.4634288 20.29570724 7.46201385 21.02110199 7.46055603 21.76847839 C7.45498681 24.07095575 7.44244011 26.3733336 7.4296875 28.67578125 C7.42466852 30.24283713 7.42010631 31.80989455 7.41601562 33.37695312 C7.40502748 37.20576714 7.38778423 41.03450736 7.3671875 44.86328125 C3.0771875 44.86328125 -1.2128125 44.86328125 -5.6328125 44.86328125 C-5.9628125 43.87328125 -6.2928125 42.88328125 -6.6328125 41.86328125 C-7.3546875 42.52328125 -8.0765625 43.18328125 -8.8203125 43.86328125 C-13.72129038 47.17761161 -19.98130584 46.49122643 -25.6328125 45.86328125 C-28.03125 44.83984375 -28.03125 44.83984375 -29.6328125 43.86328125 C-29.6328125 43.20328125 -29.6328125 42.54328125 -29.6328125 41.86328125 C-30.2928125 41.86328125 -30.9528125 41.86328125 -31.6328125 41.86328125 C-35.20847797 37.875039 -35.13830247 33.62215299 -34.98046875 28.5234375 C-34.48187575 24.70836075 -33.27012443 22.63939907 -30.6328125 19.86328125 C-25.3467397 16.42896543 -20.83377589 16.49734558 -14.7578125 16.67578125 C-13.87867188 16.68931641 -12.99953125 16.70285156 -12.09375 16.71679688 C-9.93983698 16.75191502 -7.78624246 16.80571431 -5.6328125 16.86328125 C-6.73067675 11.4554074 -6.73067675 11.4554074 -10.6328125 7.86328125 C-12.59927222 7.79931123 -12.59927222 7.79931123 -14.6328125 8.17578125 C-15.3134375 8.27503906 -15.9940625 8.37429687 -16.6953125 8.4765625 C-18.83727565 8.8623137 -18.83727565 8.8623137 -21.6328125 9.86328125 C-21.9628125 10.85328125 -22.2928125 11.84328125 -22.6328125 12.86328125 C-27.14759648 12.33213019 -29.97948107 10.49707833 -33.6328125 7.86328125 C-25.02987098 -2.60363093 -12.89480353 -8.97700437 0 0 Z M-21.6328125 26.86328125 C-21.79962359 29.77980299 -21.79962359 29.77980299 -21.6328125 32.86328125 C-19.84623493 35.07698176 -19.84623493 35.07698176 -17.46875 35.05859375 C-16.65664063 35.03539062 -15.84453125 35.0121875 -15.0078125 34.98828125 C-14.19054687 34.97023438 -13.37328125 34.9521875 -12.53125 34.93359375 C-11.90476562 34.91039062 -11.27828125 34.8871875 -10.6328125 34.86328125 C-10.6328125 34.20328125 -10.6328125 33.54328125 -10.6328125 32.86328125 C-9.6428125 32.53328125 -8.6528125 32.20328125 -7.6328125 31.86328125 C-5.98461055 29.26085711 -5.6328125 28.00079346 -5.6328125 24.86328125 C-7.54916467 24.80904487 -9.46596175 24.77038162 -11.3828125 24.73828125 C-12.45015625 24.71507812 -13.5175 24.691875 -14.6171875 24.66796875 C-17.55751356 24.85840438 -19.15643128 25.33658021 -21.6328125 26.86328125 Z " fill="#163559" transform="translate(327.6328125,231.13671875)"/>
<path d="M0 0 C4.29 0 8.58 0 13 0 C16.1060303 3.56961691 17.93647943 5.96819827 20 10 C20.99 11.485 20.99 11.485 22 13 C22 14.32 22 15.64 22 17 C20.68 16.67 19.36 16.34 18 16 C18.33 18.31 18.66 20.62 19 23 C17.0625 23.5625 17.0625 23.5625 15 24 C14.67 23.67 14.34 23.34 14 23 C13.67 36.53 13.34 50.06 13 64 C8.71 64 4.42 64 0 64 C0 42.88 0 21.76 0 0 Z " fill="#0F2E51" transform="translate(385,212)"/>
<path d="M0 0 C4.62 0 9.24 0 14 0 C14 21.45 14 42.9 14 65 C9.71 65 5.42 65 1 65 C-0.09836714 43.32686266 -0.10868694 21.69391336 0 0 Z " fill="#06274E" transform="translate(342,212)"/>
<path d="M0 0 C4.29 0 8.58 0 13 0 C13 21.45 13 42.9 13 65 C9.04 65 5.08 65 1 65 C0 64 0 64 -0.12025452 61.45005798 C-0.11803391 60.31532547 -0.11581329 59.18059296 -0.11352539 58.01147461 C-0.11344986 56.73022202 -0.11337433 55.44896942 -0.11329651 54.12889099 C-0.10818909 52.72004152 -0.10297309 51.31119244 -0.09765625 49.90234375 C-0.09579202 48.46887766 -0.09436814 47.03541093 -0.09336853 45.60194397 C-0.08954372 41.82240043 -0.07971377 38.0428951 -0.06866455 34.2633667 C-0.05844963 30.40930702 -0.05387074 26.55524118 -0.04882812 22.70117188 C-0.03809145 15.13409512 -0.02049497 7.56705777 0 0 Z " fill="#143458" transform="translate(364,212)"/>
<path d="M0 0 C0.495 1.485 0.495 1.485 1 3 C0.01 3.33 -0.98 3.66 -2 4 C-2.309375 4.61875 -2.61875 5.2375 -2.9375 5.875 C-4.20298687 8.40597375 -5.67272837 9.44848558 -8 11 C-7.01 10.67 -6.02 10.34 -5 10 C-4 13 -4 13 -5 16 C-4.34 16 -3.68 16 -3 16 C-2.67 14.68 -2.34 13.36 -2 12 C-0.5199159 12.11362262 0.95910074 12.24122908 2.4375 12.375 C3.26121094 12.44460937 4.08492187 12.51421875 4.93359375 12.5859375 C5.95646484 12.79089844 5.95646484 12.79089844 7 13 C8.65497356 16.30994713 8.10084335 19.99123 8.0625 23.625 C8.05798828 24.42679688 8.05347656 25.22859375 8.04882812 26.0546875 C8.03703168 28.03649006 8.01909605 30.01825433 8 32 C7.34 32 6.68 32 6 32 C5.67 26.72 5.34 21.44 5 16 C3.02 16 1.04 16 -1 16 C-3.26877535 18.41880929 -3.26877535 18.41880929 -5 21 C-5.66 21 -6.32 21 -7 21 C-7.23847656 21.5671875 -7.47695312 22.134375 -7.72265625 22.71875 C-9.26968523 25.48163967 -11.15418215 27.31041441 -13.4375 29.5 C-15.71199133 31.68830797 -17.80188771 33.72777041 -19.66015625 36.28125 C-20.10230469 36.8484375 -20.54445313 37.415625 -21 38 C-21.66 38 -22.32 38 -23 38 C-23.66 39.32 -24.32 40.64 -25 42 C-30.29450514 42.45059618 -33.30581622 41.11096216 -37.875 38.5 C-38.46796875 38.16613281 -39.0609375 37.83226562 -39.671875 37.48828125 C-41.12104717 36.67020018 -42.56146981 35.83665257 -44 35 C-43.67 33.35 -43.34 31.7 -43 30 C-42.34773438 30.13277344 -41.69546875 30.26554687 -41.0234375 30.40234375 C-40.14945312 30.57894531 -39.27546875 30.75554687 -38.375 30.9375 C-37.08722656 31.19853516 -37.08722656 31.19853516 -35.7734375 31.46484375 C-34.40058594 31.72974609 -34.40058594 31.72974609 -33 32 C-32.01902344 32.30679688 -31.03804687 32.61359375 -30.02734375 32.9296875 C-26.74758233 33.33742002 -26.74758233 33.33742002 -24.04296875 30.54296875 C-23.07144156 29.44155115 -22.12002154 28.32213183 -21.1875 27.1875 C-20.69830078 26.62740234 -20.20910156 26.06730469 -19.70507812 25.49023438 C-17.91063864 23.41285422 -16.23254025 21.46508049 -15 19 C-20.95608507 17.09912179 -26.78169582 15.5648057 -32.96875 14.625 C-35 14 -35 14 -37 11 C-37.5 8.625 -37.5 8.625 -37 6 C-34.23381214 2.54226517 -32.59230675 1.25869409 -28.2109375 0.546875 C-21.42041701 0.30619832 -16.71633986 1.44027927 -11 5 C-8.15589684 6.59474807 -8.15589684 6.59474807 -5 7 C-5 6.34 -5 5.68 -5 5 C-4.34 5 -3.68 5 -3 5 C-3 4.34 -3 3.68 -3 3 C-2.34 3 -1.68 3 -1 3 C-0.67 2.01 -0.34 1.02 0 0 Z " fill="#0E2543" transform="translate(137,224)"/>
<path d="M0 0 C0.33 0.99 0.66 1.98 1 3 C0.01 3.33 -0.98 3.66 -2 4 C-2.33 5.65 -2.66 7.3 -3 9 C0.16666667 7.16666667 0.16666667 7.16666667 2 4 C2.33 6.31 2.66 8.62 3 11 C3.66 11 4.32 11 5 11 C5.33 11.99 5.66 12.98 6 14 C6.7425 14.12375 7.485 14.2475 8.25 14.375 C10.80141485 14.95486701 12.7267573 15.73708739 15 17 C15 17.66 15 18.32 15 19 C15.99 19 16.98 19 18 19 C18 19.66 18 20.32 18 21 C19.0725 20.505 20.145 20.01 21.25 19.5 C24.25416808 18.11346089 25.45934895 18 29 18 C29.33 17.34 29.66 16.68 30 16 C31.32 16.66 32.64 17.32 34 18 C34 17.34 34 16.68 34 16 C34.66 16 35.32 16 36 16 C36.33 15.01 36.66 14.02 37 13 C37 13.66 37 14.32 37 15 C37.66 15 38.32 15 39 15 C39.33 14.34 39.66 13.68 40 13 C40.495 13.495 40.495 13.495 41 14 C41.33 12.68 41.66 11.36 42 10 C42.66 10 43.32 10 44 10 C44 11.98 44 13.96 44 16 C45.32 15.67 46.64 15.34 48 15 C47.505 17.475 47.505 17.475 47 20 C45.02 19.67 43.04 19.34 41 19 C38.90493748 22.44708859 38.90493748 22.44708859 37 26 C32.51877172 29.6021697 28.45775535 29.39548597 22.98046875 29.29296875 C22.12189774 29.28872391 21.26332672 29.28447906 20.3787384 29.28010559 C17.64800086 29.26336995 14.91801288 29.22572766 12.1875 29.1875 C10.3313909 29.17244653 8.47527018 29.15875928 6.61914062 29.14648438 C2.07890897 29.11604026 -2.45971074 29.0573108 -7 29 C-7 20.09 -7 11.18 -7 2 C-4.69 1.34 -2.38 0.68 0 0 Z " fill="#FC8015" transform="translate(88,248)"/>
<path d="M0 0 C0.7578125 2.109375 0.7578125 2.109375 1 4 C1.99 4 2.98 4 4 4 C4.625 6.375 4.625 6.375 5 9 C4.34 9.66 3.68 10.32 3 11 C3 11.99 3 12.98 3 14 C1.68 14 0.36 14 -1 14 C-1 13.34 -1 12.68 -1 12 C-2.99866686 11.65876419 -4.99902542 11.3274322 -7 11 C-8.155 10.7525 -9.31 10.505 -10.5 10.25 C-14.63349096 9.95475065 -16.54979766 10.78201278 -20 13 C-20.33 13.66 -20.66 14.32 -21 15 C-21.66 15 -22.32 15 -23 15 C-23.16751968 18.12495489 -23.33387058 21.24997092 -23.5 24.375 C-23.54769531 25.26445312 -23.59539062 26.15390625 -23.64453125 27.0703125 C-23.68964844 27.92109375 -23.73476562 28.771875 -23.78125 29.6484375 C-23.82314453 30.43395996 -23.86503906 31.21948242 -23.90820312 32.02880859 C-23.96979795 33.35145924 -24 34.67591592 -24 36 C-26.8125 36.625 -26.8125 36.625 -30 37 C-30.99 36.34 -31.98 35.68 -33 35 C-32.690625 34.319375 -32.38125 33.63875 -32.0625 32.9375 C-30.86629351 29.63034088 -30.40994603 26.48454122 -30 23 C-32.11785113 21.88214887 -32.11785113 21.88214887 -35 21 C-34.79375 21.61875 -34.5875 22.2375 -34.375 22.875 C-34.25125 23.57625 -34.1275 24.2775 -34 25 C-34.66 25.66 -35.32 26.32 -36 27 C-36.08139142 24.60347472 -36.14067009 22.20974564 -36.1875 19.8125 C-36.22520508 18.80219727 -36.22520508 18.80219727 -36.26367188 17.77148438 C-36.34907985 11.93527284 -34.87368879 9.05107944 -31.01953125 4.83203125 C-22.32119353 -3.12733265 -10.94630734 -6.29530121 0 0 Z " fill="#07264B" transform="translate(277,230)"/>
<path d="M0 0 C0.33 0 0.66 0 1 0 C1 14.19 1 28.38 1 43 C7.55875 42.87625 14.1175 42.7525 20.875 42.625 C23.98010986 42.57400146 23.98010986 42.57400146 27.14794922 42.52197266 C28.78354548 42.48677648 30.4191264 42.45085632 32.0546875 42.4140625 C33.33484741 42.39702271 33.33484741 42.39702271 34.64086914 42.37963867 C39.30199496 42.47742853 39.30199496 42.47742853 43 40 C43.99 40 44.98 40 46 40 C46.2475 39.05125 46.495 38.1025 46.75 37.125 C48 34 48 34 49.875 32.5 C52 32 52 32 54.25 32.875 C54.8275 33.24625 55.405 33.6175 56 34 C55.505 32.02 55.505 32.02 55 30 C54.34 30 53.68 30 53 30 C53 28.02 53 26.04 53 24 C52.34 24 51.68 24 51 24 C50.505 26.475 50.505 26.475 50 29 C47.69 29.33 45.38 29.66 43 30 C43 30.66 43 31.32 43 32 C42.4225 31.79503906 41.845 31.59007812 41.25 31.37890625 C38.42704805 30.9035133 37.4435145 31.52007069 35 32.9375 C31.81246812 34.77406622 30.92800838 35 27 35 C27 34.34 27 33.68 27 33 C26.01 33 25.02 33 24 33 C24 32.34 24 31.68 24 31 C20.3791799 29.98617037 16.72188582 29.50102309 13 29 C13.33 27.68 13.66 26.36 14 25 C17.81503777 26.43063917 21.29689757 28.20195059 24.83984375 30.1953125 C27.79269026 31.29528787 29.87146237 31.41282127 33 31 C35.38848638 29.12046477 35.38848638 29.12046477 37.375 26.5 C40.89562418 22.29911962 44.53252799 18.40501259 48.46875 14.59375 C50.09346614 13.06072994 50.09346614 13.06072994 51 11 C51.66 11 52.32 11 53 11 C53.433125 10.071875 53.433125 10.071875 53.875 9.125 C55 7 55 7 57 5 C60.0625 4.8125 60.0625 4.8125 63 5 C65.21451627 7.21451627 64.30901128 12.56561193 64.32128906 15.6340332 C64.19957499 23.0248735 62.11006581 28.42911941 58.375 34.75 C52.5431891 40.27487348 45.80569541 44.13796896 37.69042969 44.11352539 C36.83819824 44.11340454 35.9859668 44.11328369 35.10791016 44.11315918 C34.22151855 44.10804321 33.33512695 44.10292725 32.421875 44.09765625 C31.60025879 44.09664917 30.77864258 44.09564209 29.93212891 44.09460449 C26.87140501 44.08938382 23.81070106 44.07542255 20.75 44.0625 C10.47875 44.0315625 10.47875 44.0315625 0 44 C0 29.48 0 14.96 0 0 Z " fill="#EA8125" transform="translate(79,234)"/>
<path d="M0 0 C1.180933 3.542799 1.27028374 6.28359861 1 10 C0.01 10.66 -0.98 11.32 -2 12 C-2.25030977 14.58380177 -2.25030977 14.58380177 -2 17 C0.16666667 16.16666667 0.16666667 16.16666667 1 14 C1.66 14 2.32 14 3 14 C3 13.01 3 12.02 3 11 C4.32 10.67 5.64 10.34 7 10 C7.33 10.99 7.66 11.98 8 13 C8.33 10.69 8.66 8.38 9 6 C9.99 6.33 10.98 6.66 12 7 C11.34 9.64 10.68 12.28 10 15 C10.66 15 11.32 15 12 15 C12 15.66 12 16.32 12 17 C13.04607422 17.17208984 13.04607422 17.17208984 14.11328125 17.34765625 C17.31981182 18.07227141 20.15610951 19.16845827 23.1875 20.4375 C24.23292969 20.86933594 25.27835938 21.30117187 26.35546875 21.74609375 C29 23 29 23 31 25 C30.01 25.33 29.02 25.66 28 26 C27.505 24.515 27.505 24.515 27 23 C23.22730267 24.25756578 22.11611635 25.67467431 20 29 C20.33468905 31.63336897 20.33468905 31.63336897 21 34 C1.78243311 28.97072186 1.78243311 28.97072186 -3 21 C-5.6880681 16.39188326 -5.10720708 12.04000661 -4 7 C-1.75 1.75 -1.75 1.75 0 0 Z " fill="#133055" transform="translate(197,218)"/>
<path d="M0 0 C1.46621973 1.21271445 2.88591408 2.48122881 4.296875 3.7578125 C3.966875 4.4178125 3.636875 5.0778125 3.296875 5.7578125 C1.63020833 5.7578125 -0.03645833 5.7578125 -1.703125 5.7578125 C-2.693125 6.4178125 -3.683125 7.0778125 -4.703125 7.7578125 C-5.363125 7.7578125 -6.023125 7.7578125 -6.703125 7.7578125 C-7.033125 8.4178125 -7.363125 9.0778125 -7.703125 9.7578125 C-8.693125 9.0978125 -9.683125 8.4378125 -10.703125 7.7578125 C-12.66958472 7.69384248 -12.66958472 7.69384248 -14.703125 8.0703125 C-15.38375 8.16957031 -16.064375 8.26882812 -16.765625 8.37109375 C-18.90758815 8.75684495 -18.90758815 8.75684495 -21.703125 9.7578125 C-22.033125 10.7478125 -22.363125 11.7378125 -22.703125 12.7578125 C-27.21790898 12.22666144 -30.04979357 10.39160958 -33.703125 7.7578125 C-25.1727589 -2.62079958 -12.73097666 -9.28543711 0 0 Z " fill="#203A5A" transform="translate(327.703125,231.2421875)"/>
<path d="M0 0 C0.33 0 0.66 0 1 0 C1.33 2.31 1.66 4.62 2 7 C2.99 6.67 3.98 6.34 5 6 C7.45416273 9.6812441 7.59384154 12.72261963 7 17 C5.5 19.5 5.5 19.5 4 21 C6.475 21.99 6.475 21.99 9 23 C9.33 22.34 9.66 21.68 10 21 C10.99 21.33 11.98 21.66 13 22 C12.814375 20.9275 12.62875 19.855 12.4375 18.75 C12.0695432 15.59608454 11.95534657 13.90181508 13 11 C14.20628008 13.33214148 15.1654738 15.49642139 16 18 C21.3212692 20.728856 26.30541885 19.83280436 32 19 C31.51917969 19.42925781 31.03835938 19.85851562 30.54296875 20.30078125 C28.39027388 22.67147053 28.34632247 24.88309778 28 28 C26.35 28.33 24.7 28.66 23 29 C23.33 29.66 23.66 30.32 24 31 C25.89533342 31.46523063 25.89533342 31.46523063 28.0625 31.625 C29.361875 31.74875 30.66125 31.8725 32 32 C32 32.33 32 32.66 32 33 C14.86043639 33.80341704 14.86043639 33.80341704 9 29 C3.66012502 23.90478065 0.17567955 19.58737649 -0.1953125 12.01171875 C-0.18214778 10.57018208 -0.15848651 9.12870781 -0.125 7.6875 C-0.11597656 6.94693359 -0.10695312 6.20636719 -0.09765625 5.44335938 C-0.07424213 3.62876533 -0.03837615 1.81433929 0 0 Z " fill="#153355" transform="translate(240,244)"/>
<path d="M0 0 C1.96690292 0.95967571 3.88491968 1.92977281 5.75390625 3.0703125 C11.47293063 6.40538072 16.49141215 6.43071537 23 6 C22.67 6.66 22.34 7.32 22 8 C21.01 8.33 20.02 8.66 19 9 C18.20046862 12.28696233 17.90341064 13.71023192 19 17 C14.05 17.495 14.05 17.495 9 18 C15.93 18.495 15.93 18.495 23 19 C23 19.33 23 19.66 23 20 C13.46431232 20.57214126 6.16017062 20.4767299 -2 15 C-3.03125 14.319375 -4.0625 13.63875 -5.125 12.9375 C-7 11 -7 11 -7 7 C-6.34 7 -5.68 7 -5 7 C-5 6.34 -5 5.68 -5 5 C-4.34 5 -3.68 5 -3 5 C-2.690625 4.360625 -2.38125 3.72125 -2.0625 3.0625 C-1 1 -1 1 0 0 Z " fill="#1B385B" transform="translate(197,257)"/>
<path d="M0 0 C0.66 0.33 1.32 0.66 2 1 C2 1.66 2 2.32 2 3 C2.66 3.33 3.32 3.66 4 4 C3.34 4.66 2.68 5.32 2 6 C2.50144531 6.46148437 3.00289062 6.92296875 3.51953125 7.3984375 C5.80122862 11.40796375 5.06640112 15.13183629 4.6875 19.625 C4.62626953 20.49640625 4.56503906 21.3678125 4.50195312 22.265625 C4.3885953 23.87505692 4.26845296 25.48403532 4.1394043 27.09228516 C3.97570678 29.01364667 3.97570678 29.01364667 4 31 C1.1875 31.625 1.1875 31.625 -2 32 C-2.99 31.34 -3.98 30.68 -5 30 C-4.690625 29.319375 -4.38125 28.63875 -4.0625 27.9375 C-2.86629351 24.63034088 -2.40994603 21.48454122 -2 18 C-4.11785113 16.88214887 -4.11785113 16.88214887 -7 16 C-6.79375 16.61875 -6.5875 17.2375 -6.375 17.875 C-6.25125 18.57625 -6.1275 19.2775 -6 20 C-6.66 20.66 -7.32 21.32 -8 22 C-8.08126087 19.91731407 -8.13930839 17.83371342 -8.1875 15.75 C-8.22230469 14.58984375 -8.25710937 13.4296875 -8.29296875 12.234375 C-7.97678364 8.74369144 -7.42619644 7.46127398 -5 5 C-3.66666667 4.33333333 -2.33333333 3.66666667 -1 3 C-0.67 2.01 -0.34 1.02 0 0 Z " fill="#07274C" transform="translate(249,235)"/>
<path d="M0 0 C4.62 0 9.24 0 14 0 C14 21.45 14 42.9 14 65 C9.71 65 5.42 65 1 65 C1 58.4 1 51.8 1 45 C1.33 45 1.66 45 2 45 C2 50.61 2 56.22 2 62 C6.455 61.505 6.455 61.505 11 61 C11 42.19 11 23.38 11 4 C8.69 3.67 6.38 3.34 4 3 C3.67 5.97 3.34 8.94 3 12 C2.34 12 1.68 12 1 12 C0.67 8.04 0.34 4.08 0 0 Z " fill="#3F5062" transform="translate(342,212)"/>
<path d="M0 0 C3.96 0 7.92 0 12 0 C12 21.12 12 42.24 12 64 C8.37 63.67 4.74 63.34 1 63 C1 62.34 1 61.68 1 61 C3.64 60.67 6.28 60.34 9 60 C9.33 40.86 9.66 21.72 10 2 C7.36 2 4.72 2 2 2 C1.67 18.5 1.34 35 1 52 C0.67 52 0.34 52 0 52 C0 34.84 0 17.68 0 0 Z " fill="#091C33" transform="translate(365,213)"/>
<path d="M0 0 C2 2 2 2 2 5 C2.66 5 3.32 5 4 5 C4.33 4.01 4.66 3.02 5 2 C5.99 2.33 6.98 2.66 8 3 C7.67 3.66 7.34 4.32 7 5 C6.71125 6.175625 6.4225 7.35125 6.125 8.5625 C5.75375 9.696875 5.3825 10.83125 5 12 C4.01 12.33 3.02 12.66 2 13 C1.525625 13.99 1.05125 14.98 0.5625 16 C-1 19 -1 19 -2.76953125 19.68359375 C-5.29410638 20.04172087 -7.70058507 20.09604493 -10.25 20.0625 C-11.14203125 20.05347656 -12.0340625 20.04445313 -12.953125 20.03515625 C-13.62859375 20.02355469 -14.3040625 20.01195312 -15 20 C-15.33 19.01 -15.66 18.02 -16 17 C-14.35 16.67 -12.7 16.34 -11 16 C-11 13.69 -11 11.38 -11 9 C-8.35261084 7.5393715 -7.10551666 7 -4 7 C-4 6.34 -4 5.68 -4 5 C-3.02149805 3.97895449 -2.02019573 2.9793879 -1 2 C-0.67 1.34 -0.34 0.68 0 0 Z " fill="#07264C" transform="translate(279,256)"/>
<path d="M0 0 C3.78699616 3.36621881 6.8272631 7.41641804 9 12 C8.67 12.66 8.34 13.32 8 14 C7.01 14 6.02 14 5 14 C5 14.99 5 15.98 5 17 C4.34 17 3.68 17 3 17 C2.67 15.68 2.34 14.36 2 13 C1.34 13 0.68 13 0 13 C0 13.99 0 14.98 0 16 C-0.66 16.33 -1.32 16.66 -2 17 C-2.33 17.66 -2.66 18.32 -3 19 C-3.33 17.68 -3.66 16.36 -4 15 C-4.66 15 -5.32 15 -6 15 C-6 14.01 -6 13.02 -6 12 C-6.66 12 -7.32 12 -8 12 C-8 24.54 -8 37.08 -8 50 C-12.29 50 -16.58 50 -21 50 C-21 49.67 -21 49.34 -21 49 C-17.04 49 -13.08 49 -9 49 C-9 35.47 -9 21.94 -9 8 C-7.35 7.67 -5.7 7.34 -4 7 C-4.185625 6.38125 -4.37125 5.7625 -4.5625 5.125 C-5 3 -5 3 -4 1 C-2.68 1.33 -1.36 1.66 0 2 C0 1.34 0 0.68 0 0 Z " fill="#465C78" transform="translate(407,227)"/>
<path d="M0 0 C1.58116025 3.1623205 1.12937122 6.55841707 1.11352539 10.02978516 C1.11367142 10.85913071 1.11381744 11.68847626 1.1139679 12.54295349 C1.11326971 15.29168285 1.10548171 18.04034494 1.09765625 20.7890625 C1.09579174 22.69192467 1.09436799 24.59478732 1.09336853 26.49765015 C1.08954599 31.51181356 1.07971793 36.52594811 1.06866455 41.5401001 C1.05844479 46.65433359 1.0538697 51.76857174 1.04882812 56.8828125 C1.03809545 66.92188769 1.02102216 76.96094145 1 87 C0.01 87 -0.98 87 -2 87 C-2 58.62 -2 30.24 -2 1 C-1.34 0.67 -0.68 0.34 0 0 Z " fill="#2F425A" transform="translate(57,200)"/>
<path d="M0 0 C0.763125 0.20625 1.52625 0.4125 2.3125 0.625 C2.456875 1.57375 2.60125 2.5225 2.75 3.5 C3.14185399 6.5184494 3.14185399 6.5184494 4.3125 8.625 C3.63630448 13.9500397 3.63630448 13.9500397 2.3125 16.625 C0.00143536 18.24913529 -1.93127988 18.80834219 -4.6875 19.625 C-6.64362508 17.99919684 -7.59956027 17.12143394 -8.05078125 14.57421875 C-7.94639192 9.92487851 -7.67810342 5.92051264 -5.6875 1.625 C-2.6875 -0.375 -2.6875 -0.375 0 0 Z " fill="#0B2A4D" transform="translate(301.6875,250.375)"/>
<path d="M0 0 C1.60746056 0.42523816 3.21089836 0.86570126 4.8125 1.3125 C5.70582031 1.55613281 6.59914062 1.79976562 7.51953125 2.05078125 C10.05247738 3.0200819 11.2716496 3.95009604 13 6 C12.01 6.33 11.02 6.66 10 7 C9.67 6.01 9.34 5.02 9 4 C5.22730267 5.25756578 4.11611635 6.67467431 2 10 C2.33468905 12.63336897 2.33468905 12.63336897 3 15 C-4.59905496 13.01131115 -13.31023246 10.68976754 -19 5 C-19 4.01 -19 3.02 -19 2 C-18.34 2 -17.68 2 -17 2 C-16.1028125 2.9590625 -16.1028125 2.9590625 -15.1875 3.9375 C-12.73299819 6.25174456 -11.29476739 6.63391473 -8 7 C-7.608125 6.34 -7.21625 5.68 -6.8125 5 C-5 3 -5 3 -2.3125 2.75 C-1.549375 2.8325 -0.78625 2.915 0 3 C0 2.01 0 1.02 0 0 Z " fill="#0F2D52" transform="translate(215,237)"/>
<path d="M0 0 C0.66 0.99 1.32 1.98 2 3 C1.34 3 0.68 3 0 3 C0 5.97 0 8.94 0 12 C5.05009595 12.93786082 5.05009595 12.93786082 10 12 C10.33 9.36 10.66 6.72 11 4 C11.33 4 11.66 4 12 4 C12.66 5.98 13.32 7.96 14 10 C16.97 10.33 19.94 10.66 23 11 C23 10.34 23 9.68 23 9 C23.99 8.67 24.98 8.34 26 8 C26 8.66 26 9.32 26 10 C25.34 10 24.68 10 24 10 C24 10.66 24 11.32 24 12 C20.37 12 16.74 12 13 12 C13 12.66 13 13.32 13 14 C12.34 14 11.68 14 11 14 C11.33 15.98 11.66 17.96 12 20 C14.97 20.33 17.94 20.66 21 21 C21 21.33 21 21.66 21 22 C18.91695462 22.05418326 16.83350232 22.09287551 14.75 22.125 C13.58984375 22.14820313 12.4296875 22.17140625 11.234375 22.1953125 C8.17213954 22.0103949 6.55797249 21.60823023 4 20 C4 19.34 4 18.68 4 18 C3.34 18 2.68 18 2 18 C-1.67834162 13.89723435 -1.28764135 9.63057959 -1.203125 4.42578125 C-1 2 -1 2 0 0 Z " fill="#2E4762" transform="translate(294,255)"/>
<path d="M0 0 C0.66 0 1.32 0 2 0 C2 1.32 2 2.64 2 4 C2.61875 4.0825 3.2375 4.165 3.875 4.25 C6 5 6 5 7.25 7.0625 C7.4975 7.701875 7.745 8.34125 8 9 C2.90520874 12.39652751 -0.00598998 13.31426005 -6.0625 13.25 C-6.79533203 13.25773437 -7.52816406 13.26546875 -8.28320312 13.2734375 C-13.74663018 13.25336982 -13.74663018 13.25336982 -16 11 C-13.02148438 11.04882812 -13.02148438 11.04882812 -10.04296875 11.09765625 C-7.79694539 11.08263217 -7.79694539 11.08263217 -5 10 C-5.33 9.01 -5.66 8.02 -6 7 C-6 6.01 -6 5.02 -6 4 C-6.66 3.34 -7.32 2.68 -8 2 C-6.2984375 1.7834375 -6.2984375 1.7834375 -4.5625 1.5625 C-1.19222799 1.38828522 -1.19222799 1.38828522 0 0 Z " fill="#062347" transform="translate(220,263)"/>
<path d="M0 0 C0.33 0.99 0.66 1.98 1 3 C0.34 3 -0.32 3 -1 3 C-0.67 4.98 -0.34 6.96 0 9 C-1.65 9.33 -3.3 9.66 -5 10 C-5 10.99 -5 11.98 -5 13 C-8.96 13 -12.92 13 -17 13 C-16.34 12.34 -15.68 11.68 -15 11 C-15.33 10.34 -15.66 9.68 -16 9 C-15.67 8.01 -15.34 7.02 -15 6 C-14.34 6 -13.68 6 -13 6 C-13 5.34 -13 4.68 -13 4 C-9.37 4 -5.74 4 -2 4 C-2 3.34 -2 2.68 -2 2 C-1.34 2 -0.68 2 0 2 C0 1.34 0 0.68 0 0 Z " fill="#041F3F" transform="translate(320,263)"/>
<path d="M0 0 C0 0.66 0 1.32 0 2 C-1.32 2 -2.64 2 -4 2 C-4 2.66 -4 3.32 -4 4 C-5.65 4 -7.3 4 -9 4 C-10.20628008 6.33214148 -11.1654738 8.49642139 -12 11 C-11.01 10.67 -10.02 10.34 -9 10 C-7.44146733 9.78196693 -5.87817349 9.59633644 -4.3125 9.4375 C-3.10013672 9.31181641 -3.10013672 9.31181641 -1.86328125 9.18359375 C-1.24839844 9.12300781 -0.63351562 9.06242188 0 9 C-3.75 12 -3.75 12 -6 12 C-6.33 12.99 -6.66 13.98 -7 15 C-11.51478398 14.46884894 -14.34666857 12.63379708 -18 10 C-7.73684211 -2.48684211 -7.73684211 -2.48684211 0 0 Z " fill="#3D4E68" transform="translate(312,229)"/>
<path d="M0 0 C-0.66 0.66 -1.32 1.32 -2 2 C-2 1.34 -2 0.68 -2 0 C-3.2375 0.020625 -4.475 0.04125 -5.75 0.0625 C-8.6640825 0.06766681 -11.20953327 -0.06984442 -14 -1 C-14 -0.34 -14 0.32 -14 1 C-16.31 1 -18.62 1 -21 1 C-21.33 1.99 -21.66 2.98 -22 4 C-23.98 4.33 -25.96 4.66 -28 5 C-28.0825 5.61875 -28.165 6.2375 -28.25 6.875 C-29 9 -29 9 -30.875 10.0625 C-31.57625 10.371875 -32.2775 10.68125 -33 11 C-34.70921589 12.5412312 -34.70921589 12.5412312 -36 14 C-34.4631846 6.99895207 -29.77803245 2.85202163 -24 -1 C-15.14009539 -3.65797138 -8.61984936 -3.28375214 0 0 Z " fill="#46566D" transform="translate(277,230)"/>
<path d="M0 0 C0.625 2.375 0.625 2.375 1 5 C0.34 5.66 -0.32 6.32 -1 7 C-1 7.66 -1 8.32 -1 9 C-1.77085937 9.20496094 -2.54171875 9.40992188 -3.3359375 9.62109375 C-4.33882813 9.89050781 -5.34171875 10.15992188 -6.375 10.4375 C-7.37273437 10.70433594 -8.37046875 10.97117188 -9.3984375 11.24609375 C-11.95417701 11.90184356 -11.95417701 11.90184356 -14 13 C-14.66 12.67 -15.32 12.34 -16 12 C-15.38722388 9.03824877 -14.74627478 7.61941217 -13 5 C-10.375 4.8125 -10.375 4.8125 -8 5 C-7.896875 4.360625 -7.79375 3.72125 -7.6875 3.0625 C-7.460625 2.381875 -7.23375 1.70125 -7 1 C-4 0 -4 0 0 0 Z " fill="#032349" transform="translate(316,228)"/>
<path d="M0 0 C3.10367497 -0.14515677 6.20648027 -0.23400853 9.3125 -0.3125 C10.19357422 -0.35439453 11.07464844 -0.39628906 11.98242188 -0.43945312 C14.41443685 -0.48568915 16.61204331 -0.4672464 19 0 C21.94765532 3.17734274 22 4.62679597 22 9 C21.01 9.33 20.02 9.66 19 10 C19 8.68 19 7.36 19 6 C13.72 5.67 8.44 5.34 3 5 C2.67 4.01 2.34 3.02 2 2 C1.34 1.34 0.68 0.68 0 0 Z " fill="#022246" transform="translate(304,249)"/>
<path d="M0 0 C0.99 0 1.98 0 3 0 C3.33 0.99 3.66 1.98 4 3 C3.34 3 2.68 3 2 3 C2 4.65 2 6.3 2 8 C-5.92 8.495 -5.92 8.495 -14 9 C-14 9.99 -14 10.98 -14 12 C-13.09636719 12.06058594 -12.19273437 12.12117187 -11.26171875 12.18359375 C-10.08222656 12.26738281 -8.90273438 12.35117188 -7.6875 12.4375 C-6.51574219 12.51871094 -5.34398437 12.59992188 -4.13671875 12.68359375 C-1 13 -1 13 2 14 C2 15.32 2 16.64 2 18 C2.66 18.33 3.32 18.66 4 19 C2.68 19.33 1.36 19.66 0 20 C0.33 18.35 0.66 16.7 1 15 C-0.89611434 15.14213297 -2.79188394 15.28886907 -4.6875 15.4375 C-5.74324219 15.51871094 -6.79898437 15.59992188 -7.88671875 15.68359375 C-10.65086297 15.96451681 -13.28945741 16.40156852 -16 17 C-16.12375 16.360625 -16.2475 15.72125 -16.375 15.0625 C-16.58125 14.381875 -16.7875 13.70125 -17 13 C-17.66 12.67 -18.32 12.34 -19 12 C-18.34 12 -17.68 12 -17 12 C-17.99 10.68 -18.98 9.36 -20 8 C-17.65147472 6.82573736 -16.26225935 6.88491827 -13.6484375 6.90234375 C-12.37226563 6.90717773 -12.37226563 6.90717773 -11.0703125 6.91210938 C-10.18085938 6.92048828 -9.29140625 6.92886719 -8.375 6.9375 C-7.4778125 6.94201172 -6.580625 6.94652344 -5.65625 6.95117188 C-3.43743352 6.96297409 -1.21874982 6.97943845 1 7 C0.67 4.69 0.34 2.38 0 0 Z " fill="#263E5C" transform="translate(321,241)"/>
<path d="M0 0 C0.33 0 0.66 0 1 0 C1.33 2.31 1.66 4.62 2 7 C2.99 6.67 3.98 6.34 5 6 C7.45416273 9.6812441 7.59384154 12.72261963 7 17 C5.5 19.5 5.5 19.5 4 21 C5.175625 21.309375 5.175625 21.309375 6.375 21.625 C9 23 9 23 10.3125 26.125 C10.6528125 27.548125 10.6528125 27.548125 11 29 C6.15570547 27.20581684 3.20480032 23.3023239 0.859375 18.8203125 C-0.27618488 15.09361144 -0.21450782 11.53977871 -0.125 7.6875 C-0.11597656 6.94693359 -0.10695312 6.20636719 -0.09765625 5.44335938 C-0.07424213 3.62876533 -0.03837615 1.81433929 0 0 Z " fill="#324B69" transform="translate(240,244)"/>
<path d="M0 0 C0.65226562 0.13277344 1.30453125 0.26554688 1.9765625 0.40234375 C3.77897867 0.76654879 5.58241505 1.12573294 7.38671875 1.48046875 C9.40800502 1.88230892 11.42402395 2.31069613 13.4375 2.75 C16.24104365 3.29637779 16.24104365 3.29637779 19 1 C19 2.32 19 3.64 19 5 C15.7 5.33 12.4 5.66 9 6 C9 6.99 9 7.98 9 9 C13.455 9.99 13.455 9.99 18 11 C18 11.33 18 11.66 18 12 C12.70549486 12.45059618 9.69418378 11.11096216 5.125 8.5 C4.53203125 8.16613281 3.9390625 7.83226562 3.328125 7.48828125 C1.87895283 6.67020018 0.43853019 5.83665257 -1 5 C-0.67 3.35 -0.34 1.7 0 0 Z " fill="#1B2337" transform="translate(94,254)"/>
<path d="M0 0 C1.82875642 0.02010157 3.65753424 0.03834585 5.48632812 0.0546875 C9.92892185 0.09838017 14.37047004 0.16720354 18.8125 0.25 C18.89381463 1.68655854 18.95183559 3.1244483 19 4.5625 C19.05220703 5.76326172 19.05220703 5.76326172 19.10546875 6.98828125 C18.75051608 9.72851584 17.91883718 10.54171079 15.8125 12.25 C15.8125 10.27 15.8125 8.29 15.8125 6.25 C16.1425 6.25 16.4725 6.25 16.8125 6.25 C17.1425 4.6 17.4725 2.95 17.8125 1.25 C6.5925 1.25 -4.6275 1.25 -16.1875 1.25 C-16.1875 1.91 -16.1875 2.57 -16.1875 3.25 C-18.8275 3.25 -21.4675 3.25 -24.1875 3.25 C-24.1875 3.91 -24.1875 4.57 -24.1875 5.25 C-26.1675 5.25 -28.1475 5.25 -30.1875 5.25 C-30.1875 5.91 -30.1875 6.57 -30.1875 7.25 C-32.1675 7.91 -34.1475 8.57 -36.1875 9.25 C-27.2550188 -1.83859735 -12.85459214 -0.24686779 0 0 Z " fill="#BD7C38" transform="translate(125.1875,207.75)"/>
<path d="M0 0 C1.32 0.33 2.64 0.66 4 1 C4.33 2.65 4.66 4.3 5 6 C5.66 6 6.32 6 7 6 C7 5.01 7 4.02 7 3 C7.99 3 8.98 3 10 3 C8.52278578 6.45201639 6.56205999 8.64961936 3.875 11.25 C3.15054688 11.95640625 2.42609375 12.6628125 1.6796875 13.390625 C1.12539062 13.92171875 0.57109375 14.4528125 0 15 C-1.125 11.25 -1.125 11.25 0 9 C-1.32 10.32 -2.64 11.64 -4 13 C-4.99 12.67 -5.98 12.34 -7 12 C-4.03 8.37 -1.06 4.74 2 1 C1.34 0.67 0.68 0.34 0 0 Z " fill="#18233A" transform="translate(120,242)"/>
<path d="M0 0 C2.64 0.33 5.28 0.66 8 1 C8.625 3.375 8.625 3.375 9 6 C8.34 6.66 7.68 7.32 7 8 C7 8.99 7 9.98 7 11 C5.68 11 4.36 11 3 11 C3 10.34 3 9.68 3 9 C2.01 9 1.02 9 0 9 C0 8.01 0 7.02 0 6 C-0.66 5.67 -1.32 5.34 -2 5 C-2 4.01 -2 3.02 -2 2 C-1.34 2 -0.68 2 0 2 C0 1.34 0 0.68 0 0 Z " fill="#02244E" transform="translate(273,233)"/>
<path d="M0 0 C0.33 0.66 0.66 1.32 1 2 C0.06553465 4.03144641 -0.93224776 6.03533587 -2 8 C-1.34 8.33 -0.68 8.66 0 9 C-0.875 16.625 -0.875 16.625 -2 20 C-2.15346953 22.65606301 -2.25717898 25.29095095 -2.31640625 27.94921875 C-2.33718735 28.72183548 -2.35796844 29.49445221 -2.37937927 30.29048157 C-2.44471038 32.7560648 -2.50368315 35.22175361 -2.5625 37.6875 C-2.60570087 39.36003691 -2.64931566 41.03256319 -2.69335938 42.70507812 C-2.8003749 46.8032775 -2.90168857 50.90158296 -3 55 C-3.33 55 -3.66 55 -4 55 C-4.0763903 48.59545578 -4.12874214 42.19103014 -4.16479492 35.78613281 C-4.17983299 33.60965585 -4.20026873 31.43320895 -4.22631836 29.25683594 C-4.2629209 26.11906492 -4.27977661 22.9816964 -4.29296875 19.84375 C-4.30845261 18.87884644 -4.32393646 17.91394287 -4.33988953 16.9197998 C-4.34136977 10.90752291 -3.50260785 6.48555813 -1 1 C-0.67 0.67 -0.34 0.34 0 0 Z " fill="#E28C37" transform="translate(84,222)"/>
<path d="M0 0 C1.32 0.33 2.64 0.66 4 1 C3.66226563 1.49628906 3.32453125 1.99257812 2.9765625 2.50390625 C2.30753906 3.52291016 2.30753906 3.52291016 1.625 4.5625 C1.18414062 5.22378906 0.74328125 5.88507813 0.2890625 6.56640625 C-3.06772872 12.90362118 -3.32432078 19.06319219 -3.4140625 26.08984375 C-3.43342865 27.03436905 -3.4527948 27.97889435 -3.4727478 28.95204163 C-3.53217692 31.94710467 -3.57878154 34.94220691 -3.625 37.9375 C-3.66321356 39.97722962 -3.70226723 42.01694369 -3.7421875 44.05664062 C-3.8378481 49.03763299 -3.92201365 54.01870083 -4 59 C-4.33 59 -4.66 59 -5 59 C-5.07463276 52.91685614 -5.12882912 46.83398388 -5.16479492 40.75048828 C-5.17980192 38.68468579 -5.200214 36.61891472 -5.22631836 34.55322266 C-5.26305961 31.56925662 -5.27980764 28.58571493 -5.29296875 25.6015625 C-5.30845261 24.69072906 -5.32393646 23.77989563 -5.33988953 22.84146118 C-5.34199796 14.65164564 -3.24544353 7.48948508 0 0 Z " fill="#141F1F" transform="translate(83,218)"/>
<path d="M0 0 C0.33 0 0.66 0 1 0 C1 10.89 1 21.78 1 33 C-2.63 33 -6.26 33 -10 33 C-10 31.35 -10 29.7 -10 28 C-8.68 27.67 -7.36 27.34 -6 27 C-5.67 27.99 -5.34 28.98 -5 30 C-3.35 30 -1.7 30 0 30 C0 20.1 0 10.2 0 0 Z " fill="#061E3F" transform="translate(333,242)"/>
<path d="M0 0 C0.66 0.33 1.32 0.66 2 1 C1.67 1.33 1.34 1.66 1 2 C1.28730055 4.33944736 1.61936779 6.6739143 2 9 C3.10859375 9.26554688 4.2171875 9.53109375 5.359375 9.8046875 C6.82297811 10.16120621 8.28651641 10.51799103 9.75 10.875 C10.47960937 11.04902344 11.20921875 11.22304687 11.9609375 11.40234375 C15.53285028 12.27908598 18.79373841 13.12686823 22 15 C20.60667426 18.36720387 19.0210714 19.9859524 16 22 C16.33 19.69 16.66 17.38 17 15 C16.10796875 14.79503906 15.2159375 14.59007812 14.296875 14.37890625 C13.12640625 14.10949219 11.9559375 13.84007812 10.75 13.5625 C9.00976562 13.16224609 9.00976562 13.16224609 7.234375 12.75390625 C6.16703125 12.50511719 5.0996875 12.25632813 4 12 C3.22140625 11.84402344 2.4428125 11.68804687 1.640625 11.52734375 C1.09921875 11.35332031 0.5578125 11.17929688 0 11 C-1.62651522 7.74696956 -1.11453156 4.60774398 -1 1 C-0.67 0.67 -0.34 0.34 0 0 Z " fill="#CF823A" transform="translate(100,228)"/>
<path d="M0 0 C2.31 0.66 4.62 1.32 7 2 C7.33 3.32 7.66 4.64 8 6 C6.35 6 4.7 6 3 6 C2.5978125 7.7015625 2.5978125 7.7015625 2.1875 9.4375 C1.795625 10.613125 1.40375 11.78875 1 13 C0.01 13.33 -0.98 13.66 -2 14 C-2.08226668 10.95613276 -1.97608217 8.92824652 -1 6 C-1.99 6 -2.98 6 -4 6 C-4 5.34 -4 4.68 -4 4 C-3.34 4 -2.68 4 -2 4 C-1.67 3.34 -1.34 2.68 -1 2 C-0.67 1.34 -0.34 0.68 0 0 Z " fill="#032245" transform="translate(325,235)"/>
<path d="M0 0 C1.64666203 0.1135629 3.29236082 0.24117381 4.9375 0.375 C5.85402344 0.44460937 6.77054688 0.51421875 7.71484375 0.5859375 C8.84599609 0.79089844 8.84599609 0.79089844 10 1 C11.65497356 4.30994713 11.10084335 7.99123 11.0625 11.625 C11.05798828 12.42679688 11.05347656 13.22859375 11.04882812 14.0546875 C11.03703168 16.03649006 11.01909605 18.01825433 11 20 C10.34 20 9.68 20 9 20 C8.67 14.72 8.34 9.44 8 4 C2.52174919 3.5527864 2.52174919 3.5527864 0 5 C0 3.35 0 1.7 0 0 Z " fill="#18212D" transform="translate(134,236)"/>
<path d="M0 0 C0.94735519 0.0028299 1.89471039 0.00565979 2.87077332 0.00857544 C5.88663541 0.01974063 8.90219691 0.04483861 11.91796875 0.0703125 C13.96679258 0.08034703 16.01562107 0.08947205 18.06445312 0.09765625 C23.07824023 0.11966801 28.09180358 0.15417279 33.10546875 0.1953125 C33.10546875 0.5253125 33.10546875 0.8553125 33.10546875 1.1953125 C31.97117432 1.21513184 30.83687988 1.23495117 29.66821289 1.25537109 C25.42435029 1.33195079 21.18080739 1.42058371 16.93725586 1.51269531 C15.10724235 1.55077018 13.27715948 1.58565888 11.44702148 1.6171875 C8.8029719 1.66330883 6.15939117 1.72122081 3.515625 1.78125 C2.70899918 1.79280121 1.90237335 1.80435242 1.07130432 1.81625366 C-4.45217485 1.95693519 -9.54712897 2.81451174 -14.89453125 4.1953125 C-14.89453125 3.5353125 -14.89453125 2.8753125 -14.89453125 2.1953125 C-10.02966104 -0.3586339 -5.34710616 -0.06033879 0 0 Z " fill="#212228" transform="translate(110.89453125,206.8046875)"/>
<path d="M0 0 C1.32 0 2.64 0 4 0 C4.625 1.8125 4.625 1.8125 5 4 C4.01 5.485 4.01 5.485 3 7 C2.31822584 8.32567199 1.64808564 9.65753688 1 11 C0.67 10.67 0.34 10.34 0 10 C-0.99 10 -1.98 10 -3 10 C-3.625 8.1875 -3.625 8.1875 -4 6 C-3.34 5.01 -2.68 4.02 -2 3 C-1.34 3 -0.68 3 0 3 C0 2.01 0 1.02 0 0 Z " fill="#032348" transform="translate(220,241)"/>
<path d="M0 0 C1.32 0.99 2.64 1.98 4 3 C3.67 4.32 3.34 5.64 3 7 C2.34 7 1.68 7 1 7 C1 7.66 1 8.32 1 9 C0.34 9 -0.32 9 -1 9 C-1 9.66 -1 10.32 -1 11 C-1.66 11 -2.32 11 -3 11 C-3 11.66 -3 12.32 -3 13 C-5.475 12.01 -5.475 12.01 -8 11 C-8 10.34 -8 9.68 -8 9 C-9.65 8.67 -11.3 8.34 -13 8 C-11.125 6.9375 -11.125 6.9375 -9 6 C-8.34 6.33 -7.68 6.66 -7 7 C-7 7.66 -7 8.32 -7 9 C-3.535 8.505 -3.535 8.505 0 8 C0 5.36 0 2.72 0 0 Z " fill="#49586C" transform="translate(231,217)"/>
<path d="M0 0 C3.12279422 1.17104783 6.01092291 2.540941 8.9375 4.125 C12.45604259 5.88758442 15.01541317 6.72447033 19 6 C21.37719693 4.12498069 21.37719693 4.12498069 23 2 C23.33 2.66 23.66 3.32 24 4 C23.34 4 22.68 4 22 4 C21.731875 4.61875 21.46375 5.2375 21.1875 5.875 C20 8 20 8 17 10 C15.68 10 14.36 10 13 10 C13 9.34 13 8.68 13 8 C12.01 8 11.02 8 10 8 C10 7.34 10 6.68 10 6 C6.3791799 4.98617037 2.72188582 4.50102309 -1 4 C-0.67 2.68 -0.34 1.36 0 0 Z " fill="#D68236" transform="translate(93,259)"/>
<path d="M0 0 C2.13810035 0.23756671 4.27616857 0.47542661 6.4140625 0.71484375 C8.09572971 0.90028439 9.7780104 1.08027091 11.4609375 1.25390625 C12.23695312 1.33511719 13.01296875 1.41632813 13.8125 1.5 C14.52019531 1.5721875 15.22789063 1.644375 15.95703125 1.71875 C18.02458482 2.00338453 19.98628208 2.45697494 22 3 C20.90625 4.58203125 20.90625 4.58203125 19 6 C15.96875 5.63671875 15.96875 5.63671875 12.5 4.6875 C7.80890573 3.4008896 7.80890573 3.4008896 3 3 C2.67 4.32 2.34 5.64 2 7 C1.34 7 0.68 7 0 7 C0 4.69 0 2.38 0 0 Z " fill="#D1823C" transform="translate(91,252)"/>
<path d="M0 0 C1.180933 3.542799 1.27028374 6.28359861 1 10 C0.01 10.66 -0.98 11.32 -2 12 C-2.36362818 14.20725073 -2.36362818 14.20725073 -2.1875 16.625 C-2.16042969 17.44226563 -2.13335937 18.25953125 -2.10546875 19.1015625 C-2.07066406 19.72804687 -2.03585938 20.35453125 -2 21 C-5.40266505 15.89600242 -5.15353835 12.92680047 -4 7 C-1.75 1.75 -1.75 1.75 0 0 Z " fill="#3F5169" transform="translate(197,218)"/>
<path d="M0 0 C4.29 0 8.58 0 13 0 C13 1.32 13 2.64 13 4 C10.03 3.67 7.06 3.34 4 3 C3.67 5.97 3.34 8.94 3 12 C2.34 12 1.68 12 1 12 C0.67 8.04 0.34 4.08 0 0 Z " fill="#172B40" transform="translate(342,212)"/>
<path d="M0 0 C3.43595166 1.52708963 6.11912454 3.59927045 9 6 C8.01 6.33 7.02 6.66 6 7 C6 6.34 6 5.68 6 5 C5.01 5 4.02 5 3 5 C3 4.34 3 3.68 3 3 C-0.11490087 4.57577814 -0.11490087 4.57577814 -3 7 C-3.50169415 10.16926564 -3.50169415 10.16926564 -3 13 C-4.32 12.34 -5.64 11.68 -7 11 C-7 9.68 -7 8.36 -7 7 C-6.34 7 -5.68 7 -5 7 C-5 6.34 -5 5.68 -5 5 C-4.34 5 -3.68 5 -3 5 C-2.690625 4.360625 -2.38125 3.72125 -2.0625 3.0625 C-1 1 -1 1 0 0 Z " fill="#435267" transform="translate(197,257)"/>
<path d="M0 0 C2.9375 0.1875 2.9375 0.1875 3.9375 1.1875 C4.01069621 3.88404854 4.02992537 6.55441458 4 9.25 C3.99548828 10.00861328 3.99097656 10.76722656 3.98632812 11.54882812 C3.9745068 13.42841871 3.95657078 15.30796899 3.9375 17.1875 C3.6075 17.1875 3.2775 17.1875 2.9375 17.1875 C2.9375 12.2375 2.9375 7.2875 2.9375 2.1875 C-1.89289586 3.73886969 -1.89289586 3.73886969 -4.1875 6.3125 C-4.80625 6.93125 -5.425 7.55 -6.0625 8.1875 C-7.0525 8.1875 -8.0425 8.1875 -9.0625 8.1875 C-9.0625 7.5275 -9.0625 6.8675 -9.0625 6.1875 C-8.4025 6.1875 -7.7425 6.1875 -7.0625 6.1875 C-6.77375 5.56875 -6.485 4.95 -6.1875 4.3125 C-4.45622604 1.04231586 -3.77862541 0.23134441 0 0 Z " fill="#C87E3D" transform="translate(139.0625,238.8125)"/>
<path d="M0 0 C0.33 0 0.66 0 1 0 C1.66 1.98 2.32 3.96 3 6 C5.97 6.33 8.94 6.66 12 7 C12 6.34 12 5.68 12 5 C12.99 4.67 13.98 4.34 15 4 C15 4.66 15 5.32 15 6 C14.34 6 13.68 6 13 6 C13 6.66 13 7.32 13 8 C9.37 8 5.74 8 2 8 C2 8.66 2 9.32 2 10 C1.34 10 0.68 10 0 10 C0 10.66 0 11.32 0 12 C-1.32 11.34 -2.64 10.68 -4 10 C-3.67 9.34 -3.34 8.68 -3 8 C-2.34 8 -1.68 8 -1 8 C-0.67 5.36 -0.34 2.72 0 0 Z " fill="#405771" transform="translate(305,259)"/>
<path d="M0 0 C-0.33 0.99 -0.66 1.98 -1 3 C-3.0625 3.6875 -3.0625 3.6875 -5 4 C-5.0825 4.61875 -5.165 5.2375 -5.25 5.875 C-6 8 -6 8 -7.875 9.0625 C-8.57625 9.371875 -9.2775 9.68125 -10 10 C-11.70921589 11.5412312 -11.70921589 11.5412312 -13 13 C-11.50860733 6.20587783 -7.25777414 0 0 0 Z " fill="#253A53" transform="translate(254,231)"/>
<path d="M0 0 C1.76923828 0.01353516 1.76923828 0.01353516 3.57421875 0.02734375 C4.47785156 0.03894531 5.38148438 0.05054688 6.3125 0.0625 C6.3125 0.7225 6.3125 1.3825 6.3125 2.0625 C1.6925 2.0625 -2.9275 2.0625 -7.6875 2.0625 C-7.6875 2.7225 -7.6875 3.3825 -7.6875 4.0625 C-9.0075 4.0625 -10.3275 4.0625 -11.6875 4.0625 C-12.0175 5.0525 -12.3475 6.0425 -12.6875 7.0625 C-13.6775 6.4025 -14.6675 5.7425 -15.6875 5.0625 C-10.07718046 1.1976132 -6.79921594 -0.06731897 0 0 Z " fill="#3B4759" transform="translate(213.6875,211.9375)"/>
<path d="M0 0 C2.97 0.33 5.94 0.66 9 1 C8.67 2.32 8.34 3.64 8 5 C5.69 5.33 3.38 5.66 1 6 C0.34 5.01 -0.32 4.02 -1 3 C-0.67 2.01 -0.34 1.02 0 0 Z " fill="#012450" transform="translate(305,269)"/>
<path d="M0 0 C3.47294006 2.31529337 3.91050088 3.06104164 5 7 C5.15647811 10.00841781 5.11800991 12.99074736 5 16 C4.01 16.33 3.02 16.66 2 17 C1.93941406 16.02417969 1.87882813 15.04835938 1.81640625 14.04296875 C1.73261719 12.77066406 1.64882812 11.49835938 1.5625 10.1875 C1.48128906 8.92292969 1.40007812 7.65835938 1.31640625 6.35546875 C1.12815453 3.00818107 1.12815453 3.00818107 0 0 Z " fill="#546272" transform="translate(231,246)"/>
<path d="M0 0 C0.33 0 0.66 0 1 0 C1.05425013 2.87525669 1.09379277 5.74947646 1.125 8.625 C1.14175781 9.43324219 1.15851563 10.24148437 1.17578125 11.07421875 C1.21420986 15.80093815 0.82737094 19.55387702 -1 24 C-3.1879642 20.71805371 -3.18876203 19.77524063 -3 16 C-3 15.01 -3 14.02 -3 13 C-2.01 13 -1.02 13 0 13 C0 8.71 0 4.42 0 0 Z " fill="#E6822A" transform="translate(141,241)"/>
<path d="M0 0 C3.93673644 1.31224548 6.22719294 2.91910327 9 6 C8.67 6.66 8.34 7.32 8 8 C6.33333333 8 4.66666667 8 3 8 C2.01 8.495 2.01 8.495 1 9 C0.67 6.03 0.34 3.06 0 0 Z " fill="#2B445D" transform="translate(323,229)"/>
<path d="M0 0 C1.0326802 2.78823655 1.04509293 3.8677274 0.0625 6.75 C-0.288125 7.4925 -0.63875 8.235 -1 9 C-1.33 8.34 -1.66 7.68 -2 7 C-2.66 7 -3.32 7 -4 7 C-4 7.66 -4 8.32 -4 9 C-9.45769231 12.10096154 -9.45769231 12.10096154 -12.203125 11.58984375 C-12.79609375 11.39519531 -13.3890625 11.20054687 -14 11 C-13.32453125 10.62488281 -12.6490625 10.24976563 -11.953125 9.86328125 C-5.10718335 5.94216036 -5.10718335 5.94216036 0 0 Z " fill="#212532" transform="translate(139,265)"/>
<path d="M0 0 C0.66 0 1.32 0 2 0 C1.45660208 4.56454251 0.20536179 7.9728176 -2 12 C-2.66 12 -3.32 12 -4 12 C-4 12.66 -4 13.32 -4 14 C-4.66 14 -5.32 14 -6 14 C-6 14.66 -6 15.32 -6 16 C-6.66 15.67 -7.32 15.34 -8 15 C-7.34 13.35 -6.68 11.7 -6 10 C-5.01 10.33 -4.02 10.66 -3 11 C-3.061875 10.113125 -3.12375 9.22625 -3.1875 8.3125 C-2.97935526 4.63527631 -2.21793417 2.90037545 0 0 Z " fill="#384964" transform="translate(287,257)"/>
<path d="M0 0 C1.2065625 0.0309375 1.2065625 0.0309375 2.4375 0.0625 C2.7675 0.7225 3.0975 1.3825 3.4375 2.0625 C4.4275 2.3925 5.4175 2.7225 6.4375 3.0625 C6.4375 4.0525 6.4375 5.0425 6.4375 6.0625 C3.31459365 5.57671457 0.44169641 5.0638988 -2.5625 4.0625 C-2.8925 3.0725 -3.2225 2.0825 -3.5625 1.0625 C-2.5625 0.0625 -2.5625 0.0625 0 0 Z " fill="#04244E" transform="translate(105.5625,258.9375)"/>
<path d="M0 0 C0 0.66 0 1.32 0 2 C-2.64 2 -5.28 2 -8 2 C-8 2.66 -8 3.32 -8 4 C-9.98 4 -11.96 4 -14 4 C-14 4.66 -14 5.32 -14 6 C-15.98 6.66 -17.96 7.32 -20 8 C-14.43321908 1.56340957 -8.43234926 -0.52702183 0 0 Z " fill="#D78638" transform="translate(109,209)"/>
<path d="M0 0 C-3.75 3 -3.75 3 -6 3 C-6.33 3.99 -6.66 4.98 -7 6 C-11.75 5.25 -11.75 5.25 -14 3 C-13.236875 2.87625 -12.47375 2.7525 -11.6875 2.625 C-0.3358209 -0.01492537 -0.3358209 -0.01492537 0 0 Z " fill="#49596D" transform="translate(312,238)"/>
<path d="M0 0 C0.66 0.99 1.32 1.98 2 3 C1.34 3 0.68 3 0 3 C0 5.97 0 8.94 0 12 C0.99 12.33 1.98 12.66 3 13 C3.33 13.99 3.66 14.98 4 16 C4.66 16.66 5.32 17.32 6 18 C6 18.66 6 19.32 6 20 C5.34 20 4.68 20 4 20 C4 19.34 4 18.68 4 18 C3.34 18 2.68 18 2 18 C-1.67834162 13.89723435 -1.28764135 9.63057959 -1.203125 4.42578125 C-1 2 -1 2 0 0 Z " fill="#738091" transform="translate(294,255)"/>
<path d="M0 0 C0.99 0.33 1.98 0.66 3 1 C2.38065327 10.99497487 2.38065327 10.99497487 -1 14 C-3.1875 14.75 -3.1875 14.75 -5 15 C-5 14.01 -5 13.02 -5 12 C-3.35 11.67 -1.7 11.34 0 11 C-0.33 9.02 -0.66 7.04 -1 5 C-0.34 5 0.32 5 1 5 C0.67 3.35 0.34 1.7 0 0 Z " fill="#29405C" transform="translate(320,261)"/>
<path d="M0 0 C0.99 0 1.98 0 3 0 C3.33 0.99 3.66 1.98 4 3 C3.34 3 2.68 3 2 3 C2 4.65 2 6.3 2 8 C-11.6332574 9.33257403 -11.6332574 9.33257403 -18 8 C-18 7.67 -18 7.34 -18 7 C-11.73 7 -5.46 7 1 7 C0.67 4.69 0.34 2.38 0 0 Z " fill="#485670" transform="translate(321,241)"/>
<path d="M0 0 C0.66 0.33 1.32 0.66 2 1 C1.25 3.4375 1.25 3.4375 0 6 C-2.125 6.8125 -2.125 6.8125 -4 7 C-4 7.66 -4 8.32 -4 9 C-4.99 9.33 -5.98 9.66 -7 10 C-5.125 5.25 -5.125 5.25 -4 3 C-3.34 3 -2.68 3 -2 3 C-2 2.34 -2 1.68 -2 1 C-1.34 0.67 -0.68 0.34 0 0 Z " fill="#516076" transform="translate(63,191)"/>
<path d="M0 0 C1.60746056 0.42523816 3.21089836 0.86570126 4.8125 1.3125 C6.15248047 1.67794922 6.15248047 1.67794922 7.51953125 2.05078125 C10.05247738 3.0200819 11.2716496 3.95009604 13 6 C12.01 6.33 11.02 6.66 10 7 C9.67 6.01 9.34 5.02 9 4 C7.35 4.66 5.7 5.32 4 6 C1.7522025 3.94766315 0.9977758 2.99332739 0 0 Z " fill="#56697E" transform="translate(215,237)"/>
<path d="M0 0 C2.4375 0.75 2.4375 0.75 5 2 C6.35886391 4.91185125 5.96392528 7.00112135 5 10 C3.68 10 2.36 10 1 10 C1.20625 8.906875 1.4125 7.81375 1.625 6.6875 C2.40346525 2.9161599 2.40346525 2.9161599 0 0 Z " fill="#183455" transform="translate(226,215)"/>
<path d="M0 0 C0.33 0.66 0.66 1.32 1 2 C0.06553465 4.03144641 -0.93224776 6.03533587 -2 8 C-1.34 8.33 -0.68 8.66 0 9 C-0.875 16.625 -0.875 16.625 -2 20 C-2.33 20 -2.66 20 -3 20 C-3.08139142 17.60347472 -3.14067009 15.20974564 -3.1875 12.8125 C-3.22520508 11.80219727 -3.22520508 11.80219727 -3.26367188 10.77148438 C-3.32923478 6.29135252 -2.66743649 3.60559001 0 0 Z " fill="#E88326" transform="translate(84,222)"/>
<path d="M0 0 C1.20628008 2.33214148 2.1654738 4.49642139 3 7 C6.00847418 8.22520264 6.00847418 8.22520264 9 9 C9 9.33 9 9.66 9 10 C6.69 10 4.38 10 2 10 C-1.07692308 4.58461538 -1.07692308 4.58461538 -0.6875 1.625 C-0.460625 1.08875 -0.23375 0.5525 0 0 Z " fill="#4B5C70" transform="translate(253,255)"/>
<path d="M0 0 C0.99 0.33 1.98 0.66 3 1 C4.1875 3.5625 4.1875 3.5625 5 6 C3.68 6 2.36 6 1 6 C1 6.99 1 7.98 1 9 C0.34 9 -0.32 9 -1 9 C-1.80967438 6.08517222 -2.21845993 4.53886783 -1.0625 1.6875 C-0.711875 1.130625 -0.36125 0.57375 0 0 Z " fill="#2C4560" transform="translate(411,235)"/>
<path d="M0 0 C2.4375 0.9375 2.4375 0.9375 5 3 C5.7524935 5.98877701 5.92909865 8.92545953 6 12 C5.34 11.67 4.68 11.34 4 11 C4 10.01 4 9.02 4 8 C3.34 8 2.68 8 2 8 C1.01 5.69 0.02 3.38 -1 1 C-0.67 0.67 -0.34 0.34 0 0 Z " fill="#2C405C" transform="translate(399,234)"/>
<path d="M0 0 C3.3 0 6.6 0 10 0 C10 3.96 10 7.92 10 12 C9.67 12 9.34 12 9 12 C9 8.7 9 5.4 9 2 C4.35413108 2.48484276 4.35413108 2.48484276 0 4 C0 2.68 0 1.36 0 0 Z " fill="#092343" transform="translate(426,214)"/>
<path d="M0 0 C0.99 0.66 1.98 1.32 3 2 C2.67 2.99 2.34 3.98 2 5 C3.32 5.33 4.64 5.66 6 6 C5.05125 6.45375 4.1025 6.9075 3.125 7.375 C-0.00313679 8.80238254 -0.00313679 8.80238254 -2 11 C-2 9.35 -2 7.7 -2 6 C-1.01 6 -0.02 6 1 6 C1 5.34 1 4.68 1 4 C0.34 4 -0.32 4 -1 4 C-0.67 2.68 -0.34 1.36 0 0 Z " fill="#425972" transform="translate(257,234)"/>
<path d="M0 0 C1.32 0.33 2.64 0.66 4 1 C3.66226563 1.50789062 3.32453125 2.01578125 2.9765625 2.5390625 C0.34589186 6.59911488 -1.70414665 10.287806 -3 15 C-4.15782198 11.61915982 -3.83835147 9.70336781 -2.625 6.375 C-2.34914063 5.59898437 -2.07328125 4.82296875 -1.7890625 4.0234375 C-1 2 -1 2 0 0 Z " fill="#2B2327" transform="translate(83,218)"/>
<path d="M0 0 C-2.65654657 3.73884332 -4.58110387 5.64978174 -9 7 C-9 6.01 -9 5.02 -9 4 C-8.01 3.67 -7.02 3.34 -6 3 C-6.33 2.34 -6.66 1.68 -7 1 C-3.375 -1.125 -3.375 -1.125 0 0 Z " fill="#536376" transform="translate(233,268)"/>
<path d="M0 0 C1.32 0 2.64 0 4 0 C4 0.66 4 1.32 4 2 C4.66 2 5.32 2 6 2 C7.60080151 6.00200378 6.29279692 9.04556236 5 13 C4.67 13 4.34 13 4 13 C3.93941406 12.38511719 3.87882812 11.77023438 3.81640625 11.13671875 C3.73261719 10.32847656 3.64882813 9.52023438 3.5625 8.6875 C3.48128906 7.88699219 3.40007812 7.08648437 3.31640625 6.26171875 C3.04734307 3.83912821 3.04734307 3.83912821 2 1 C1.34 0.67 0.68 0.34 0 0 Z " fill="#495B72" transform="translate(272,242)"/>
<path d="M0 0 C2 0 2 0 3.9375 1.875 C4.618125 2.57625 5.29875 3.2775 6 4 C6.99 4.66 7.98 5.32 9 6 C9 6.66 9 7.32 9 8 C2.18181818 6.03030303 2.18181818 6.03030303 0 3 C0 2.01 0 1.02 0 0 Z " fill="#55647A" transform="translate(196,239)"/>
<path d="M0 0 C0 0.66 0 1.32 0 2 C-1.32 2 -2.64 2 -4 2 C-4 2.66 -4 3.32 -4 4 C-5.65 4 -7.3 4 -9 4 C-8.67 2.68 -8.34 1.36 -8 0 C-4.94736336 -0.98120464 -3.05263664 -0.98120464 0 0 Z " fill="#273D5A" transform="translate(312,229)"/>
<path d="M0 0 C-0.99 0.66 -1.98 1.32 -3 2 C-3 2.99 -3 3.98 -3 5 C-4.32 5.33 -5.64 5.66 -7 6 C-7.33 5.01 -7.66 4.02 -8 3 C-8.66 2.34 -9.32 1.68 -10 1 C-8.71073008 0.63720544 -7.41846728 0.28503302 -6.125 -0.0625 C-5.40570313 -0.25972656 -4.68640625 -0.45695312 -3.9453125 -0.66015625 C-2 -1 -2 -1 0 0 Z " fill="#485F79" transform="translate(272,264)"/>
<path d="M0 0 C2.97 0.33 5.94 0.66 9 1 C9 1.33 9 1.66 9 2 C7.02 2.33 5.04 2.66 3 3 C2.67 4.32 2.34 5.64 2 7 C1.34 7 0.68 7 0 7 C0 4.69 0 2.38 0 0 Z " fill="#DE832D" transform="translate(91,252)"/>
<path d="M0 0 C4.37859255 0.50522222 6.81651224 3.17827222 10 6 C9.67 6.66 9.34 7.32 9 8 C8.34 8 7.68 8 7 8 C7 7.01 7 6.02 7 5 C6.360625 4.896875 5.72125 4.79375 5.0625 4.6875 C4.381875 4.460625 3.70125 4.23375 3 4 C2.67 3.01 2.34 2.02 2 1 C1.34 0.67 0.68 0.34 0 0 Z " fill="#617181" transform="translate(153,190)"/>
<path d="M0 0 C2.40575607 2.18517099 3.79535581 4.25919671 5.1875 7.1875 C5.53167969 7.90292969 5.87585938 8.61835938 6.23046875 9.35546875 C6.48441406 9.89816406 6.73835938 10.44085938 7 11 C6.01 11.495 6.01 11.495 5 12 C4.67 11.01 4.34 10.02 4 9 C3.34 8.67 2.68 8.34 2 8 C0.11813998 4.9681144 0 3.75482645 0 0 Z " fill="#576678" transform="translate(416,241)"/>
<path d="M0 0 C0.99 0 1.98 0 3 0 C1.4169423 4.2742558 -1.50568404 6.26531794 -5 9 C-5 7.68 -5 6.36 -5 5 C-4.01 5 -3.02 5 -2 5 C-2 4.34 -2 3.68 -2 3 C-1.34 3 -0.68 3 0 3 C0 2.01 0 1.02 0 0 Z " fill="#27292D" transform="translate(127,245)"/>
<path d="M0 0 C0.8353125 0.556875 0.8353125 0.556875 1.6875 1.125 C-0.6225 2.445 -2.9325 3.765 -5.3125 5.125 C-5.9725 3.805 -6.6325 2.485 -7.3125 1.125 C-2.88173077 -1.09038462 -2.88173077 -1.09038462 0 0 Z " fill="#18263E" transform="translate(94.3125,210.875)"/>
<path d="M0 0 C3 1 3 1 5 4 C5.99 4.66 6.98 5.32 8 6 C6.02 6.33 4.04 6.66 2 7 C1.67 6.01 1.34 5.02 1 4 C0.34 3.67 -0.32 3.34 -1 3 C-0.67 2.01 -0.34 1.02 0 0 Z " fill="#042142" transform="translate(152,190)"/>
<path d="M0 0 C0 0.99 0 1.98 0 3 C-3.3 3 -6.6 3 -10 3 C-10 2.34 -10 1.68 -10 1 C-2.25 0 -2.25 0 0 0 Z " fill="#05162E" transform="translate(376,273)"/>
<path d="M0 0 C0.66 0.33 1.32 0.66 2 1 C1.38125 1.598125 0.7625 2.19625 0.125 2.8125 C-2.13676954 5.00811144 -2.13676954 5.00811144 -4 8 C-3.34 8.33 -2.68 8.66 -2 9 C-2.99 9 -3.98 9 -5 9 C-5.3125 6.75 -5.3125 6.75 -5 4 C-2.5 1.6875 -2.5 1.6875 0 0 Z " fill="#052143" transform="translate(198,260)"/>
<path d="M0 0 C4.875 1.75 4.875 1.75 6 4 C5.01 4.33 4.02 4.66 3 5 C3 6.32 3 7.64 3 9 C2.34 9 1.68 9 1 9 C0.67 6.03 0.34 3.06 0 0 Z " fill="#3B536F" transform="translate(323,229)"/>
<path d="M0 0 C0.66 0 1.32 0 2 0 C2 2.64 2 5.28 2 8 C0.68 7.34 -0.64 6.68 -2 6 C-2 4.68 -2 3.36 -2 2 C-1.34 2 -0.68 2 0 2 C0 1.34 0 0.68 0 0 Z " fill="#4C566D" transform="translate(192,262)"/>
<path d="M0 0 C0.99 0.33 1.98 0.66 3 1 C2.34 1 1.68 1 1 1 C1 1.99 1 2.98 1 4 C2.32 4.33 3.64 4.66 5 5 C4.67 5.66 4.34 6.32 4 7 C1.525 6.01 1.525 6.01 -1 5 C-0.67 3.35 -0.34 1.7 0 0 Z " fill="#241E22" transform="translate(94,254)"/>
<path d="M0 0 C1.32 0.99 2.64 1.98 4 3 C3.67 4.32 3.34 5.64 3 7 C2.34 7 1.68 7 1 7 C0.67 7.66 0.34 8.32 0 9 C0 6.03 0 3.06 0 0 Z " fill="#747D8C" transform="translate(231,217)"/>
<path d="M0 0 C0.99 0.33 1.98 0.66 3 1 C2.67 1.66 2.34 2.32 2 3 C0.68 3 -0.64 3 -2 3 C-2.33 3.99 -2.66 4.98 -3 6 C-3.99 5.34 -4.98 4.68 -6 4 C-3.1875 1.9375 -3.1875 1.9375 0 0 Z " fill="#4B5C71" transform="translate(204,213)"/>
<path d="M0 0 C0.66 0 1.32 0 2 0 C1.67 1.32 1.34 2.64 1 4 C0.34 4 -0.32 4 -1 4 C-1 4.66 -1 5.32 -1 6 C-1.66 6 -2.32 6 -3 6 C-3 6.66 -3 7.32 -3 8 C-3.66 7.67 -4.32 7.34 -5 7 C-4.34 5.35 -3.68 3.7 -3 2 C-2.01 2.33 -1.02 2.66 0 3 C0 2.01 0 1.02 0 0 Z " fill="#4F5D75" transform="translate(284,265)"/>
<path d="M0 0 C0.99 0 1.98 0 3 0 C3 1.32 3 2.64 3 4 C2.34 4 1.68 4 1 4 C1 3.34 1 2.68 1 2 C0.34 1.67 -0.32 1.34 -1 1 C-0.67 0.67 -0.34 0.34 0 0 Z M0 4 C1.98 4.99 1.98 4.99 4 6 C4 6.66 4 7.32 4 8 C3.34 8 2.68 8 2 8 C2 7.34 2 6.68 2 6 C1.34 6 0.68 6 0 6 C0 5.34 0 4.68 0 4 Z " fill="#022047" transform="translate(322,260)"/>
<path d="M0 0 C1.1875 1.6875 1.1875 1.6875 2 4 C0.75 6.75 0.75 6.75 -1 9 C-1.66 9 -2.32 9 -3 9 C-3 8.01 -3 7.02 -3 6 C-2.34 6 -1.68 6 -1 6 C-0.67 4.02 -0.34 2.04 0 0 Z " fill="#DF832F" transform="translate(136,262)"/>
<path d="M0 0 C1.98 0 3.96 0 6 0 C6.33 1.32 6.66 2.64 7 4 C4.69 3.34 2.38 2.68 0 2 C0 1.34 0 0.68 0 0 Z " fill="#3F5166" transform="translate(211,248)"/>
<path d="M0 0 C0.99 0 1.98 0 3 0 C3.33 1.98 3.66 3.96 4 6 C3.01 6.66 2.02 7.32 1 8 C0.67 5.36 0.34 2.72 0 0 Z " fill="#102140" transform="translate(144,208)"/>
<path d="M0 0 C1.32 0.66 2.64 1.32 4 2 C3.401875 2.268125 2.80375 2.53625 2.1875 2.8125 C0.02775192 3.98493467 -1.35790256 5.19369282 -3 7 C-1.125 1.125 -1.125 1.125 0 0 Z " fill="#616F88" transform="translate(244,237)"/>
</svg>
